<svg width="465" height="400" viewBox="0 0 465 400" fill="none" xmlns="http://www.w3.org/2000/svg">
<path d="M114.366 270.552H100.63V504.1H114.366V270.552Z" fill="#FFBE21"/>
<path d="M114.372 273.764H100.63" stroke="#A15842" stroke-width="4" stroke-miterlimit="10"/>
<path d="M38.2968 457.237C39.6883 453.245 42.2869 449.785 45.7323 447.337C49.1776 444.889 53.2992 443.573 57.5254 443.573C61.7516 443.573 65.8731 444.889 69.3185 447.337C72.7639 449.785 75.3625 453.245 76.7539 457.237C78.082 453.426 80.5117 450.095 83.735 447.668C86.9583 445.24 90.8298 443.825 94.8583 443.602C93.0597 440.396 90.9181 437.394 88.4712 434.651L81.0773 426.331C78.7786 423.746 77.3309 420.517 76.9307 417.08C76.5304 413.644 77.1971 410.168 78.8401 407.124L85.1154 395.458C83.3536 397.232 73.1689 406.771 57.71 406.771C42.2511 406.771 32.0663 397.232 30.3045 395.458H30.2766L36.5574 407.124C38.1932 410.174 38.8496 413.655 38.4373 417.091C38.025 420.528 36.564 423.754 34.2531 426.331L26.8649 434.617C24.4134 437.361 22.2662 440.362 20.4609 443.569C24.4462 443.847 28.2618 445.29 31.4331 447.721C34.6044 450.151 36.9913 453.46 38.2968 457.237Z" fill="#4756DF"/>
<path d="M57.6652 406.793C73.1241 406.793 83.3089 397.254 85.0706 395.481H30.2598C32.0215 397.237 42.2063 406.793 57.6652 406.793Z" fill="#30242A"/>
<path d="M61.7256 405.193C62.8442 398.345 67.9282 371.199 80.7136 356.445" stroke="#30242A" stroke-width="4" stroke-miterlimit="10" stroke-linecap="round"/>
<path d="M55.8249 405.389C55.741 397.612 54.9412 359.427 47.3516 336.645" stroke="#30242A" stroke-width="4" stroke-miterlimit="10" stroke-linecap="round"/>
<path d="M89.464 378.671C100.674 373.736 108.862 367.691 107.753 365.168C106.643 362.645 96.6557 364.6 85.4454 369.535C74.2352 374.469 66.047 380.514 67.1567 383.037C68.2664 385.56 78.2537 383.605 89.464 378.671Z" fill="#30242A"/>
<path d="M89.4577 309.257C93.4879 303.806 95.2149 298.248 93.3152 296.843C91.4154 295.437 86.6083 298.716 82.5781 304.166C78.5479 309.617 76.8208 315.175 78.7206 316.58C80.6203 317.986 85.4275 314.707 89.4577 309.257Z" fill="#30242A"/>
<path d="M28.7634 382.545C43.3776 380.334 54.9083 376.449 54.518 373.867C54.1277 371.286 41.9642 370.985 27.35 373.196C12.7358 375.407 1.20508 379.292 1.59538 381.874C1.98569 384.456 14.1492 384.756 28.7634 382.545Z" fill="#30242A"/>
<path d="M18.5537 344.41V344.45C20.713 345.657 22.3416 347.631 23.1185 349.98C23.8953 352.33 23.7639 354.886 22.7503 357.143C21.7366 359.401 19.9143 361.197 17.6425 362.176C15.3708 363.156 12.8145 363.249 10.4775 362.437V362.471C22.7261 367.976 34.4769 368.396 36.714 363.411C38.9512 358.426 30.8079 349.916 18.5537 344.41Z" fill="#FF7235"/>
<path d="M54.7677 304.508C52.1614 303.831 48.7721 307.775 46.2944 313.879C43.3134 306.466 38.99 301.503 36.0761 302.466C33.1622 303.428 32.6421 309.985 34.6611 317.717C29.0346 314.293 23.9674 313.141 22.2727 315.239C20.1139 317.913 24.275 324.851 31.5682 330.742C33.6431 332.433 35.8756 333.921 38.235 335.185C38.6372 333.586 39.4321 332.114 40.5475 330.902C41.663 329.689 43.0636 328.774 44.6222 328.241C46.1808 327.707 47.848 327.571 49.4723 327.846C51.0966 328.121 52.6265 328.797 53.9232 329.813C55.0163 327.46 55.8888 325.01 56.5295 322.495C58.8842 313.426 58.0955 305.369 54.7677 304.508Z" fill="#FF7235"/>
<path d="M111.626 345.692C110.821 343.118 105.681 342.335 99.1929 343.454C103.902 337.003 105.826 330.709 103.472 328.745C101.117 326.781 95.2723 329.808 89.78 335.61C89.7129 329.019 88.0071 324.107 85.3336 323.776C81.9275 323.357 78.2362 330.563 77.0952 339.862C76.7571 342.52 76.6747 345.205 76.8491 347.879C78.4183 347.373 80.0889 347.268 81.7091 347.573C83.3293 347.878 84.8477 348.583 86.126 349.624C87.4043 350.665 88.4021 352.01 89.0286 353.536C89.655 355.061 89.8903 356.719 89.7129 358.359C92.2888 358.032 94.8293 357.471 97.3025 356.68C106.234 353.899 112.65 348.97 111.626 345.692Z" fill="#FF7235"/>
<path d="M86.2 349.681C84.921 348.614 83.3929 347.887 81.758 347.569C80.123 347.251 78.4342 347.352 76.8486 347.863C77.1674 352.288 78.286 355.695 79.9695 356.932C81.5411 358.387 85.1765 358.873 89.7012 358.342C89.8776 356.721 89.6502 355.082 89.0392 353.571C88.4283 352.06 87.4529 350.723 86.2 349.681Z" fill="#30242A"/>
<path d="M44.7232 328.208C43.1417 328.73 41.7178 329.643 40.5835 330.863C39.4493 332.082 38.6416 333.569 38.2354 335.184C42.1504 337.255 45.6292 338.094 47.5868 337.333C49.6506 336.773 51.9828 333.937 53.9236 329.813C52.6417 328.807 51.1306 328.133 49.5252 327.853C47.9198 327.573 46.2701 327.695 44.7232 328.208Z" fill="#30242A"/>
<path d="M19.6441 361.022C18.5923 360.435 17.7992 359.475 17.4217 358.331C17.0443 357.187 17.11 355.943 17.6059 354.845C18.1019 353.747 18.9918 352.876 20.0995 352.403C21.2072 351.931 22.4519 351.892 23.5871 352.294C23.4558 350.675 22.9278 349.113 22.0499 347.747C21.1719 346.381 19.9711 345.252 18.5534 344.461L10.4604 362.437C11.9901 362.971 13.6274 363.122 15.2287 362.875C16.83 362.628 18.3462 361.992 19.6441 361.022Z" fill="#F5EBDD"/>
<path d="M17.5862 354.851C17.0984 355.948 17.0391 357.189 17.4201 358.328C17.801 359.467 18.5946 360.422 19.6444 361.005C20.9887 360.005 22.0561 358.679 22.746 357.152C23.4359 355.625 23.7254 353.947 23.5874 352.277C22.447 351.871 21.1952 351.91 20.0826 352.387C18.9699 352.864 18.0783 353.744 17.5862 354.851Z" fill="#4856DF"/>
<path d="M387.201 363.881H244.956L247.361 354.336H309.801L333.615 261.17C336.86 248.479 344.235 237.23 354.578 229.197C364.92 221.163 377.642 216.802 390.736 216.802C422.778 216.802 446.224 247.015 438.276 278.066L423.561 335.632C421.496 343.711 416.802 350.872 410.218 355.986C403.635 361.101 395.537 363.879 387.201 363.881Z" fill="#FFB7D5"/>
<path d="M351.647 498.673L328.067 358.269H254.699L231.119 498.673C231.008 499.341 231.043 500.025 231.223 500.677C231.403 501.33 231.723 501.936 232.16 502.452C232.598 502.969 233.143 503.384 233.757 503.668C234.371 503.953 235.04 504.1 235.717 504.1C236.78 504.099 237.811 503.734 238.639 503.067C239.467 502.399 240.042 501.469 240.269 500.43L271.153 358.269H311.635L342.508 500.43C342.734 501.469 343.309 502.4 344.137 503.068C344.966 503.736 345.997 504.1 347.061 504.1C347.737 504.098 348.404 503.95 349.017 503.665C349.63 503.38 350.173 502.964 350.61 502.448C351.046 501.932 351.365 501.327 351.544 500.675C351.723 500.023 351.758 499.34 351.647 498.673Z" fill="#A15842"/>
<path d="M426.749 498.673L403.147 358.269H329.806L306.227 498.673C306.115 499.341 306.151 500.025 306.33 500.677C306.51 501.33 306.83 501.936 307.268 502.452C307.705 502.969 308.25 503.384 308.864 503.668C309.478 503.953 310.147 504.1 310.824 504.1C311.887 504.1 312.918 503.735 313.745 503.068C314.572 502.4 315.146 501.469 315.371 500.43L346.244 358.269H386.731L417.604 500.43C417.831 501.47 418.406 502.402 419.236 503.07C420.065 503.738 421.098 504.101 422.163 504.1C422.839 504.098 423.506 503.95 424.119 503.665C424.732 503.38 425.275 502.964 425.711 502.448C426.148 501.932 426.467 501.327 426.646 500.675C426.825 500.023 426.86 499.34 426.749 498.673Z" fill="#FFBE21"/>
<path d="M352.648 335.632L361.642 300.446H302.038C290.349 300.446 278.994 304.338 269.761 311.508C260.528 318.679 253.944 328.719 251.047 340.046L244.956 363.881H316.283C324.619 363.88 332.719 361.103 339.303 355.988C345.888 350.873 350.583 343.711 352.648 335.632Z" fill="#FFB7D5"/>
<path d="M248.832 353.401H324.505" stroke="#A15842" stroke-width="4" stroke-linecap="round" stroke-linejoin="round"/>
<path d="M310.069 353.049L323.33 301.184" stroke="#A15842" stroke-width="4" stroke-linecap="round" stroke-linejoin="round"/>
<path d="M431.671 299.243H395.876" stroke="#A15842" stroke-width="4" stroke-linecap="round" stroke-linejoin="round"/>
<path d="M438.383 274.066H392.521" stroke="#A15842" stroke-width="4" stroke-linecap="round" stroke-linejoin="round"/>
<path d="M271.327 262.697C271.327 262.697 226.455 274.922 207.394 284.461C175.967 300.177 176.073 310.55 156.912 368.619C139.221 422.286 137.275 448.296 112.873 449.326C94.2429 450.109 88.1354 456.208 85.1152 464.566L158.836 499.557C159.681 499.957 160.647 500.019 161.536 499.729C162.425 499.44 163.17 498.822 163.618 498.001C164.074 497.162 164.185 496.178 163.927 495.259C163.669 494.339 163.063 493.557 162.236 493.078L160.687 492.183C167.538 483.88 180.755 466.189 193.932 439.317L202.321 443.233C202.321 443.233 215.873 425.615 218.02 405.63C220.817 379.82 219.139 362.426 230.923 352.327L368.342 262.675L271.327 262.697Z" fill="#487FFF"/>
<path d="M207.394 284.461C203.865 286.224 200.738 287.919 197.936 289.62L193.635 303.4L210.19 291.735L225.453 303.909L219.827 287.219L237.115 279.297L223.753 277.619C218.182 279.607 212.722 281.891 207.394 284.461Z" fill="#FFB7D5"/>
<path d="M256.17 277.289L255.051 284.579L262.344 281.776L256.17 277.289Z" fill="#FFB7D5"/>
<path d="M214.106 313.756L203.451 327.782L188.305 320.492L197.276 335.638L183.255 347.42L201.203 345.177L207.377 365.94L213.546 345.177L233.177 339.565L214.106 331.71V313.756Z" fill="#FFB7D5"/>
<path d="M154.205 420.853L155.514 417.116L173.411 416.165L158.87 406.262L165.346 390.747L150.698 400.516L147.902 397.495C145.665 404.863 143.685 411.426 141.75 417.194H141.839C142.052 416.562 142.264 415.924 142.477 415.275L154.205 420.853Z" fill="#FFB7D5"/>
<path d="M198.96 378.282L197.282 393.433L181.577 392.873L195.039 402.978L190.005 420.932L203.479 409.143L215.587 417.222C215.923 416.152 216.231 415.068 216.51 413.972L211.868 402.407L219.061 394.524C219.178 393.058 219.29 391.615 219.396 390.21L206.834 392.308L198.96 378.282Z" fill="#FFB7D5"/>
<path d="M163.976 346.788C162.561 351.164 161.04 355.914 159.362 361.078L174.284 361.99L163.976 346.788Z" fill="#FFB7D5"/>
<path d="M340.881 263.519C340.881 263.519 284.789 273.926 253.938 286.828C222.791 299.858 223.093 322.999 228.697 385.857C233.731 442.131 242.724 469.456 224.223 477.871C207.254 485.592 201.359 495.271 202.164 504.122H285.695C286.166 504.122 286.632 504.029 287.067 503.849C287.502 503.669 287.897 503.405 288.23 503.072C288.563 502.739 288.827 502.343 289.007 501.908C289.187 501.473 289.28 501.007 289.28 500.536C289.28 499.585 288.902 498.673 288.23 498C287.558 497.327 286.646 496.95 285.695 496.95H284.286C286.92 488.328 290.74 471.498 291.266 443.647H301.624C301.624 443.647 306.948 419.029 301.064 397.075C294.912 374.075 289.286 370.147 285.924 354.436H336.188C374.573 354.436 403.304 318.92 394.953 281.445C392.347 269.735 388.566 263.542 388.566 263.542L340.881 263.519Z" fill="#487FFF"/>
<path d="M306.104 296.362L295.807 309.319L279.772 303.808L289.275 319.368L276.937 336.203L293.201 329.467L302.267 346.184L303.296 327.782L319.001 324.42L305.544 316L306.104 296.362Z" fill="#FFB7D5"/>
<path d="M283.698 396.387L293.206 411.946L280.868 428.781L297.132 422.068L303.162 433.185C304.045 424.546 304.482 411.767 301.663 399.498L299.739 401.92L283.698 396.387Z" fill="#FFB7D5"/>
<path d="M360.484 264.969L334.717 267.251L337.402 277.613L320.919 286.408L341.451 289.155L348.398 304.547L355.54 288.607L376.424 285.306L358.286 275.963L360.484 264.969Z" fill="#FFB7D5"/>
<path d="M237.674 337.881L243.826 318.243L261.774 321.041L247.752 308.698L257.82 296.915L239.313 303.629L236.354 298.555C231.594 303.948 228.72 310.645 227.182 319.256L230.336 319.357L237.674 337.881Z" fill="#FFB7D5"/>
<path d="M285.695 276.276C281.909 277.328 278.139 278.43 274.459 279.566L289.286 289.636L285.695 276.276Z" fill="#FFB7D5"/>
<path d="M261.232 367.059L253.379 350.789L249.453 368.743L234.872 367.624L248.329 379.407L239.917 399.045L254.52 385.427L266.623 399.386L262.915 378.282L275.253 362.012L261.232 367.059Z" fill="#FFB7D5"/>
<path d="M285.695 355.673L271.254 355.472" stroke="#A15842" stroke-width="4" stroke-miterlimit="10" stroke-linecap="round"/>
<path d="M296.433 273.825C281.472 277.641 265.482 282.324 253.368 287.382C227.528 298.208 223.339 315.977 225.85 357.648" stroke="#A15842" stroke-width="4" stroke-miterlimit="10" stroke-linecap="round"/>
<path d="M287.032 94.9342C279.201 93.8152 261.265 102.236 260.672 118.88C260.079 135.525 274.934 140.874 277.311 142.066L311.78 136.711L314.157 98.666L287.032 94.9342Z" fill="#A15842"/>
<path d="M347.928 53.5991C362.724 53.5991 374.718 41.6005 374.718 26.7995C374.718 11.9986 362.724 0 347.928 0C333.132 0 321.138 11.9986 321.138 26.7995C321.138 41.6005 333.132 53.5991 347.928 53.5991Z" fill="#A15842"/>
<path d="M330.551 45.2291C332.184 45.9844 318.431 13.3383 311.412 18.4296C304.806 23.2356 322.256 41.4022 330.551 45.2291Z" fill="#30242A"/>
<path d="M331.311 47.2265C332.81 49.0169 367.9 36.7361 363.046 29.6529C358.403 22.8383 329.812 45.4305 331.311 47.2265Z" fill="#30242A"/>
<path d="M377.895 137.013C377.895 137.013 401.452 117.375 386.284 95.4937C376.631 81.5456 350.383 87.1013 350.383 87.1013C351.021 79.4419 353.101 57.3757 336.513 45.2515C319.924 33.1274 298.878 39.5112 291.21 49.0785C283.542 58.6457 285.471 76.5214 282.921 89.2834C280.371 102.045 282.071 110.723 289.934 114.807C297.088 118.522 305.505 116.279 305.505 116.279L304.61 129.746C304.61 129.746 288.391 130.355 278.452 133.953C254.503 142.625 212.427 202.099 212.427 202.099C186.068 200.98 161.386 199.861 161.386 199.861L174.289 238.018C174.289 238.018 206.818 248.676 230.375 242.494C254.274 236.233 276.931 202.658 276.931 202.658L284.761 225.099L271.299 262.691H388.527L368.896 227.902C372.291 197.052 377.895 137.013 377.895 137.013Z" fill="#EAA58B"/>
<path d="M340.226 128.347L309.465 184.145L296.881 130.305C291.35 130.865 283.978 131.95 278.508 133.931C254.503 142.625 212.427 202.099 212.427 202.099C186.068 200.98 161.386 199.861 161.386 199.861L174.289 238.018C174.289 238.018 206.818 248.676 230.375 242.494C254.274 236.233 276.931 202.658 276.931 202.658L284.761 225.099L271.299 262.691H388.527L368.896 227.908C372.251 197.047 377.844 137.008 377.844 137.008C372.651 133.845 366.964 131.576 361.021 130.294C354.326 128.783 346.966 129.684 340.226 128.347Z" fill="#4756DF"/>
<path d="M180.922 258.769H278.061L255.974 188.99C255.325 186.933 254.037 185.137 252.298 183.863C250.56 182.588 248.46 181.901 246.304 181.901H164.211C162.616 181.9 161.043 182.276 159.62 182.997C158.197 183.719 156.965 184.766 156.022 186.053C155.08 187.341 154.455 188.833 154.197 190.407C153.94 191.982 154.057 193.595 154.541 195.116L172.796 252.822C173.344 254.548 174.426 256.055 175.887 257.124C177.349 258.194 179.112 258.77 180.922 258.769Z" fill="white"/>
<path d="M195.397 213.468C197.975 209.943 209.67 219.253 210.532 220.019C210.979 219.253 217.07 209.948 221.533 213.468C225.409 216.522 216.891 230.168 214.626 233.648C214.531 233.754 214.415 233.838 214.285 233.896C214.156 233.954 214.015 233.983 213.873 233.983C213.732 233.983 213.591 233.954 213.462 233.896C213.332 233.838 213.216 233.754 213.121 233.648C208.988 230.168 193.16 216.522 195.397 213.468Z" fill="#A15842"/>
<path d="M209.568 215.827C210.544 215.523 210.581 212.854 209.651 209.865C208.72 206.877 207.174 204.701 206.198 205.005C205.222 205.309 205.185 207.978 206.115 210.967C207.046 213.955 208.592 216.132 209.568 215.827Z" fill="#A15842"/>
<path d="M334.466 250.914C334.747 251.817 334.812 252.773 334.656 253.705C334.5 254.638 334.128 255.521 333.568 256.283C333.009 257.045 332.278 257.665 331.436 258.093C330.593 258.521 329.661 258.745 328.716 258.747H180.922C179.112 258.747 177.349 258.171 175.887 257.102C174.426 256.033 173.344 254.526 172.796 252.8L172.192 250.892L334.466 250.914Z" fill="white"/>
<path d="M509.972 258.769H76.9609V272.796H509.972V258.769Z" fill="#FFBE21"/>
<path d="M423.555 335.632L432.549 300.446H380.087C368.399 300.446 357.044 304.339 347.813 311.509C338.581 318.679 331.998 328.719 329.102 340.046L323.005 363.881H387.184C395.522 363.88 403.622 361.103 410.207 355.989C416.792 350.874 421.489 343.712 423.555 335.632Z" fill="#FFB7D5"/>
<path d="M324.247 354.655L322.172 363.427" stroke="#A15842" stroke-width="4" stroke-linecap="round" stroke-linejoin="round"/>
<path d="M156.711 201.88C150.184 205.142 146.923 210.581 146.923 214.391C146.923 219.952 152.583 220.998 152.583 220.998C152.583 220.998 148.36 227.639 155.704 230.756C155.704 230.756 155.704 237.593 162.544 237.593C162.544 237.593 161.638 242.925 168.774 243.428C175.911 243.932 183.255 240.206 183.875 237.794C184.586 234.946 182.667 232.563 177.488 231.808C177.488 231.808 184.479 228.54 183.372 224.417C182.265 220.293 177.539 220.388 177.539 220.388C177.539 220.388 182.063 217.675 179.647 213.675C177.231 209.674 172.611 211.062 172.611 211.062C172.611 211.062 173.819 208.264 171.705 206.133C169.188 203.615 158.366 206.793 158.366 206.793L156.711 201.88Z" fill="#EAA58A"/>
<path d="M162.594 237.856C168.484 236.443 174.198 234.379 179.63 231.701" stroke="#A15842" stroke-width="4" stroke-miterlimit="10" stroke-linecap="round"/>
<path d="M155.687 230.722C163.853 228.482 171.649 225.065 178.831 220.579" stroke="#A15842" stroke-width="4" stroke-miterlimit="10" stroke-linecap="round"/>
<path d="M152.023 221.793C159.59 219.553 166.74 216.089 173.187 211.537" stroke="#A15842" stroke-width="4" stroke-miterlimit="10" stroke-linecap="round"/>
<path d="M386.312 95.4937C376.659 81.5456 350.411 87.1014 350.411 87.1014C351.049 79.4419 353.129 57.3757 336.541 45.2515C319.952 33.1274 298.906 39.5112 291.238 49.0785C288.117 52.9949 286.59 58.2653 285.701 64.0168C290.79 64.8728 298.257 63.1216 298.257 63.1216C308.464 74.608 317.608 76.4319 317.608 76.4319C324.751 69.2872 337.279 69.5222 339.315 80.3483C341.429 91.5885 323.481 96.6407 323.481 96.6407C323.481 96.6407 321.803 116.838 330.752 124.134C333.498 126.312 336.746 127.768 340.198 128.369C346.91 129.706 354.298 128.806 361.043 130.305C366.987 131.587 372.673 133.856 377.867 137.019C379.916 135.213 381.789 133.216 383.46 131.055C389.344 123.591 396.379 110.04 386.312 95.4937Z" fill="#A15842"/>
<path d="M308.906 59.0261C305.55 61.8236 301.635 63.502 297.127 64.621" stroke="#EAA58B" stroke-width="4" stroke-miterlimit="10" stroke-linecap="round"/>
<path d="M305.321 117.538C307.925 116.668 310.438 115.544 312.821 114.181" stroke="#A15842" stroke-width="4" stroke-miterlimit="10" stroke-linecap="round"/>
<path d="M324.169 85.3557L329.27 82.1666" stroke="#A15842" stroke-width="4" stroke-miterlimit="10" stroke-linecap="round"/>
<path d="M294.901 100.333C295.958 100.988 299.935 101.497 301.512 98.4589" stroke="#A15842" stroke-width="4" stroke-miterlimit="10" stroke-linecap="round"/>
<path d="M305.293 85.9767C306.349 85.9767 307.205 85.12 307.205 84.0632C307.205 83.0065 306.349 82.1498 305.293 82.1498C304.236 82.1498 303.38 83.0065 303.38 84.0632C303.38 85.12 304.236 85.9767 305.293 85.9767Z" fill="#30242A"/>
<path d="M289.437 83.4422C290.493 83.4422 291.349 82.5855 291.349 81.5288C291.349 80.472 290.493 79.6153 289.437 79.6153C288.38 79.6153 287.524 80.472 287.524 81.5288C287.524 82.5855 288.38 83.4422 289.437 83.4422Z" fill="#30242A"/>
<path d="M294.823 88.9197C294.442 90.1226 294.112 91.4318 294.33 91.8682C294.63 92.4212 295.085 92.8744 295.639 93.1718" stroke="#A15842" stroke-width="4" stroke-miterlimit="10" stroke-linecap="round"/>
<path d="M326.569 104.104C330.269 104.104 333.269 101.103 333.269 97.4015C333.269 93.6998 330.269 90.6989 326.569 90.6989C322.868 90.6989 319.868 93.6998 319.868 97.4015C319.868 101.103 322.868 104.104 326.569 104.104Z" fill="#F5EBDD"/>
<path d="M294.335 82.6046C295.494 76.6446 292.086 70.9668 286.722 69.9228C281.358 68.8789 276.071 72.8642 274.911 78.8242C273.752 84.7843 277.161 90.4621 282.524 91.506C287.888 92.55 293.176 88.5647 294.335 82.6046Z" stroke="#30242A" stroke-width="4" stroke-miterlimit="10" stroke-linecap="round"/>
<path d="M318.636 85.5853C319.795 79.6253 316.387 73.9474 311.023 72.9035C305.66 71.8596 300.372 75.8449 299.213 81.8049C298.053 87.7649 301.462 93.4428 306.826 94.4867C312.189 95.5306 317.477 91.5454 318.636 85.5853Z" stroke="#30242A" stroke-width="4" stroke-miterlimit="10" stroke-linecap="round"/>
<path d="M294.795 81.7023L298.66 82.1163" stroke="#30242A" stroke-width="4" stroke-miterlimit="10" stroke-linecap="round"/>
<path d="M351.692 87.8398L350.579 95.0013" stroke="#30242A" stroke-width="4" stroke-miterlimit="10" stroke-linecap="round"/>
<path d="M270.768 188.072L276.182 203.833" stroke="#30242A" stroke-width="4" stroke-linecap="round" stroke-linejoin="round"/>
<path d="M299.37 223.98H285.136" stroke="#30242A" stroke-width="4" stroke-linecap="round" stroke-linejoin="round"/>
<path d="M310.589 183.585L315.075 205.467V225.665" stroke="#30242A" stroke-width="4" stroke-linecap="round" stroke-linejoin="round"/>
<path d="M280.756 133.444L289.274 152.724L279.179 151.605L315.075 205.467" stroke="#30242A" stroke-width="4" stroke-linecap="round" stroke-linejoin="round"/>
<path d="M363.75 131.15L349.293 151.605L362.755 150.48L313.392 194.244" stroke="#30242A" stroke-width="4" stroke-linecap="round" stroke-linejoin="round"/>
<path d="M371.267 199.738L360.512 184.71" stroke="#30242A" stroke-width="4" stroke-linecap="round" stroke-linejoin="round"/>
<path d="M383.712 255.127C377.856 253.175 367.347 249.404 361.01 245.616" stroke="#30242A" stroke-width="4" stroke-linecap="round" stroke-linejoin="round"/>
<path d="M222.187 115.909C228.263 115.909 233.189 110.982 233.189 104.904C233.189 98.8264 228.263 93.8992 222.187 93.8992C216.111 93.8992 211.186 98.8264 211.186 104.904C211.186 110.982 216.111 115.909 222.187 115.909Z" fill="#FFB7D5"/>
<path d="M189.308 61.1076L182.902 53.3816C181.916 52.1923 180.153 52.0278 178.965 53.0141L178.827 53.1284C177.638 54.1146 177.474 55.8782 178.46 57.0674L184.865 64.7934C185.851 65.9827 187.614 66.1472 188.802 65.1609L188.94 65.0466C190.129 64.0604 190.293 62.2968 189.308 61.1076Z" fill="#4756DF"/>
<path d="M200.828 70.4956L194.385 62.7187L78.5714 158.783C77.5614 159.621 76.9257 160.827 76.804 162.134C76.6824 163.442 77.0847 164.744 77.9226 165.754L78.0513 165.911C78.4658 166.411 78.9748 166.824 79.5491 167.128C80.1234 167.431 80.7518 167.618 81.3985 167.678C82.0451 167.739 82.6973 167.671 83.3177 167.479C83.9381 167.287 84.5147 166.975 85.0145 166.56L121.223 136.515V241.94H131.33V128.123L200.828 70.4956Z" fill="#3EC1F3"/>
<path d="M182.164 72.7336L185.391 76.65C186.515 78.0088 187.369 79.5697 187.908 81.249" stroke="#4756DF" stroke-width="4" stroke-miterlimit="10"/>
<path d="M126.274 138.848C133.554 138.848 139.456 132.944 139.456 125.661C139.456 118.378 133.554 112.474 126.274 112.474C118.993 112.474 113.091 118.378 113.091 125.661C113.091 132.944 118.993 138.848 126.274 138.848Z" fill="#4756DF"/>
<path d="M126.274 130.73C129.072 130.73 131.341 128.461 131.341 125.661C131.341 122.862 129.072 120.592 126.274 120.592C123.475 120.592 121.207 122.862 121.207 125.661C121.207 128.461 123.475 130.73 126.274 130.73Z" fill="#3EC1F3"/>
<path d="M231.22 98.6548L214.357 112.597" stroke="#A15842" stroke-width="4" stroke-miterlimit="10"/>
<path d="M209.374 69.0858C205.828 68.669 202.579 66.9017 200.302 64.1511L195.828 58.7408C194.246 56.8362 191.974 55.6374 189.509 55.4076C187.045 55.1779 184.59 55.936 182.684 57.5155C181.741 58.2979 180.961 59.2585 180.389 60.3425C179.817 61.4264 179.464 62.6125 179.35 63.8329C179.237 65.0533 179.364 66.2842 179.726 67.4553C180.088 68.6263 180.677 69.7146 181.459 70.6579L185.934 76.085C188.201 78.8278 189.328 82.3368 189.082 85.8872L187.964 102.247C187.41 110.251 189.441 118.222 193.758 124.984L195.19 127.222L248.843 82.7037L246.919 80.8966C241.079 75.4004 233.629 71.9269 225.666 70.988L209.374 69.0858Z" fill="#3EC1F3"/>
<path d="M131.33 241.94H121.223L106.285 246.013C103.488 246.776 101.019 248.439 99.2595 250.744C97.5 253.049 96.547 255.869 96.5474 258.769H156C156 255.868 155.047 253.048 153.286 250.743C151.525 248.437 149.056 246.775 146.257 246.013L131.33 241.94Z" fill="#3EC1F3"/>
<path d="M238.664 74.787L189.563 115.384" stroke="#4756DF" stroke-width="4" stroke-miterlimit="10" stroke-linecap="round"/>
<path d="M120.977 240.782H131.33" stroke="#4756DF" stroke-width="4" stroke-miterlimit="10" stroke-linecap="round"/>
<path d="M98.5103 251.776H153.701" stroke="#4756DF" stroke-width="4" stroke-miterlimit="10" stroke-linecap="round"/>
<path d="M416.604 403.106C417.722 393.595 417.163 372.245 404.825 355.975C392.487 339.705 409.299 346.464 414.333 350.94C422.387 358.101 429.479 364.966 435.648 387.972L416.604 403.106Z" fill="#30242A"/>
<path d="M404.959 441.213L418.846 504.1H444.652V500.183C444.652 497.658 443.651 495.236 441.869 493.448C440.087 491.66 437.668 490.652 435.144 490.644C435.144 490.644 448.041 480.971 455.894 471.431C455.894 471.431 469.356 487.841 488.428 485.032L489.809 491.746C490.528 495.231 492.425 498.362 495.18 500.612C497.935 502.862 501.382 504.093 504.938 504.1H567.484C595.225 504.1 608.872 499.865 609.655 484.065C609.679 483.462 609.581 482.861 609.367 482.297C609.153 481.733 608.828 481.218 608.41 480.783C607.992 480.348 607.49 480.003 606.935 479.767C606.381 479.531 605.784 479.409 605.181 479.41H587.72C587 479.41 586.289 479.249 585.639 478.938C584.99 478.628 584.418 478.175 583.967 477.614L576.534 468.388C574.33 465.657 571.39 463.617 568.062 462.509C564.734 461.402 561.157 461.273 557.758 462.138L542.808 465.959C542.808 465.959 516.32 427.881 492.326 401.434C469.395 376.184 426.262 373.459 409.271 406.346C403.808 417.108 402.283 429.444 404.959 441.213Z" fill="#A15842"/>
<path d="M361.071 209.064C354.169 208.446 347.229 208.369 340.316 208.835C330.427 209.646 317.133 212.237 311.792 214.822C306.45 217.406 285.997 226.532 291.506 229.592C296.54 232.39 307.099 228.182 307.099 228.182C307.099 228.182 296.562 237.873 294.75 241.929C292.938 245.985 298.928 248.262 298.928 248.262C300.505 255.189 307.563 252.212 307.563 252.212C312.01 261.673 336.031 241.174 336.031 241.174C341.747 241.767 347.518 241.524 353.163 240.452C353.163 240.452 356.205 242.158 361.088 244.53L361.071 209.064Z" fill="#EAA58A"/>
<path d="M421.084 256.526C465.956 235.204 400.91 155.538 377.895 137.013L364.998 189.197L381.262 211.638C374.136 210.407 367.324 209.562 361.071 209.064V244.53C375.311 251.457 405.233 264.079 421.084 256.526Z" fill="#4756DF"/>
<path d="M304.952 228.77C308.934 225.474 315.545 220.148 320.478 216.936" stroke="#A15842" stroke-width="4" stroke-miterlimit="10" stroke-linecap="round"/>
<path d="M325.914 224.808C314.454 232.233 304.012 242.153 298.844 247.345" stroke="#A15842" stroke-width="4" stroke-miterlimit="10" stroke-linecap="round"/>
<path d="M330.998 233.206C323.168 238.583 314.079 246.735 308.145 252.33" stroke="#A15842" stroke-width="4" stroke-miterlimit="10" stroke-linecap="round"/>
<path d="M465.62 230.191C466.468 230.192 467.281 230.53 467.88 231.13C468.48 231.73 468.818 232.543 468.819 233.391V233.867C468.818 234.715 468.48 235.528 467.88 236.128C467.281 236.728 466.468 237.065 465.62 237.067H449.137V230.191H465.62ZM465.62 225.715H445.267C445.187 225.715 445.108 225.731 445.035 225.761C444.961 225.792 444.894 225.837 444.838 225.894C444.782 225.95 444.738 226.018 444.707 226.092C444.677 226.166 444.662 226.245 444.663 226.325V240.955C444.663 241.116 444.727 241.269 444.84 241.383C444.953 241.496 445.107 241.56 445.267 241.56H465.62C466.629 241.56 467.628 241.36 468.56 240.974C469.492 240.587 470.339 240.02 471.052 239.305C471.765 238.591 472.329 237.743 472.714 236.809C473.099 235.876 473.296 234.876 473.293 233.867V233.374C473.293 231.338 472.485 229.386 471.046 227.946C469.607 226.507 467.655 225.698 465.62 225.698V225.715Z" fill="#3EC1F3"/>
<path d="M441.011 223.303C424.344 223.303 416.643 210.016 416.643 210.016L427.828 258.77H454.16L465.346 210.016C462.748 214.112 459.152 217.481 454.895 219.805C450.638 222.13 445.861 223.334 441.011 223.303Z" fill="#3EC1F3"/>
<path d="M441.011 223.303C445.866 223.339 450.651 222.138 454.914 219.814C459.177 217.489 462.779 214.117 465.38 210.016H416.643C416.643 210.016 424.344 223.303 441.011 223.303Z" fill="#30242A"/>
</svg>
