<svg width="520" height="416" viewBox="0 0 520 416" fill="none" xmlns="http://www.w3.org/2000/svg">
<path d="M255.626 16.1252H262.04C286.28 16.1311 309.525 25.7861 326.664 42.9667C343.802 60.1474 353.429 83.4469 353.429 107.741V282.52H164.187V107.741C164.187 95.7076 166.552 83.7919 171.147 72.6748C175.743 61.5576 182.479 51.4567 190.97 42.949C199.461 34.4413 209.542 27.6935 220.636 23.091C231.729 18.4885 243.619 16.1215 255.626 16.1252Z" fill="#FFB7D5"/>
<path d="M293.167 177.31V285.241H209.194V177.31H293.167ZM295.393 175.08H206.969V287.471H295.393V175.08Z" fill="#CA7358"/>
<path d="M295.393 175.074H206.969V198.309H295.393V175.074Z" fill="#CA7358"/>
<path d="M206.496 118.948V285.782H155.953V118.948H206.496ZM208.721 116.718H153.728V288.012H208.721V116.718Z" fill="#CA7358"/>
<path d="M362.581 85.1759V285.241H295.865V85.1759H362.581ZM364.806 82.9456H293.64V287.471H364.806V82.9456Z" fill="#CA7358"/>
<path d="M322.57 110.234H323.209C325.626 110.234 327.944 111.196 329.653 112.909C331.362 114.621 332.322 116.944 332.322 119.367V139.953H313.451V119.367C313.451 118.167 313.687 116.979 314.145 115.87C314.604 114.762 315.275 113.755 316.122 112.907C316.969 112.058 317.974 111.386 319.08 110.927C320.187 110.468 321.372 110.233 322.57 110.234Z" fill="#CA7358"/>
<path d="M311.298 126.442H334.48" stroke="#FFB7D5" stroke-width="4" stroke-linecap="round" stroke-linejoin="round"/>
<path d="M322.57 163.549H323.209C325.626 163.549 327.944 164.512 329.653 166.224C331.362 167.937 332.322 170.26 332.322 172.682V193.268H313.451V172.682C313.451 171.483 313.687 170.295 314.145 169.186C314.604 168.078 315.275 167.071 316.122 166.222C316.969 165.374 317.974 164.702 319.08 164.243C320.187 163.784 321.372 163.549 322.57 163.549Z" fill="#F5EBDD"/>
<path d="M311.298 179.758H334.48" stroke="#FFB7D5" stroke-width="4" stroke-linecap="round" stroke-linejoin="round"/>
<path d="M322.57 216.865H323.209C325.626 216.865 327.944 217.827 329.653 219.54C331.362 221.253 332.322 223.576 332.322 225.998V246.584H313.451V225.998C313.451 223.576 314.411 221.253 316.12 219.54C317.829 217.827 320.147 216.865 322.564 216.865H322.57Z" fill="#F5EBDD"/>
<path d="M311.298 233.074H334.48" stroke="#FFB7D5" stroke-width="4" stroke-linecap="round" stroke-linejoin="round"/>
<path d="M322.57 270.181H323.209C325.626 270.181 327.944 271.143 329.653 272.856C331.362 274.569 332.322 276.892 332.322 279.314V298.227H313.451V279.314C313.451 278.114 313.687 276.926 314.145 275.818C314.604 274.709 315.275 273.702 316.122 272.854C316.969 272.006 317.974 271.333 319.08 270.874C320.187 270.416 321.372 270.18 322.57 270.181Z" fill="#30242A"/>
<path d="M364.806 82.9456H293.64V91.8612H364.806V82.9456Z" fill="#CA7358"/>
<path d="M208.721 112.397H153.728V121.313H208.721V112.397Z" fill="#CA7358"/>
<path d="M241.745 219.385H222.874V243.701H241.745V219.385Z" fill="#F5EBDD"/>
<path d="M220.716 230.191H243.904" stroke="#FFB7D5" stroke-width="4" stroke-linecap="round" stroke-linejoin="round"/>
<path d="M232.31 244.783V230.191" stroke="#FFB7D5" stroke-width="4" stroke-linecap="round" stroke-linejoin="round"/>
<path d="M241.745 263.3H222.874V287.616H241.745V263.3Z" fill="#CA7358"/>
<path d="M220.716 274.106H243.904" stroke="#FFB7D5" stroke-width="4" stroke-linecap="round" stroke-linejoin="round"/>
<path d="M232.31 288.698V274.106" stroke="#FFB7D5" stroke-width="4" stroke-linecap="round" stroke-linejoin="round"/>
<path d="M277.328 219.385H258.458V243.701H277.328V219.385Z" fill="#30242A"/>
<path d="M256.304 230.191H279.487" stroke="#FFB7D5" stroke-width="4" stroke-linecap="round" stroke-linejoin="round"/>
<path d="M267.893 244.783V230.191" stroke="#FFB7D5" stroke-width="4" stroke-linecap="round" stroke-linejoin="round"/>
<path d="M277.328 263.3H258.458V287.616H277.328V263.3Z" fill="#F5EBDD"/>
<path d="M256.304 274.106H279.487" stroke="#FFB7D5" stroke-width="4" stroke-linecap="round" stroke-linejoin="round"/>
<path d="M267.893 288.698V274.106" stroke="#FFB7D5" stroke-width="4" stroke-linecap="round" stroke-linejoin="round"/>
<path d="M219.503 82.137C227.246 82.137 233.523 75.8462 233.523 68.086C233.523 60.3259 227.246 54.035 219.503 54.035C211.76 54.035 205.483 60.3259 205.483 68.086C205.483 75.8462 211.76 82.137 219.503 82.137Z" fill="#F5EBDD"/>
<path d="M377.691 282.609H139.925V298.818H377.691V282.609Z" fill="#F5EBDD"/>
<path d="M262.563 0H255.069C195.953 0 148.03 48.0299 148.03 107.278V298.818H369.624V107.278C369.607 48.0299 321.679 0 262.563 0ZM250.724 282.609H164.186V147.519H250.724V282.609ZM250.724 131.31H164.186V107.83C164.187 84.3779 173.161 61.8187 189.26 44.7988C205.359 27.7789 227.357 17.5943 250.724 16.3427V131.31ZM353.429 282.609H266.897V147.519H353.429V282.609ZM353.429 131.31H266.897V16.3427C290.263 17.5944 312.261 27.7791 328.359 44.7992C344.457 61.8192 353.43 84.3784 353.429 107.83V131.31Z" fill="#F5EBDD"/>
<path d="M446.476 314.475C446.48 315.072 446.359 315.662 446.12 316.209C444.451 320.017 437.319 320.58 430.226 317.464C424.284 314.86 420.245 310.499 420.073 306.914V354.465H446.493V314.475H446.476Z" fill="#FFBE21"/>
<path d="M436.317 303.686C429.224 300.569 422.103 301.132 420.423 304.94C420.153 305.565 420.033 306.245 420.072 306.925C420.245 310.51 424.284 314.871 430.226 317.475C437.319 320.591 444.44 320.028 446.12 316.22C446.358 315.673 446.48 315.083 446.476 314.486C446.493 310.856 442.404 306.351 436.317 303.686Z" fill="#A15842"/>
<path d="M466.732 330.16C466.56 333.745 462.521 338.105 456.579 340.715C449.481 343.826 442.365 343.268 440.679 339.455C440.444 338.909 440.322 338.321 440.323 337.726V354.453H466.738V330.16H466.732Z" fill="#FFBE21"/>
<path d="M466.382 328.175C464.713 324.366 457.581 323.803 450.482 326.92C444.401 329.591 440.312 334.091 440.323 337.726C440.323 338.321 440.444 338.909 440.679 339.455C442.348 343.268 449.481 343.826 456.579 340.715C462.521 338.105 466.56 333.745 466.732 330.16C466.772 329.48 466.652 328.8 466.382 328.175Z" fill="#A15842"/>
<path d="M441.097 354.476V338.267" stroke="#A15842" stroke-width="4" stroke-miterlimit="10" stroke-linecap="round"/>
<path d="M433.28 300.167V309.356" stroke="#30242A" stroke-width="4" stroke-linecap="round" stroke-linejoin="round"/>
<path d="M453.531 323.407V333.132" stroke="#30242A" stroke-width="4" stroke-linecap="round" stroke-linejoin="round"/>
<path d="M519.679 354.476H300.244V480.377H519.679V354.476Z" fill="#A15842"/>
<path d="M503.501 370.685H316.417V464.168H503.501V370.685Z" fill="#FFB7D5"/>
<path d="M409.758 369.068V465.791" stroke="#A15842" stroke-width="4" stroke-miterlimit="10"/>
<path d="M431.806 423.091C434.927 423.091 437.458 420.555 437.458 417.427C437.458 414.298 434.927 411.761 431.806 411.761C428.684 411.761 426.153 414.298 426.153 417.427C426.153 420.555 428.684 423.091 431.806 423.091Z" fill="#30242A"/>
<path d="M388.111 423.091C391.233 423.091 393.764 420.555 393.764 417.427C393.764 414.298 391.233 411.761 388.111 411.761C384.99 411.761 382.459 414.298 382.459 417.427C382.459 420.555 384.99 423.091 388.111 423.091Z" fill="#30242A"/>
<path d="M123.057 507.665L103.424 389.597H115.429C116.716 389.597 117.95 389.085 118.86 388.173C119.77 387.262 120.281 386.025 120.281 384.735C120.281 383.446 119.77 382.209 118.86 381.297C117.95 380.386 116.716 379.873 115.429 379.873H25.4089C24.1222 379.873 22.8883 380.386 21.9785 381.297C21.0687 382.209 20.5576 383.446 20.5576 384.735C20.5576 386.025 21.0687 387.262 21.9785 388.173C22.8883 389.085 24.1222 389.597 25.4089 389.597H37.32L17.6869 507.665C17.59 508.249 17.6212 508.848 17.7785 509.419C17.9357 509.991 18.2151 510.521 18.5974 510.973C18.9796 511.425 19.4555 511.788 19.9919 512.037C20.5283 512.286 21.1124 512.415 21.7037 512.416C22.6331 512.416 23.5347 512.098 24.2584 511.514C24.9822 510.929 25.4844 510.114 25.6815 509.204L51.6957 389.597H89.048L115.057 509.204C115.256 510.114 115.759 510.929 116.484 511.513C117.208 512.097 118.11 512.416 119.04 512.416C119.631 512.415 120.215 512.286 120.752 512.037C121.288 511.788 121.764 511.425 122.146 510.973C122.529 510.521 122.808 509.991 122.965 509.419C123.122 508.848 123.154 508.249 123.057 507.665Z" fill="#FFBE21"/>
<path d="M115.429 389.597C116.716 389.597 117.95 389.085 118.86 388.173C119.77 387.262 120.281 386.025 120.281 384.735C120.281 383.446 119.77 382.209 118.86 381.297C117.95 380.386 116.716 379.873 115.429 379.873H25.4089C24.1222 379.873 22.8883 380.386 21.9785 381.297C21.0687 382.209 20.5576 383.446 20.5576 384.735C20.5576 386.025 21.0687 387.262 21.9785 388.173C22.8883 389.085 24.1222 389.597 25.4089 389.597H37.32V389.748H51.6846L51.7179 389.597H89.0703L89.1036 389.748H103.468V389.597H115.429Z" fill="#A15842"/>
<path d="M120.764 459.847H178.067C178.779 447.653 181.321 431.477 183.43 409.626C185.305 390.25 186.918 373.985 186.812 360.559C186.634 338.178 129.51 365.265 129.51 365.265C129.51 370.155 130.494 374.85 130.522 379.399C130.589 391.22 124.614 401.279 120.347 415.536C113.877 437.153 119.268 459.847 119.268 459.847H120.764Z" fill="#4856DF"/>
<path d="M178.646 450.078C175.575 443.951 173.481 437.379 172.443 430.602C168.81 405.305 170.963 392.335 160.721 380.977H130.751" stroke="#30242A" stroke-width="4" stroke-linecap="round" stroke-linejoin="round"/>
<path d="M197.333 462.005L197.388 462.139L241.628 441.374C238.184 431.048 234.585 417.309 228.671 399.327C223.13 382.5 219.464 369.926 215.992 360.196C211.137 363.701 205.15 365.261 199.207 364.569C193.264 363.877 187.793 360.983 183.869 356.456C179.945 351.929 177.851 346.095 177.998 340.1C178.146 334.105 180.523 328.382 184.665 324.054C161.049 313.36 77.17 306.384 77.17 306.384L29.7202 299.359C27.2167 303.507 25.0859 310.081 23.9287 317.759H40.5075V335.529C40.4987 339.122 39.069 342.565 36.5319 345.104C33.9948 347.643 30.557 349.07 26.9719 349.073H26.0261C25.8036 349.073 25.581 349.073 25.364 349.073C29.8926 365.8 41.5423 379.89 65.32 379.89H161.288C171.53 391.237 169.377 404.206 173.01 429.515C175.981 450.218 190.061 465.479 190.061 465.479L197.333 462.005Z" fill="#4856DF"/>
<path d="M201.984 364.741C207.015 364.744 211.918 363.153 215.993 360.196C209.088 340.748 203.102 332.646 184.999 324.205L184.665 324.054C181.411 327.455 179.226 331.739 178.381 336.375C177.537 341.011 178.07 345.793 179.916 350.127C181.761 354.461 184.837 358.155 188.76 360.752C192.684 363.348 197.282 364.731 201.984 364.73V364.741Z" fill="#3EC1F3"/>
<path d="M26.9718 349.073C30.5637 349.073 34.0085 347.643 36.5489 345.098C39.0892 342.553 40.5171 339.101 40.5186 335.501V317.731H23.9398C22.4766 327.372 22.5601 338.713 25.364 349.056C25.581 349.056 25.8035 349.056 26.0261 349.056L26.9718 349.073Z" fill="#3EC1F3"/>
<path d="M160.47 381.223H176.642" stroke="#30242A" stroke-width="4" stroke-linecap="round" stroke-linejoin="round"/>
<path d="M230.034 209.388C230.034 209.388 200.921 175.889 166.522 163.739" stroke="#30242A" stroke-width="4" stroke-linecap="round" stroke-linejoin="round"/>
<path d="M138.717 176.825C137.66 174.266 141.187 170.251 147.062 166.861C139.107 164.876 133.454 161.18 134.022 158.074C134.589 154.968 141.176 153.507 149.321 154.466C145.037 149.225 143.151 144.218 145.043 142.2C147.452 139.618 155.096 142.874 162.111 149.448C168.231 155.191 171.847 161.581 171.079 164.832C170.651 168.144 165.015 172.839 157.271 176.05C148.364 179.753 140.069 180.098 138.717 176.825Z" fill="#4756DF"/>
<path d="M171.369 175.236C176.979 175.236 181.527 170.678 181.527 165.055C181.527 159.432 176.979 154.873 171.369 154.873C165.758 154.873 161.21 159.432 161.21 165.055C161.21 170.678 165.758 175.236 171.369 175.236Z" fill="#30242A"/>
<path d="M192.773 178.168C195.564 177.129 194.295 166.755 189.939 154.997C185.583 143.239 179.789 134.549 176.998 135.587C174.207 136.626 175.476 147 179.832 158.758C184.188 170.516 189.982 179.206 192.773 178.168Z" fill="#30242A"/>
<path d="M192.275 180.21C192.275 180.21 196.593 192.097 194.434 204.526" stroke="#30242A" stroke-width="4" stroke-linecap="round" stroke-linejoin="round"/>
<path d="M113.549 132.86C104.347 143.237 94.5664 145.528 94.5664 145.528C88.2409 138.614 76.7637 138.614 75.0112 148.411C73.103 159.267 86.4995 162.256 86.4995 162.256C86.4995 162.256 89.8765 176.262 84.697 183.182C80.124 189.315 74.2491 190.324 62.21 191.674C77.8986 218.242 93.9211 216.146 99.2563 216.146C112.052 216.146 115.657 201.264 116.664 193.592C113.75 192.573 110.778 191.734 107.763 191.077L106.038 180.706C106.038 180.706 114.088 183.583 120.992 179.552C127.896 175.521 129.621 168.021 127.318 156.496C125.955 149.666 126.005 141.218 124.837 133.669C120.28 134.444 113.549 132.86 113.549 132.86Z" fill="#FFA185"/>
<path d="M209.26 190.748C206.818 180.951 187.697 175.638 187.697 175.638C187.697 175.638 188.843 153.647 183.919 152.944C180.147 152.386 176.37 161.592 173.138 179.424C169.521 199.351 171.519 236.157 171.519 236.157C171.519 236.157 167.519 232.516 161.844 227.448C161.277 228.597 160.407 229.568 159.328 230.256C158.249 230.944 157.003 231.323 155.724 231.351C156.531 232.376 157.037 233.606 157.184 234.903C157.331 236.201 157.114 237.513 156.557 238.694C156 239.874 155.126 240.875 154.032 241.585C152.939 242.294 151.669 242.683 150.367 242.709C151.174 243.734 151.679 244.964 151.826 246.261C151.974 247.559 151.757 248.871 151.2 250.052C150.643 251.232 149.769 252.233 148.675 252.942C147.581 253.652 146.312 254.041 145.009 254.067C145.856 255.143 146.37 256.444 146.487 257.809C146.604 259.175 146.32 260.544 145.669 261.75C145.018 262.955 144.029 263.942 142.824 264.591C141.619 265.239 140.252 265.519 138.89 265.397C150.701 273.102 166.756 282.091 177.455 282.091C233.522 282.068 210.879 197.233 209.26 190.748Z" fill="#FFA185"/>
<path d="M145.821 261.388C146.378 260.207 146.595 258.895 146.448 257.598C146.302 256.301 145.798 255.07 144.993 254.044C146.295 254.019 147.564 253.63 148.658 252.92C149.752 252.211 150.626 251.21 151.183 250.029C151.74 248.849 151.957 247.536 151.81 246.239C151.662 244.942 151.157 243.712 150.35 242.687C151.652 242.661 152.922 242.272 154.016 241.562C155.109 240.853 155.984 239.852 156.54 238.671C157.097 237.491 157.314 236.178 157.167 234.881C157.02 233.584 156.514 232.354 155.708 231.329C156.986 231.3 158.232 230.922 159.311 230.234C160.39 229.546 161.26 228.574 161.827 227.426C152.047 218.694 137.298 205.747 129.449 199.931C125.649 197.116 120.809 195.03 116.653 193.592C115.674 201.286 112.091 216.146 99.2952 216.146C93.9822 216.146 77.9375 218.242 62.2488 191.674L57.2084 192.231C39.8508 194.166 31.9508 203.528 27.2998 214.713C24.4236 221.632 22.1204 234.312 22.1204 234.312C20.3359 245.936 19.4173 257.678 19.3721 269.439L41.9426 290.376L102.539 291.876C107.39 284.706 116.291 271.463 119.229 266.384C123.001 259.899 123.54 254.496 123.54 254.496C123.54 254.496 130.016 259.57 138.89 265.363C140.312 265.488 141.738 265.174 142.977 264.464C144.216 263.753 145.208 262.68 145.821 261.388Z" fill="#487FFF"/>
<path d="M119.88 120.175C112.981 111.533 93.9991 105.767 79.0448 116.718C64.0905 127.669 65.2422 145.539 65.8152 152.459C65.8152 152.459 49.7149 147.268 38.2099 159.373C34.8802 162.834 32.4553 167.065 31.1509 171.692C29.8464 176.318 29.7028 181.196 30.7327 185.892C30.7327 185.892 9.54747 185.295 5.42503 204.916C3.08286 216.068 7.45567 223.489 12.3069 228.084C15.1522 230.759 18.4761 232.872 22.104 234.312C22.104 234.312 24.4072 221.632 27.2834 214.713C31.9344 203.528 39.8344 194.166 57.192 192.231L62.2324 191.674C74.2715 190.324 80.1464 189.298 84.7195 183.182C89.8934 176.262 86.4997 162.256 86.4997 162.256C86.4997 162.256 73.0865 159.267 74.9947 148.422C76.7249 138.625 88.2244 138.625 94.5499 145.539C94.5499 145.539 104.33 143.237 113.532 132.86C113.532 132.86 120.264 134.444 124.853 133.669C124.069 128.472 122.689 123.705 119.88 120.175Z" fill="#30242A"/>
<path d="M210.456 198.448C208.826 197.695 207.853 195.8 208.131 192.175C208.131 192.175 204.76 196.413 201.171 194.528C197.583 192.644 199.018 188.585 199.018 188.585C199.018 188.585 195.78 190.748 193.088 188.027C190.645 185.579 192.531 181.542 192.531 181.542C192.531 181.542 188.948 183.009 187.68 180.461C186.083 177.271 188.025 173.931 190.128 171.372" stroke="#30242A" stroke-width="8" stroke-linecap="round" stroke-linejoin="round"/>
<path d="M29.709 186.36C30.3185 189.249 31.4174 192.012 32.958 194.528" stroke="black" stroke-width="4" stroke-miterlimit="10" stroke-linecap="round"/>
<path d="M170.439 236.854L171.791 253.699" stroke="#30242A" stroke-width="4" stroke-linecap="round" stroke-linejoin="round"/>
<path d="M121.648 235.856C125.17 242.213 125.126 249.84 124.669 254.362" stroke="#30242A" stroke-width="4" stroke-linecap="round" stroke-linejoin="round"/>
<path d="M89.8379 253.699L72.5859 254.24" stroke="#30242A" stroke-width="4" stroke-linecap="round" stroke-linejoin="round"/>
<path d="M105.743 181.771C103.332 180.822 100.98 179.729 98.7002 178.498" stroke="#30242A" stroke-width="4" stroke-linecap="round" stroke-linejoin="round"/>
<path d="M110.054 197.773L109.114 191.802" stroke="#30242A" stroke-width="4" stroke-linecap="round" stroke-linejoin="round"/>
<path d="M64.6523 152.677L65.8485 162.646" stroke="black" stroke-width="4" stroke-miterlimit="10" stroke-linecap="round"/>
<path d="M121.648 164.542C120.43 165.333 116.391 165.596 114.455 162.066" stroke="#30242A" stroke-width="4" stroke-linecap="round" stroke-linejoin="round"/>
<path d="M89.2981 153.189L83.9072 150.491" stroke="#30242A" stroke-width="4" stroke-linecap="round" stroke-linejoin="round"/>
<path d="M114.188 150.797C113.326 151.974 109.259 154.254 106.199 151.65" stroke="#30242A" stroke-width="4" stroke-linecap="round" stroke-linejoin="round"/>
<path d="M127.291 149.097C126.647 149.234 125.982 149.243 125.335 149.122C124.687 149.001 124.07 148.754 123.519 148.394" stroke="#30242A" stroke-width="4" stroke-linecap="round" stroke-linejoin="round"/>
<path d="M119.996 151.104C120.614 152.504 121.209 154.048 121.081 154.639C120.891 155.358 120.464 155.991 119.868 156.435" stroke="#30242A" stroke-width="4" stroke-linecap="round" stroke-linejoin="round"/>
<path d="M86.3439 159.719L78.9836 166.677C78.5851 167.054 78.2896 167.527 78.1252 168.05C77.9609 168.574 77.9332 169.131 78.0448 169.668C78.1564 170.206 78.4035 170.705 78.7627 171.12C79.1218 171.534 79.581 171.85 80.0963 172.036L88.7973 175.13C89.3145 175.313 89.8699 175.361 90.4105 175.267C90.951 175.174 91.4586 174.943 91.8846 174.596C92.3105 174.25 92.6407 173.8 92.8434 173.289C93.0461 172.778 93.1145 172.224 93.0422 171.679L91.7014 161.642C91.623 161.059 91.3861 160.508 91.0166 160.051C90.6472 159.593 90.1593 159.246 89.6063 159.048C89.0534 158.849 88.4567 158.807 87.8813 158.925C87.3059 159.043 86.7741 159.318 86.3439 159.719Z" fill="#F4E6D8"/>
<path d="M192.008 161.57C192.008 161.57 195.78 159.406 199.018 160.488C204.025 162.161 203.291 166.833 203.291 166.833C203.291 166.833 210.312 164.296 211.675 171.735C211.675 171.735 218.006 173.156 216.582 179.502C216.582 179.502 221.706 179.775 220.687 186.505C219.669 193.235 215.191 198.827 212.498 198.827C209.717 198.827 207.753 197.116 208.131 192.136C208.131 192.136 204.76 196.374 201.171 194.489C197.583 192.605 199.018 188.546 199.018 188.546C199.018 188.546 195.78 190.709 193.088 187.988C190.645 185.54 192.531 181.503 192.531 181.503C192.531 181.503 188.949 182.97 187.68 180.422C184.982 175.019 192.403 169.209 193.611 167.458L192.008 161.57Z" fill="#FFA185"/>
<path d="M190.406 183.472C194.111 180.065 200.42 173.636 203.413 166.889" stroke="#30242A" stroke-width="4" stroke-linecap="round" stroke-linejoin="round"/>
<path d="M197.21 191.25C203.367 186.002 208.393 179.551 211.981 172.292" stroke="#30242A" stroke-width="4" stroke-linecap="round" stroke-linejoin="round"/>
<path d="M206.74 195.253C208.409 193.213 214.245 185.88 217.138 180.076" stroke="#30242A" stroke-width="4" stroke-linecap="round" stroke-linejoin="round"/>
<path d="M205.695 319.354H112.319L133.544 252.149C134.171 250.17 135.411 248.443 137.083 247.218C138.756 245.993 140.774 245.333 142.845 245.335H221.75C223.284 245.334 224.795 245.696 226.163 246.391C227.53 247.085 228.715 248.093 229.621 249.333C230.527 250.572 231.129 252.008 231.378 253.524C231.627 255.041 231.515 256.594 231.052 258.059L213.5 313.633C212.973 315.293 211.932 316.742 210.529 317.77C209.126 318.799 207.433 319.353 205.695 319.354Z" fill="#F3F3F3"/>
<path d="M58.1267 311.787C57.8512 312.658 57.7844 313.581 57.9317 314.483C58.0789 315.384 58.4361 316.238 58.9742 316.975C59.5124 317.712 60.2163 318.311 61.0289 318.725C61.8415 319.138 62.7398 319.353 63.6511 319.354H205.695C207.432 319.35 209.122 318.792 210.522 317.762C211.922 316.731 212.959 315.282 213.483 313.622L214.04 311.787H58.1267Z" fill="#F3F3F3"/>
<path d="M191.391 276.559C189.221 273.582 179.357 281.444 178.634 282.096C178.256 281.444 173.126 273.582 169.36 276.559C166.094 279.141 173.254 290.666 175.185 293.605C175.265 293.694 175.362 293.766 175.472 293.814C175.581 293.863 175.699 293.889 175.819 293.889C175.939 293.889 176.057 293.863 176.166 293.814C176.276 293.766 176.373 293.694 176.453 293.605C179.964 290.638 193.277 279.113 191.391 276.559Z" fill="#FFBE21"/>
<path d="M182.378 274.455C183.162 271.932 183.129 269.679 182.305 269.422C181.481 269.164 180.177 271.001 179.393 273.523C178.609 276.046 178.642 278.299 179.466 278.557C180.291 278.814 181.594 276.978 182.378 274.455Z" fill="#FFBE21"/>
<path d="M4.62412 258.421C5.83611 258.89 7.15398 259.011 8.43093 258.773C9.70788 258.535 10.8938 257.946 11.8565 257.072C11.9706 258.374 12.4458 259.618 13.2283 260.664C14.0107 261.709 15.0694 262.515 16.2845 262.989C17.4997 263.464 18.8231 263.588 20.1051 263.349C21.3871 263.109 22.5767 262.515 23.5395 261.633C23.6566 262.934 24.1336 264.176 24.9167 265.219C25.6999 266.263 26.7581 267.066 27.9723 267.54C29.1866 268.013 30.5085 268.138 31.7894 267.899C33.0703 267.66 34.2593 267.068 35.2225 266.189C35.3117 267.215 35.6258 268.209 36.1425 269.1C36.6592 269.991 37.3657 270.757 38.2117 271.343C39.0576 271.929 40.0221 272.32 41.0364 272.489C42.0507 272.659 43.0897 272.601 44.0794 272.322L52.4912 249.679C55.731 240.987 57.2667 231.75 57.0142 222.474L56.163 192.365C56.163 192.365 36.7525 193.982 25.4311 208.033C19.6229 215.242 8.22362 234.289 0.918945 254.998C1.68656 256.561 3.00745 257.781 4.62412 258.421Z" fill="#487FFF"/>
<path d="M39.6676 272.099C38.4491 271.628 37.3865 270.825 36.5999 269.781C35.8133 268.736 35.3342 267.492 35.2169 266.188C34.2537 267.068 33.0647 267.66 31.7838 267.899C30.5029 268.138 29.1809 268.013 27.9667 267.54C26.7525 267.066 25.6942 266.263 24.9111 265.219C24.1279 264.175 23.6509 262.934 23.5339 261.633C22.571 262.515 21.3814 263.109 20.0994 263.348C18.8174 263.588 17.4941 263.464 16.2789 262.989C15.0637 262.515 14.0051 261.709 13.2226 260.664C12.4401 259.618 11.965 258.374 11.8508 257.072C11.05 257.803 10.0907 258.338 9.04869 258.634C8.00662 258.93 6.91016 258.98 5.8456 258.78C4.78104 258.579 3.77745 258.134 2.91384 257.478C2.05023 256.823 1.35015 255.976 0.868754 255.003C-5.46234 272.952 -8.72246 292.155 -2.59165 305.977C10.6046 335.747 50.2101 325.27 59.5565 322.515C68.903 319.761 87.0617 310.388 99.162 312.044C111.262 313.7 125.009 319.761 127.212 312.044C127.212 312.044 134.617 311.854 132.286 304.795C132.286 304.795 136.008 304.332 136.559 301.578C137.672 296.064 124.459 291.107 124.459 291.107C124.459 291.107 134.912 292.779 137.11 290.549C139.891 287.761 137.188 283.262 120.114 279.113C101.36 274.563 76.6082 277.318 39.7566 283.931L44.0682 272.316C42.6167 272.725 41.0719 272.649 39.6676 272.099Z" fill="#FFA185"/>
<path d="M52.6359 246.673L40.3242 282.693" stroke="#30242A" stroke-width="4" stroke-linecap="round" stroke-linejoin="round"/>
<path d="M127.78 291.503C121.805 289.228 111.858 285.737 104.136 284.477" stroke="#30242A" stroke-width="4" stroke-linecap="round" stroke-linejoin="round"/>
<path d="M132.442 304.505C124.765 301.043 110.1 294.759 102.211 293.577" stroke="#30242A" stroke-width="4" stroke-linecap="round" stroke-linejoin="round"/>
<path d="M39.8454 282.771C35.7062 283.44 29.2082 284.55 22.7158 285.849" stroke="#30242A" stroke-width="4" stroke-linecap="round" stroke-linejoin="round"/>
<path d="M126.984 312.802C121.226 309.864 109.092 304.02 100.563 302.392" stroke="#30242A" stroke-width="4" stroke-linecap="round" stroke-linejoin="round"/>
<path d="M384.695 241.655C384.695 241.655 380.322 251.513 368.851 251.513C357.379 251.513 352.984 241.655 352.984 241.655C352.984 241.655 320.716 315.59 352.428 354.476H385.212C416.907 315.59 384.695 241.655 384.695 241.655Z" fill="#3EC1F3"/>
<path d="M368.823 251.513C380.294 251.513 384.667 241.655 384.667 241.655H352.956C352.956 241.655 357.346 251.513 368.823 251.513Z" fill="#30242A"/>
<path d="M398.459 307.477C380.623 307.795 359.515 314.252 343.271 337.029" stroke="#F5EBDD" stroke-width="4" stroke-linecap="round" stroke-linejoin="round"/>
<path d="M340.417 289.384C352.389 286.457 375.06 283.669 397.035 288.91" stroke="#F5EBDD" stroke-width="4" stroke-linecap="round" stroke-linejoin="round"/>
<path d="M396.935 326.457C388.957 326.552 374.208 335.613 375.833 353.873" stroke="#F5EBDD" stroke-width="4" stroke-linecap="round" stroke-linejoin="round"/>
<path d="M366.815 248.234C366.481 240.289 364.373 208.713 351.855 190.19" stroke="#30242A" stroke-width="4" stroke-miterlimit="10" stroke-linecap="round"/>
<path d="M364.206 223.954C365.806 221.236 357.323 213.249 345.259 206.115C333.194 198.981 322.117 195.402 320.516 198.121C318.916 200.839 327.399 208.826 339.463 215.96C351.528 223.094 362.606 226.673 364.206 223.954Z" fill="#30242A"/>
<path d="M359.521 145.155C361.87 143.813 360.662 137.256 356.824 130.509C352.986 123.762 347.971 119.381 345.622 120.723C343.273 122.066 344.48 128.623 348.318 135.37C352.156 142.116 357.172 146.498 359.521 145.155Z" fill="#30242A"/>
<path d="M318.202 173.759C319.465 170.943 325.407 170.736 332.628 172.894C328.177 164.915 326.814 157.494 329.757 155.581C332.7 153.669 338.92 157.901 344.378 165.244C345.34 157.756 347.944 152.42 351.054 152.386C354.981 152.386 358.197 161.068 358.236 171.807C358.26 174.878 357.987 177.944 357.424 180.962C355.711 180.176 353.83 179.832 351.95 179.96C350.071 180.087 348.253 180.684 346.662 181.695C345.072 182.706 343.758 184.1 342.841 185.749C341.924 187.398 341.433 189.25 341.412 191.138C338.532 190.43 335.723 189.456 333.023 188.228C323.215 183.828 316.594 177.355 318.202 173.759Z" fill="#4756DF"/>
<path d="M346.536 181.771C348.133 180.731 349.965 180.113 351.864 179.973C353.763 179.834 355.666 180.178 357.396 180.974C356.439 185.964 354.709 189.666 352.628 190.871C350.648 192.315 346.453 192.37 341.385 191.149C341.406 189.282 341.887 187.448 342.786 185.812C343.684 184.176 344.973 182.787 346.536 181.771Z" fill="#30242A"/>
<path d="M370.987 247.755C372.523 238.979 380.517 195.95 393.313 171.606" stroke="#30242A" stroke-width="4" stroke-miterlimit="10" stroke-linecap="round"/>
<path d="M436.502 231.238C437.422 228.39 425.131 221.849 409.049 216.627C392.967 211.406 379.183 209.481 378.263 212.329C377.342 215.176 389.634 221.717 405.716 226.939C421.798 232.161 435.582 234.085 436.502 231.238Z" fill="#30242A"/>
<path d="M390.904 133.886C393.975 133.607 397.068 138.698 398.732 146.064C403.472 138.257 409.269 133.429 412.379 135.063C415.488 136.696 414.854 144.201 411.143 152.571C418.131 149.744 424.067 149.387 425.608 152.074C427.544 155.498 421.564 162.574 412.256 167.871C409.602 169.396 406.807 170.661 403.911 171.651C403.753 169.772 403.129 167.962 402.096 166.385C401.063 164.809 399.654 163.515 397.997 162.622C396.34 161.729 394.486 161.265 392.605 161.271C390.723 161.277 388.873 161.753 387.221 162.657C386.426 159.792 385.896 156.86 385.635 153.898C384.606 143.203 386.993 134.243 390.904 133.886Z" fill="#4756DF"/>
<path d="M397.841 162.557C399.528 163.441 400.965 164.739 402.019 166.329C403.072 167.918 403.708 169.749 403.866 171.651C399.054 173.262 394.965 173.569 392.918 172.342C390.692 171.322 388.584 167.681 387.16 162.657C388.794 161.758 390.624 161.279 392.488 161.261C394.352 161.244 396.191 161.689 397.841 162.557Z" fill="#30242A"/>
<path d="M424.073 184.932V184.977C421.456 186.058 419.339 188.083 418.139 190.652C416.938 193.221 416.742 196.147 417.588 198.854C418.435 201.56 420.263 203.851 422.711 205.274C425.16 206.696 428.051 207.148 430.816 206.539V206.583C416.156 211.183 402.76 210.068 400.89 204.085C399.021 198.102 409.413 189.532 424.073 184.932Z" fill="#4756DF"/>
<path d="M420.584 203.684C421.87 203.168 422.914 202.183 423.506 200.929C424.098 199.674 424.195 198.241 423.778 196.917C423.361 195.594 422.46 194.477 421.256 193.791C420.052 193.105 418.633 192.9 417.285 193.218C417.655 191.39 418.469 189.682 419.654 188.244C420.84 186.807 422.362 185.684 424.084 184.977L430.826 206.539C429.016 206.939 427.136 206.889 425.35 206.391C423.564 205.893 421.928 204.964 420.584 203.684Z" fill="#FFB7D5"/>
<path d="M423.756 196.937C424.169 198.255 424.072 199.681 423.484 200.931C422.897 202.181 421.862 203.164 420.585 203.684C419.196 202.362 418.165 200.708 417.588 198.878C417.011 197.047 416.907 195.1 417.286 193.218C418.633 192.909 420.047 193.12 421.246 193.809C422.445 194.499 423.341 195.615 423.756 196.937Z" fill="#30242A"/>
</svg>
