<svg width="28" height="655" viewBox="0 0 28 655" fill="none" xmlns="http://www.w3.org/2000/svg">
<g opacity="0.3">
<mask id="mask0_744_3373" style="mask-type:alpha" maskUnits="userSpaceOnUse" x="0" y="-544" width="28" height="1199">
<path d="M4.70532 606.682L13.6421 597.759C14.7007 598.899 15.5488 600.219 16.1457 601.658C16.8065 603.251 17.1465 604.958 17.1465 606.682C17.1465 608.406 16.8065 610.113 16.1457 611.705C15.5488 613.144 14.7007 614.464 13.6422 615.605L4.70532 606.682ZM13.2956 596.692L4.00437 605.969C2.35452 604.191 1.22738 601.99 0.752627 599.607C0.245336 597.06 0.505687 594.421 1.50079 592.022C2.4959 589.623 4.18112 587.573 6.34345 586.131C8.50579 584.688 11.0481 583.918 13.6489 583.918C16.2496 583.918 18.7919 584.688 20.9543 586.131C23.1166 587.573 24.8018 589.623 25.7969 592.022C26.792 594.421 27.0524 597.06 26.5451 599.607C26.0703 601.99 24.9432 604.191 23.2933 605.969L14.0021 596.692L13.6489 596.339L13.2956 596.692ZM13.2956 641.726L13.6489 642.079L14.0021 641.726L23.2933 632.449C24.9432 634.227 26.0703 636.428 26.5451 638.811C27.0524 641.358 26.792 643.997 25.7969 646.396C24.8018 648.794 23.1166 650.845 20.9543 652.287C18.7919 653.73 16.2496 654.5 13.6489 654.5C11.0481 654.5 8.50579 653.73 6.34345 652.287C4.18112 650.845 2.49591 648.794 1.5008 646.396C0.505693 643.997 0.245339 641.358 0.75263 638.811C1.22738 636.428 2.35453 634.227 4.00438 632.449L13.2956 641.726ZM22.5924 631.736L13.6556 640.659C12.597 639.519 11.7489 638.198 11.152 636.76C10.4913 635.167 10.1512 633.46 10.1512 631.736C10.1512 630.012 10.4913 628.305 11.152 626.713C11.7489 625.274 12.597 623.954 13.6556 622.813L22.5924 631.736Z" stroke="#487FFF"/>
<path d="M4.70532 526.152L13.6421 517.229C14.7007 518.37 15.5488 519.69 16.1457 521.129C16.8065 522.721 17.1465 524.428 17.1465 526.152C17.1465 527.876 16.8065 529.583 16.1457 531.176C15.5488 532.615 14.7007 533.935 13.6422 535.075L4.70532 526.152ZM13.2956 516.162L4.00437 525.439C2.35452 523.662 1.22738 521.46 0.752627 519.077C0.245336 516.531 0.505687 513.891 1.50079 511.493C2.4959 509.094 4.18112 507.044 6.34345 505.601C8.50579 504.158 11.0481 503.388 13.6489 503.388C16.2496 503.388 18.7919 504.158 20.9543 505.601C23.1166 507.044 24.8018 509.094 25.7969 511.493C26.792 513.891 27.0524 516.531 26.5451 519.077C26.0703 521.46 24.9432 523.662 23.2933 525.439L14.0021 516.162L13.6489 515.809L13.2956 516.162ZM13.2956 561.197L13.6489 561.549L14.0021 561.197L23.2933 551.92C24.9432 553.697 26.0703 555.899 26.5451 558.282C27.0524 560.828 26.792 563.468 25.7969 565.866C24.8018 568.265 23.1166 570.315 20.9543 571.758C18.7919 573.2 16.2496 573.97 13.6489 573.97C11.0481 573.97 8.50579 573.2 6.34345 571.758C4.18112 570.315 2.49591 568.265 1.5008 565.866C0.505693 563.468 0.245339 560.828 0.75263 558.282C1.22738 555.899 2.35453 553.697 4.00438 551.92L13.2956 561.197ZM22.5924 551.207L13.6556 560.129C12.597 558.989 11.7489 557.669 11.152 556.23C10.4913 554.637 10.1512 552.93 10.1512 551.207C10.1512 549.483 10.4913 547.776 11.152 546.183C11.7489 544.744 12.597 543.424 13.6556 542.284L22.5924 551.207Z" stroke="#487FFF"/>
<path d="M4.70532 445.622L13.6421 436.699C14.7007 437.839 15.5488 439.16 16.1457 440.599C16.8065 442.191 17.1465 443.898 17.1465 445.622C17.1465 447.346 16.8065 449.053 16.1457 450.646C15.5488 452.084 14.7007 453.405 13.6422 454.545L4.70532 445.622ZM13.2956 435.632L4.00437 444.909C2.35452 443.131 1.22738 440.93 0.752627 438.547C0.245336 436 0.505687 433.361 1.50079 430.962C2.4959 428.564 4.18112 426.513 6.34345 425.071C8.50579 423.628 11.0481 422.858 13.6489 422.858C16.2496 422.858 18.7919 423.628 20.9543 425.071C23.1166 426.513 24.8018 428.564 25.7969 430.962C26.792 433.361 27.0524 436 26.5451 438.547C26.0703 440.93 24.9432 443.131 23.2933 444.909L14.0021 435.632L13.6489 435.279L13.2956 435.632ZM13.2956 480.666L13.6489 481.019L14.0021 480.666L23.2933 471.39C24.9432 473.167 26.0703 475.368 26.5451 477.752C27.0524 480.298 26.792 482.937 25.7969 485.336C24.8018 487.735 23.1166 489.785 20.9543 491.228C18.7919 492.67 16.2496 493.44 13.6489 493.44C11.0481 493.44 8.50579 492.67 6.34345 491.228C4.18112 489.785 2.49591 487.735 1.5008 485.336C0.505693 482.937 0.245339 480.298 0.75263 477.752C1.22738 475.368 2.35453 473.167 4.00438 471.389L13.2956 480.666ZM22.5924 470.676L13.6556 479.599C12.597 478.459 11.7489 477.139 11.152 475.7C10.4913 474.107 10.1512 472.4 10.1512 470.676C10.1512 468.952 10.4913 467.245 11.152 465.653C11.7489 464.214 12.597 462.894 13.6556 461.753L22.5924 470.676Z" stroke="#487FFF"/>
<path d="M4.70532 365.092L13.6421 356.169C14.7007 357.31 15.5488 358.63 16.1457 360.069C16.8065 361.661 17.1465 363.368 17.1465 365.092C17.1465 366.816 16.8065 368.523 16.1457 370.116C15.5488 371.555 14.7007 372.875 13.6422 374.015L4.70532 365.092ZM13.2956 355.102L4.00437 364.379C2.35452 362.601 1.22738 360.4 0.752627 358.017C0.245336 355.471 0.505687 352.831 1.50079 350.432C2.4959 348.034 4.18112 345.983 6.34345 344.541C8.50579 343.098 11.0481 342.328 13.6489 342.328C16.2496 342.328 18.7919 343.098 20.9543 344.541C23.1166 345.983 24.8018 348.034 25.7969 350.432C26.792 352.831 27.0524 355.471 26.5451 358.017C26.0703 360.4 24.9432 362.601 23.2933 364.379L14.0021 355.102L13.6489 354.749L13.2956 355.102ZM13.2956 400.137L13.6489 400.489L14.0021 400.137L23.2933 390.86C24.9432 392.637 26.0703 394.839 26.5451 397.222C27.0524 399.768 26.792 402.408 25.7969 404.806C24.8018 407.205 23.1166 409.255 20.9543 410.698C18.7919 412.14 16.2496 412.91 13.6489 412.91C11.0481 412.91 8.50579 412.14 6.34345 410.698C4.18112 409.255 2.49591 407.205 1.5008 404.806C0.505693 402.408 0.245339 399.768 0.75263 397.222C1.22738 394.839 2.35453 392.637 4.00438 390.86L13.2956 400.137ZM22.5924 390.146L13.6556 399.069C12.597 397.929 11.7489 396.609 11.152 395.17C10.4913 393.577 10.1512 391.87 10.1512 390.146C10.1512 388.423 10.4913 386.716 11.152 385.123C11.7489 383.684 12.597 382.364 13.6556 381.223L22.5924 390.146Z" stroke="#487FFF"/>
<path d="M4.70532 284.562L13.6421 275.639C14.7007 276.78 15.5488 278.1 16.1457 279.539C16.8065 281.131 17.1465 282.838 17.1465 284.562C17.1465 286.286 16.8065 287.993 16.1457 289.586C15.5488 291.025 14.7007 292.345 13.6422 293.485L4.70532 284.562ZM13.2956 274.572L4.00437 283.849C2.35452 282.072 1.22738 279.87 0.752627 277.487C0.245336 274.941 0.505687 272.301 1.50079 269.903C2.4959 267.504 4.18112 265.454 6.34345 264.011C8.50579 262.568 11.0481 261.798 13.6489 261.798C16.2496 261.798 18.7919 262.568 20.9543 264.011C23.1166 265.454 24.8018 267.504 25.7969 269.903C26.792 272.301 27.0524 274.941 26.5451 277.487C26.0703 279.87 24.9432 282.072 23.2933 283.849L14.0021 274.572L13.6489 274.22L13.2956 274.572ZM13.2956 319.607L13.6489 319.959L14.0021 319.607L23.2933 310.33C24.9432 312.107 26.0703 314.309 26.5451 316.692C27.0524 319.238 26.792 321.878 25.7969 324.276C24.8018 326.675 23.1166 328.725 20.9543 330.168C18.7919 331.61 16.2496 332.38 13.6489 332.38C11.0481 332.38 8.50579 331.61 6.34345 330.168C4.18112 328.725 2.49591 326.675 1.5008 324.276C0.505693 321.878 0.245339 319.238 0.75263 316.692C1.22738 314.309 2.35453 312.107 4.00438 310.33L13.2956 319.607ZM22.5924 309.617L13.6556 318.54C12.597 317.399 11.7489 316.079 11.152 314.64C10.4913 313.047 10.1512 311.34 10.1512 309.617C10.1512 307.893 10.4913 306.186 11.152 304.593C11.7489 303.154 12.597 301.834 13.6556 300.694L22.5924 309.617Z" stroke="#487FFF"/>
<path d="M4.70532 204.032L13.6421 195.109C14.7007 196.25 15.5488 197.57 16.1457 199.009C16.8065 200.601 17.1465 202.308 17.1465 204.032C17.1465 205.756 16.8065 207.463 16.1457 209.056C15.5488 210.495 14.7007 211.815 13.6422 212.955L4.70532 204.032ZM13.2956 194.042L4.00437 203.319C2.35452 201.542 1.22738 199.34 0.752627 196.957C0.245336 194.411 0.505687 191.771 1.50079 189.373C2.4959 186.974 4.18112 184.924 6.34345 183.481C8.50579 182.038 11.0481 181.268 13.6489 181.268C16.2496 181.268 18.7919 182.038 20.9543 183.481C23.1166 184.924 24.8018 186.974 25.7969 189.373C26.792 191.771 27.0524 194.411 26.5451 196.957C26.0703 199.34 24.9432 201.542 23.2933 203.319L14.0021 194.042L13.6489 193.69L13.2956 194.042ZM13.2956 239.077L13.6489 239.429L14.0021 239.077L23.2933 229.8C24.9432 231.577 26.0703 233.779 26.5451 236.162C27.0524 238.708 26.792 241.348 25.7969 243.746C24.8018 246.145 23.1166 248.195 20.9543 249.638C18.7919 251.08 16.2496 251.85 13.6489 251.85C11.0481 251.85 8.50579 251.08 6.34345 249.638C4.18112 248.195 2.49591 246.145 1.5008 243.746C0.505693 241.348 0.245339 238.708 0.75263 236.162C1.22738 233.779 2.35453 231.577 4.00438 229.8L13.2956 239.077ZM22.5924 229.087L13.6556 238.01C12.597 236.869 11.7489 235.549 11.152 234.11C10.4913 232.517 10.1512 230.81 10.1512 229.087C10.1512 227.363 10.4913 225.656 11.152 224.063C11.7489 222.624 12.597 221.304 13.6556 220.164L22.5924 229.087Z" stroke="#487FFF"/>
<path d="M4.70532 123.503L13.6421 114.58C14.7007 115.72 15.5488 117.04 16.1457 118.479C16.8065 120.072 17.1465 121.779 17.1465 123.503C17.1465 125.226 16.8065 126.933 16.1457 128.526C15.5488 129.965 14.7007 131.285 13.6422 132.425L4.70532 123.503ZM13.2956 113.512L4.00437 122.789C2.35452 121.012 1.22738 118.81 0.752627 116.427C0.245336 113.881 0.505687 111.241 1.50079 108.843C2.4959 106.444 4.18112 104.394 6.34345 102.951C8.50579 101.509 11.0481 100.739 13.6489 100.739C16.2496 100.739 18.7919 101.509 20.9543 102.951C23.1166 104.394 24.8018 106.444 25.7969 108.843C26.792 111.241 27.0524 113.881 26.5451 116.427C26.0703 118.81 24.9432 121.012 23.2933 122.789L14.0021 113.512L13.6489 113.16L13.2956 113.512ZM13.2956 158.547L13.6489 158.9L14.0021 158.547L23.2933 149.27C24.9432 151.047 26.0703 153.249 26.5451 155.632C27.0524 158.178 26.792 160.818 25.7969 163.216C24.8018 165.615 23.1166 167.665 20.9543 169.108C18.7919 170.551 16.2496 171.321 13.6489 171.321C11.0481 171.321 8.50579 170.551 6.34345 169.108C4.18112 167.665 2.49591 165.615 1.5008 163.216C0.505693 160.818 0.245339 158.178 0.75263 155.632C1.22738 153.249 2.35453 151.047 4.00438 149.27L13.2956 158.547ZM22.5924 148.557L13.6556 157.48C12.597 156.339 11.7489 155.019 11.152 153.58C10.4913 151.988 10.1512 150.281 10.1512 148.557C10.1512 146.833 10.4913 145.126 11.152 143.533C11.7489 142.094 12.597 140.774 13.6556 139.634L22.5924 148.557Z" stroke="#487FFF"/>
<path d="M4.70532 42.9725L13.6421 34.0495C14.7007 35.19 15.5488 36.5101 16.1457 37.949C16.8065 39.5416 17.1465 41.2486 17.1465 42.9725C17.1465 44.6963 16.8065 46.4033 16.1457 47.996C15.5488 49.4349 14.7007 50.755 13.6422 51.8955L4.70532 42.9725ZM13.2956 32.9824L4.00437 42.2592C2.35452 40.4817 1.22738 38.2802 0.752627 35.8972C0.245336 33.3508 0.505687 30.7114 1.50079 28.3127C2.4959 25.9141 4.18112 23.8637 6.34345 22.4212C8.50579 20.9786 11.0481 20.2085 13.6489 20.2085C16.2496 20.2085 18.7919 20.9786 20.9543 22.4212C23.1166 23.8637 24.8018 25.9141 25.7969 28.3127C26.792 30.7114 27.0524 33.3508 26.5451 35.8972C26.0703 38.2802 24.9432 40.4817 23.2933 42.2592L14.0021 32.9824L13.6489 32.6297L13.2956 32.9824ZM13.2956 78.0168L13.6489 78.3695L14.0021 78.0168L23.2933 68.74C24.9432 70.5175 26.0703 72.719 26.5451 75.102C27.0524 77.6484 26.792 80.2878 25.7969 82.6864C24.8018 85.0851 23.1166 87.1354 20.9543 88.578C18.7919 90.0206 16.2496 90.7906 13.6489 90.7906C11.0481 90.7906 8.50579 90.0206 6.34345 88.578C4.18112 87.1354 2.49591 85.0851 1.5008 82.6864C0.505693 80.2878 0.245339 77.6484 0.75263 75.102C1.22738 72.719 2.35453 70.5174 4.00438 68.74L13.2956 78.0168ZM22.5924 68.0267L13.6556 76.9497C12.597 75.8092 11.7489 74.4891 11.152 73.0502C10.4913 71.4575 10.1512 69.7506 10.1512 68.0267C10.1512 66.3029 10.4913 64.5959 11.152 63.0032C11.7489 61.5643 12.597 60.2442 13.6556 59.1037L22.5924 68.0267Z" stroke="#487FFF"/>
<path d="M4.70532 -37.5569L13.6421 -46.4799C14.7007 -45.3395 15.5488 -44.0193 16.1457 -42.5804C16.8065 -40.9878 17.1465 -39.2808 17.1465 -37.5569C17.1465 -35.8331 16.8065 -34.1261 16.1457 -32.5334C15.5488 -31.0945 14.7007 -29.7744 13.6422 -28.634L4.70532 -37.5569ZM13.2956 -47.547L4.00437 -38.2702C2.35452 -40.0477 1.22738 -42.2492 0.752627 -44.6322C0.245336 -47.1786 0.505687 -49.818 1.50079 -52.2167C2.4959 -54.6154 4.18112 -56.6657 6.34345 -58.1083C8.50579 -59.5509 11.0481 -60.3209 13.6489 -60.3209C16.2496 -60.3209 18.7919 -59.5509 20.9543 -58.1083C23.1166 -56.6657 24.8018 -54.6154 25.7969 -52.2167C26.792 -49.818 27.0524 -47.1786 26.5451 -44.6322C26.0703 -42.2492 24.9432 -40.0477 23.2933 -38.2702L14.0021 -47.547L13.6489 -47.8997L13.2956 -47.547ZM13.2956 -2.51264L13.6489 -2.15991L14.0021 -2.51264L23.2933 -11.7895C24.9432 -10.012 26.0703 -7.81046 26.5451 -5.42742C27.0524 -2.88105 26.792 -0.241657 25.7969 2.15702C24.8018 4.55571 23.1166 6.60603 20.9543 8.04861C18.7919 9.4912 16.2496 10.2612 13.6489 10.2612C11.0481 10.2612 8.50579 9.4912 6.34345 8.04861C4.18112 6.60603 2.49591 4.55571 1.5008 2.15702C0.505693 -0.241654 0.245339 -2.88105 0.75263 -5.42742C1.22738 -7.81046 2.35453 -10.012 4.00438 -11.7895L13.2956 -2.51264ZM22.5924 -12.5027L13.6556 -3.57973C12.597 -4.72018 11.7489 -6.04032 11.152 -7.47921C10.4913 -9.07188 10.1512 -10.7789 10.1512 -12.5027C10.1512 -14.2266 10.4913 -15.9335 11.152 -17.5262C11.7489 -18.9651 12.597 -20.2852 13.6556 -21.4257L22.5924 -12.5027Z" stroke="#487FFF"/>
</mask>
<g mask="url(#mask0_744_3373)">
<rect x="48.2959" y="-544" width="1199" height="73.4939" transform="rotate(90 48.2959 -544)" fill="url(#paint0_linear_744_3373)"/>
</g>
</g>
<defs>
<linearGradient id="paint0_linear_744_3373" x1="1247.3" y1="-506.204" x2="48.2959" y2="-506.203" gradientUnits="userSpaceOnUse">
<stop stop-color="white"/>
<stop offset="1" stop-color="white" stop-opacity="0"/>
</linearGradient>
</defs>
</svg>
