<svg width="1380" height="83" viewBox="0 0 1380 83" fill="none" xmlns="http://www.w3.org/2000/svg">
<g opacity="0.8">
<mask id="mask0_825_2789" style="mask-type:alpha" maskUnits="userSpaceOnUse" x="-1472" y="0" width="3646" height="83">
<path d="M1292.13 70.1373L1263.54 41.5023C1267.26 37.8603 1271.65 34.9625 1276.46 32.9659C1281.43 30.9055 1286.75 29.8451 1292.13 29.8451C1297.5 29.8451 1302.82 30.9055 1307.79 32.9659C1312.6 34.9625 1316.99 37.8602 1320.72 41.5022L1292.13 70.1373ZM1262.47 41.8534L1291.42 70.8428C1285.75 76.385 1278.59 80.1627 1270.81 81.7122C1262.87 83.2941 1254.64 82.4822 1247.16 79.3791C1239.68 76.276 1233.29 71.0211 1228.79 64.2787C1224.29 57.5363 1221.89 49.6093 1221.89 41.5001C1221.89 33.3909 1224.29 25.4639 1228.79 18.7215C1233.29 11.9791 1239.68 6.7242 1247.16 3.62112C1254.64 0.518037 1262.87 -0.293861 1270.81 1.28806C1278.59 2.83749 1285.75 6.61523 1291.42 12.1575L1262.47 41.1468L1262.12 41.5001L1262.47 41.8534ZM1397.96 41.8534L1398.31 41.5001L1397.96 41.1469L1369.01 12.1575C1374.68 6.61526 1381.84 2.83748 1389.62 1.28805C1397.56 -0.293873 1405.79 0.518024 1413.27 3.6211C1420.75 6.72418 1427.14 11.9791 1431.64 18.7215C1436.14 25.4639 1438.54 33.3909 1438.54 41.5001C1438.54 49.6093 1436.14 57.5363 1431.64 64.2787C1427.14 71.0211 1420.75 76.276 1413.27 79.3791C1405.79 82.4822 1397.56 83.2941 1389.62 81.7121C1381.84 80.1627 1374.68 76.385 1369.01 70.8428L1397.96 41.8534ZM1368.3 12.863L1396.89 41.498C1393.17 45.14 1388.78 48.0377 1383.97 50.0343C1379 52.0947 1373.68 53.1551 1368.3 53.1551C1362.93 53.1552 1357.61 52.0947 1352.64 50.0343C1347.83 48.0377 1343.44 45.14 1339.71 41.498L1368.3 12.863Z" fill="url(#paint0_linear_825_2789)" stroke="#487FFF"/>
<path d="M1047.27 70.1373L1018.68 41.5023C1022.41 37.8603 1026.79 34.9625 1031.61 32.9659C1036.57 30.9055 1041.9 29.8451 1047.27 29.8451C1052.65 29.8451 1057.97 30.9055 1062.94 32.9659C1067.75 34.9625 1072.14 37.8602 1075.86 41.5022L1047.27 70.1373ZM1017.62 41.8534L1046.56 70.8428C1040.89 76.385 1033.74 80.1627 1025.96 81.7122C1018.02 83.2941 1009.79 82.4822 1002.31 79.3791C994.828 76.276 988.434 71.0211 983.936 64.2787C979.438 57.5363 977.037 49.6093 977.037 41.5001C977.037 33.3909 979.438 25.4639 983.936 18.7215C988.434 11.9791 994.828 6.7242 1002.31 3.62112C1009.79 0.518037 1018.02 -0.293861 1025.96 1.28806C1033.74 2.83749 1040.89 6.61523 1046.56 12.1575L1017.62 41.1468L1017.27 41.5001L1017.62 41.8534ZM1153.1 41.8534L1153.46 41.5001L1153.1 41.1469L1124.16 12.1575C1129.83 6.61526 1136.99 2.83748 1144.76 1.28805C1152.7 -0.293873 1160.93 0.518024 1168.41 3.6211C1175.89 6.72418 1182.29 11.9791 1186.79 18.7215C1191.28 25.4639 1193.69 33.3909 1193.69 41.5001C1193.69 49.6093 1191.28 57.5363 1186.79 64.2787C1182.29 71.0211 1175.89 76.276 1168.41 79.3791C1160.93 82.4822 1152.7 83.2941 1144.76 81.7121C1136.99 80.1627 1129.83 76.385 1124.16 70.8428L1153.1 41.8534ZM1123.45 12.863L1152.04 41.498C1148.31 45.14 1143.93 48.0377 1139.12 50.0343C1134.15 52.0947 1128.83 53.1551 1123.45 53.1551C1118.07 53.1552 1112.75 52.0947 1107.79 50.0343C1102.97 48.0377 1098.59 45.14 1094.86 41.498L1123.45 12.863Z" fill="url(#paint1_linear_825_2789)" stroke="#487FFF"/>
<path d="M802.418 70.1373L773.827 41.5023C777.553 37.8603 781.94 34.9625 786.752 32.9659C791.719 30.9055 797.042 29.8451 802.418 29.8451C807.793 29.8451 813.116 30.9055 818.083 32.9659C822.895 34.9625 827.282 37.8602 831.008 41.5022L802.418 70.1373ZM772.764 41.8534L801.709 70.8428C796.039 76.385 788.882 80.1627 781.104 81.7122C773.164 83.2941 764.933 82.4822 757.453 79.3791C749.973 76.276 743.58 71.0211 739.082 64.2787C734.584 57.5363 732.183 49.6093 732.183 41.5001C732.183 33.3909 734.584 25.4639 739.082 18.7215C743.58 11.9791 749.973 6.7242 757.453 3.62112C764.933 0.518037 773.164 -0.293861 781.104 1.28806C788.882 2.83749 796.039 6.61523 801.709 12.1575L772.764 41.1468L772.412 41.5001L772.764 41.8534ZM908.249 41.8534L908.602 41.5001L908.249 41.1469L879.304 12.1575C884.975 6.61526 892.132 2.83748 899.909 1.28805C907.85 -0.293873 916.08 0.518024 923.56 3.6211C931.04 6.72418 937.433 11.9791 941.931 18.7215C946.43 25.4639 948.831 33.3909 948.831 41.5001C948.831 49.6093 946.43 57.5363 941.931 64.2787C937.433 71.0211 931.04 76.276 923.56 79.3791C916.08 82.4822 907.85 83.2941 899.909 81.7121C892.132 80.1627 884.975 76.385 879.304 70.8428L908.249 41.8534ZM878.596 12.863L907.186 41.498C903.46 45.14 899.074 48.0377 894.261 50.0343C889.294 52.0947 883.971 53.1551 878.596 53.1551C873.22 53.1552 867.897 52.0947 862.931 50.0343C858.118 48.0377 853.731 45.14 850.005 41.498L878.596 12.863Z" fill="url(#paint2_linear_825_2789)" stroke="#487FFF"/>
<path d="M557.564 70.1373L528.973 41.5023C532.699 37.8603 537.086 34.9625 541.899 32.9659C546.865 30.9055 552.188 29.8451 557.564 29.8451C562.94 29.8451 568.263 30.9055 573.229 32.9659C578.042 34.9625 582.429 37.8602 586.155 41.5022L557.564 70.1373ZM527.911 41.8534L556.855 70.8428C551.185 76.385 544.028 80.1627 536.251 81.7122C528.31 83.2941 520.079 82.4822 512.6 79.3791C505.12 76.276 498.726 71.0211 494.228 64.2787C489.73 57.5363 487.329 49.6093 487.329 41.5001C487.329 33.3909 489.73 25.4639 494.228 18.7215C498.726 11.9791 505.12 6.7242 512.6 3.62112C520.079 0.518037 528.31 -0.293861 536.251 1.28806C544.028 2.83749 551.185 6.61523 556.855 12.1575L527.911 41.1468L527.558 41.5001L527.911 41.8534ZM663.395 41.8534L663.748 41.5001L663.395 41.1469L634.451 12.1575C640.121 6.61526 647.278 2.83748 655.056 1.28805C662.996 -0.293873 671.227 0.518024 678.707 3.6211C686.187 6.72418 692.58 11.9791 697.078 18.7215C701.576 25.4639 703.977 33.3909 703.977 41.5001C703.977 49.6093 701.576 57.5363 697.078 64.2787C692.58 71.0211 686.187 76.276 678.707 79.3791C671.227 82.4822 662.996 83.2941 655.056 81.7121C647.278 80.1627 640.121 76.385 634.451 70.8428L663.395 41.8534ZM633.742 12.863L662.333 41.498C658.607 45.14 654.22 48.0377 649.407 50.0343C644.441 52.0947 639.118 53.1551 633.742 53.1551C628.367 53.1552 623.044 52.0947 618.077 50.0343C613.264 48.0377 608.878 45.14 605.152 41.498L633.742 12.863Z" fill="url(#paint3_linear_825_2789)" stroke="#487FFF"/>
<path d="M312.71 70.1373L284.119 41.5023C287.845 37.8603 292.232 34.9625 297.045 32.9659C302.011 30.9055 307.334 29.8451 312.71 29.8451C318.086 29.8451 323.409 30.9055 328.375 32.9659C333.188 34.9625 337.575 37.8602 341.301 41.5022L312.71 70.1373ZM283.057 41.8534L312.001 70.8428C306.331 76.385 299.174 80.1627 291.397 81.7122C283.456 83.2941 275.225 82.4822 267.746 79.3791C260.266 76.276 253.872 71.0211 249.374 64.2787C244.876 57.5363 242.475 49.6093 242.475 41.5001C242.475 33.3909 244.876 25.4639 249.374 18.7215C253.872 11.9791 260.266 6.7242 267.746 3.62112C275.225 0.518037 283.456 -0.293861 291.397 1.28806C299.174 2.83749 306.331 6.61523 312.001 12.1575L283.057 41.1468L282.704 41.5001L283.057 41.8534ZM418.541 41.8534L418.894 41.5001L418.541 41.1469L389.597 12.1575C395.267 6.61526 402.424 2.83748 410.202 1.28805C418.142 -0.293873 426.373 0.518024 433.853 3.6211C441.333 6.72418 447.726 11.9791 452.224 18.7215C456.722 25.4639 459.123 33.3909 459.123 41.5001C459.123 49.6093 456.722 57.5363 452.224 64.2787C447.726 71.0211 441.333 76.276 433.853 79.3791C426.373 82.4822 418.142 83.2941 410.202 81.7121C402.424 80.1627 395.267 76.385 389.597 70.8428L418.541 41.8534ZM388.888 12.863L417.479 41.498C413.753 45.14 409.366 48.0377 404.553 50.0343C399.587 52.0947 394.264 53.1551 388.888 53.1551C383.513 53.1552 378.19 52.0947 373.223 50.0343C368.41 48.0377 364.024 45.14 360.298 41.498L388.888 12.863Z" fill="url(#paint4_linear_825_2789)" stroke="#487FFF"/>
<path d="M67.8575 70.1373L39.2668 41.5023C42.9929 37.8603 47.3796 34.9625 52.1923 32.9659C57.1588 30.9055 62.4818 29.8451 67.8574 29.8451C73.2331 29.8451 78.5561 30.9055 83.5225 32.9659C88.3353 34.9625 92.722 37.8602 96.4481 41.5022L67.8575 70.1373ZM38.2043 41.8534L67.1488 70.8428C61.4787 76.385 54.3215 80.1627 46.5441 81.7122C38.6035 83.2941 30.3729 82.4822 22.893 79.3791C15.4131 76.276 9.01985 71.0211 4.52171 64.2787C0.0235573 57.5363 -2.37737 49.6093 -2.37737 41.5001C-2.37737 33.3909 0.0235545 25.4639 4.52171 18.7215C9.01985 11.9791 15.4131 6.7242 22.893 3.62112C30.3729 0.518037 38.6036 -0.293861 46.5441 1.28806C54.3215 2.83749 61.4786 6.61523 67.1488 12.1575L38.2043 41.1468L37.8516 41.5001L38.2043 41.8534ZM173.689 41.8534L174.042 41.5001L173.689 41.1469L144.744 12.1575C150.415 6.61526 157.572 2.83748 165.349 1.28805C173.29 -0.293873 181.52 0.518024 189 3.6211C196.48 6.72418 202.873 11.9791 207.371 18.7215C211.87 25.4639 214.271 33.3909 214.271 41.5001C214.271 49.6093 211.87 57.5363 207.371 64.2787C202.873 71.0211 196.48 76.276 189 79.3791C181.52 82.4822 173.29 83.2941 165.349 81.7121C157.572 80.1627 150.414 76.385 144.744 70.8428L173.689 41.8534ZM144.036 12.863L172.626 41.498C168.9 45.14 164.514 48.0377 159.701 50.0343C154.734 52.0947 149.411 53.1551 144.036 53.1551C138.66 53.1552 133.337 52.0947 128.371 50.0343C123.558 48.0377 119.171 45.14 115.445 41.498L144.036 12.863Z" fill="url(#paint5_linear_825_2789)" stroke="#487FFF"/>
</mask>
<g mask="url(#mask0_825_2789)">
<rect x="-1472" y="-63.8452" width="3645.6" height="223.461" fill="url(#paint6_linear_825_2789)"/>
</g>
</g>
<defs>
<linearGradient id="paint0_linear_825_2789" x1="1221.39" y1="40.315" x2="1439.04" y2="40.3149" gradientUnits="userSpaceOnUse">
<stop stop-color="#487FFF"/>
<stop offset="1" stop-color="white" stop-opacity="0"/>
</linearGradient>
<linearGradient id="paint1_linear_825_2789" x1="976.537" y1="40.315" x2="1194.19" y2="40.3149" gradientUnits="userSpaceOnUse">
<stop stop-color="#487FFF"/>
<stop offset="1" stop-color="white" stop-opacity="0"/>
</linearGradient>
<linearGradient id="paint2_linear_825_2789" x1="731.683" y1="40.315" x2="949.331" y2="40.3149" gradientUnits="userSpaceOnUse">
<stop stop-color="#487FFF"/>
<stop offset="1" stop-color="white" stop-opacity="0"/>
</linearGradient>
<linearGradient id="paint3_linear_825_2789" x1="486.829" y1="40.315" x2="704.477" y2="40.3149" gradientUnits="userSpaceOnUse">
<stop stop-color="#487FFF"/>
<stop offset="1" stop-color="white" stop-opacity="0"/>
</linearGradient>
<linearGradient id="paint4_linear_825_2789" x1="241.975" y1="40.315" x2="459.623" y2="40.3149" gradientUnits="userSpaceOnUse">
<stop stop-color="#487FFF"/>
<stop offset="1" stop-color="white" stop-opacity="0"/>
</linearGradient>
<linearGradient id="paint5_linear_825_2789" x1="-2.87738" y1="40.315" x2="214.771" y2="40.3149" gradientUnits="userSpaceOnUse">
<stop stop-color="#487FFF"/>
<stop offset="1" stop-color="white" stop-opacity="0"/>
</linearGradient>
<linearGradient id="paint6_linear_825_2789" x1="2173.6" y1="51.0759" x2="-1472" y2="51.0769" gradientUnits="userSpaceOnUse">
<stop stop-color="#487FFF"/>
<stop offset="1" stop-color="white" stop-opacity="0"/>
</linearGradient>
</defs>
</svg>
