<svg width="349" height="220" viewBox="0 0 349 220" fill="none" xmlns="http://www.w3.org/2000/svg">
<path d="M312.131 132.493H529.951V367.464H312.131V132.493Z" fill="#487FFF"/>
<path d="M324.994 145.356H517.087V354.601H324.994V145.356Z" fill="#F5EBDD"/>
<path d="M349.883 279.016C349.21 280.787 347.229 281.677 345.458 281.004C343.687 280.332 342.797 278.351 343.47 276.58L387.824 159.817C388.496 158.046 390.477 157.156 392.248 157.828C394.019 158.501 394.91 160.482 394.237 162.253L349.883 279.016Z" fill="#30242A"/>
<path d="M358.448 211.165C354.456 213.562 355.313 218.205 355.313 218.205C355.313 218.205 347.282 217.103 347.518 225.315C347.518 225.315 341.117 228.256 344.054 234.658C344.054 234.658 339.65 235.807 341.85 242.843C343.994 249.704 348.38 254.03 351.283 254.42C352.818 254.626 356.428 253.134 355.999 247.56C355.999 247.56 359.858 249.704 362.431 247.56C365.81 244.743 364.575 240.699 364.575 240.699C364.575 240.699 368.434 241.985 370.149 238.984C372.01 235.73 369.72 231.266 369.72 231.266C369.72 231.266 372.803 231.695 373.579 228.693C375.226 222.36 368.395 216.983 366.719 215.401L368.005 211.971C368.005 211.971 362.431 208.772 358.448 211.165Z" fill="#EAA58B"/>
<path d="M39.4273 0H257.247V234.971H39.4273V0Z" fill="#FFB7D5"/>
<path d="M52.2907 12.8635H244.384V222.108H52.2907V12.8635Z" fill="#F5EBDD"/>
<path d="M42.8571 89.615H253.816V102.478H42.8571V89.615Z" fill="#FFB7D5"/>
<path d="M168.05 77.5371L163.344 90.4256L215.301 109.398C217.01 110.022 218.897 109.942 220.547 109.175C222.197 108.407 223.474 107.016 224.098 105.307C224.722 103.598 224.642 101.711 223.875 100.061C223.108 98.4111 221.716 97.1336 220.007 96.5095L168.05 77.5371Z" fill="#30242A"/>
<path d="M209.051 92.5098L204.345 105.398L215.3 109.399C217.009 110.023 218.896 109.942 220.546 109.175C222.196 108.408 223.474 107.017 224.098 105.308C224.722 103.598 224.641 101.711 223.874 100.062C223.107 98.4117 221.716 97.1342 220.007 96.5101L209.051 92.5098Z" fill="#30242A"/>
<path d="M158.027 96.1925C149.739 96.1925 143.02 89.4735 143.02 81.1852C143.02 72.897 149.739 66.178 158.027 66.178C166.316 66.178 173.035 72.897 173.035 81.1852C173.035 89.4735 166.316 96.1925 158.027 96.1925Z" fill="#4756DF"/>
<path d="M223.935 105.205C241.944 111.637 264.51 121.138 279.247 102.632C297.685 79.4782 261.667 55.4665 251.806 85.9099C240.683 120.246 308.696 144.408 291.253 175.525C275.388 203.824 225.444 173.329 196.493 183.671C172.481 192.247 171.855 221.511 171.855 221.511" stroke="#30242A" stroke-width="4" stroke-miterlimit="10" stroke-linecap="round"/>
<path d="M175.35 80.1817C176.208 75.0364 179.638 71.1774 181.782 70.6671C186.897 69.458 189.723 74.0974 189.723 74.0974C189.723 74.0974 193.77 70.3884 199.43 75.3623C199.43 75.3623 205.913 73.3384 208.713 79.1612C208.713 79.1612 211.595 78.0721 214.793 84.0322C217.396 88.8902 219.51 96.1666 216.508 98.1819C215.222 99.0394 211.363 98.6107 210.077 95.6092C210.077 95.6092 208.919 97.7531 206.647 97.3243C201.93 96.4668 201.501 92.6078 201.501 92.6078C201.501 92.6078 201.102 94.0613 198.5 94.3229C194.281 94.7517 192.068 90.4639 192.068 90.4639C192.068 90.4639 190.469 91.5315 187.352 90.4639C183.188 89.036 182.112 82.8059 182.112 82.8059L175.35 80.1817Z" fill="#FFBCA8"/>
<path d="M12.9944 150.064C5.81761 142.586 6.97926 129.825 15.589 121.563C24.1987 113.301 36.9961 112.666 44.1729 120.144C51.3496 127.623 50.1879 140.383 41.5782 148.646C32.9685 156.908 20.1711 157.543 12.9944 150.064Z" fill="#30242A"/>
<path d="M50.5757 137.638C50.5757 137.638 35.5684 128.205 33.4245 111.054" stroke="black" stroke-width="4" stroke-linecap="round" stroke-linejoin="round"/>
<path d="M95.9995 123.626C92.3953 112.251 97.4837 100.491 107.365 97.3608C117.246 94.2302 128.178 100.914 131.782 112.289C135.386 123.665 130.297 135.424 120.416 138.555C110.535 141.686 99.6036 135.002 95.9995 123.626Z" fill="#30242A"/>
<path d="M37.6651 117.151C38.0553 115.792 14.4468 130.336 19.2276 135.16C23.7384 139.688 35.7013 124.02 37.6651 117.151Z" fill="#4756DF"/>
<path d="M37.4767 117.996C38.2485 116.336 17.8943 95.5535 14.4855 101.346C11.2097 106.92 36.7049 119.651 37.4767 117.996Z" fill="#4756DF"/>
<path d="M60.8661 120.916C66.4402 119.201 78.446 118.343 85.3065 117.485C99.8849 109.767 96.0259 89.6148 96.0259 89.6148C95.1684 89.186 81.2116 86.6519 83.1369 75.7523C84.852 65.8904 96.459 65.8904 102.831 72.8538C102.831 72.8538 111.891 69.0334 114.463 56.5988C114.463 56.5988 122.113 57.4778 127.417 56.0757C128.57 61.1739 128.858 66.7609 129.899 72.4636C129.899 72.4636 135.474 72.8924 135.902 75.0363C136.331 77.3002 131.923 79.9758 131.923 79.9758C134.925 90.8754 134.496 100.754 127.756 104.622C121.753 108.052 114.463 106.766 114.463 106.766L115.321 117.057C122.83 117.34 130.231 118.937 137.189 121.773C151.42 127.57 184.783 149.644 184.783 149.644C182.211 141.068 171.658 114.021 167.632 96.904C165.917 89.6148 164.202 82.7543 168.49 82.3255C173.18 81.8539 180.067 96.4752 180.067 96.4752L209.224 107.195C226.413 130.447 246.527 183.089 220.372 196.381C196.789 208.387 144.049 179.23 144.049 179.23L148.766 222.108H63.0099L43.7149 130.778C43.7149 130.778 43.6335 130.692 43.4877 130.525C49.5163 125.311 56.7755 122.172 60.8661 120.916Z" fill="#FFBCA8"/>
<path d="M72.0145 112.494H114.94L115.321 117.057C118.665 117.151 121.994 117.541 125.269 118.223C126.362 118.442 127.52 118.699 128.725 119.003C131.607 119.731 134.435 120.656 137.189 121.773C137.793 122.018 138.441 122.301 139.114 122.601C140.358 123.167 141.687 123.818 143.14 124.543C152.814 129.453 166.114 137.668 175.063 143.358L163.443 166.593L157.612 178.256L154.503 184.469C148.123 181.468 144.049 179.23 144.049 179.23L148.766 222.107H63.0101L43.7151 130.778C42.6857 129.63 41.7332 128.415 40.8637 127.141V127.017L72.0145 112.494Z" fill="#487FFF"/>
<path d="M133.201 124.633L139.114 122.601C140.358 123.166 141.687 123.818 143.14 124.543L138.295 132.471L147.921 145.6L135.23 140.352L128.159 153.391L127.353 139.036L115.098 136.411L125.603 129.847L125.269 118.223C126.362 118.441 127.52 118.699 128.725 119.003L133.201 124.633Z" fill="#FF7235"/>
<path d="M154.632 173.896L144.135 172.331L144.019 169.201L149.452 166.718L144.967 153.357L156.943 161.234L164.472 152.658L163.383 166.572L163.443 166.594L157.612 178.256L154.632 173.896Z" fill="#FF7235"/>
<path d="M88.5098 138.028L83.6946 154.219L78.8837 138.028L63.5634 133.65L78.4463 127.523V113.519L86.7603 124.457L98.5775 118.768L91.5756 130.585L102.514 139.778L88.5098 138.028Z" fill="#FF7235"/>
<path d="M103.088 218.579L112.101 205.248L104.362 193.577L117.336 198.096L124.043 186.823L124.737 200.544L138.934 202.157L126.298 208.438L130.474 222.108H128.262L118.271 213.759L103.088 218.579Z" fill="#FF7235"/>
<path d="M98.6976 191.531L88.1968 182.342L76.3797 190.219L81.6322 177.09L72.4392 167.026L85.5684 169.213L91.6956 158.271L93.012 170.088L105.262 169.65L94.7614 177.527L98.6976 191.531Z" fill="#FF7235"/>
<path d="M114.464 56.5985C111.891 69.0331 102.831 72.8535 102.831 72.8535C96.4592 65.903 84.8735 65.903 83.137 75.752C81.2118 86.6516 95.1685 89.1857 96.026 89.6145C96.026 89.6145 99.8851 109.767 85.3066 117.485C78.4461 118.343 66.4403 119.2 60.8662 120.915C56.7756 122.172 49.5164 125.31 43.4878 130.524C41.3439 128.106 25.0245 108.455 40.2848 89.1857C50.8799 75.7992 68.2926 78.0932 68.2926 78.0932C67.7138 71.1384 66.5775 53.1811 81.6148 42.1743C96.6521 31.1676 115.797 36.9604 122.748 45.6517C125.23 48.7518 126.564 52.2807 127.417 56.0754C122.113 57.4775 114.464 56.5985 114.464 56.5985Z" fill="#30242A"/>
<path d="M180.86 96.1404C181.469 97.5468 182.095 99.1418 182.64 100.763C182.64 100.763 192.502 102.907 195.156 109.553" stroke="#30242A" stroke-width="4" stroke-miterlimit="10" stroke-linecap="round"/>
<path d="M183.548 148.795L188.642 162.139" stroke="#30242A" stroke-width="4" stroke-linecap="round" stroke-linejoin="round"/>
<path d="M143.192 163.365L144.976 179.41" stroke="#724342" stroke-width="4" stroke-linecap="round" stroke-linejoin="round"/>
<path d="M116.179 108.052C112.236 107.432 108.389 106.305 104.735 104.699" stroke="#30242A" stroke-width="4" stroke-miterlimit="10" stroke-linecap="round"/>
<path d="M97.0166 80.3358L91.4425 76.9055" stroke="#30242A" stroke-width="4" stroke-miterlimit="10" stroke-linecap="round"/>
<path d="M67.6408 77.9138C67.9581 81.0911 68.3868 85.0659 68.8027 88.2045" stroke="black" stroke-width="4" stroke-miterlimit="10" stroke-linecap="round"/>
<path d="M99.0705 85.5498L100.631 95.0344C100.7 95.4512 100.66 95.8786 100.516 96.2756C100.372 96.6727 100.129 97.0261 99.8091 97.302C99.4893 97.5779 99.1039 97.7671 98.69 97.8513C98.2762 97.9355 97.8476 97.9119 97.4454 97.7829L89.0928 95.103C88.6905 94.9739 88.328 94.7436 88.0403 94.4341C87.7526 94.1246 87.5493 93.7463 87.4498 93.3357C87.3504 92.925 87.3582 92.4956 87.4724 92.0888C87.5867 91.682 87.8036 91.3113 88.1023 91.0125L94.8727 84.1949C95.1934 83.8679 95.5988 83.6366 96.0435 83.5271C96.4882 83.4176 96.9546 83.4341 97.3905 83.5748C97.8263 83.7154 98.2143 83.9747 98.5111 84.3236C98.8078 84.6724 99.0015 85.0971 99.0705 85.5498Z" fill="#F4E6D8"/>
<path d="M119.124 83.1572C119.515 88.8257 125.354 89.2116 126.727 85.1854L119.124 83.1572Z" stroke="#30242A" stroke-width="4" stroke-linecap="round" stroke-linejoin="round"/>
<path d="M118.181 72.7002C119.219 73.2104 122.923 73.3176 124.124 70.3547" stroke="#30242A" stroke-width="4" stroke-linecap="round" stroke-linejoin="round"/>
<path d="M60.8661 120.916L60.9991 190.103C60.9991 190.103 103.148 164.87 106.407 164.668C108.804 164.518 110.587 169.946 106.261 174.431C117.924 172.266 129.514 171.13 131.336 174.68C132.434 176.824 130.646 179.054 130.646 179.054C132.043 179.229 133.407 179.598 134.187 180.516C136.061 182.715 133.488 186.09 133.488 186.09C135.864 187.235 135.045 190.807 132.901 192.522C127.657 196.711 111.947 199.704 111.947 199.704C117.598 200.394 128.472 201.037 127.889 204.253C127.031 208.97 103.019 208.97 103.019 208.97C94.0151 214.973 86.5929 214.818 86.5929 214.818C86.5929 214.818 64.6051 237.389 42.4286 242.689C-14.599 252.551 29.994 145.785 41.9998 132.064C49.452 123.544 60.8661 120.916 60.8661 120.916Z" fill="#FFBCA8"/>
<path d="M115.42 200.682C112.418 200.652 109.168 200.639 105.888 200.682" stroke="#30242A" stroke-width="4" stroke-linecap="round" stroke-linejoin="round"/>
<path d="M133.892 187.063C126.877 188.35 114.485 190.721 105.446 192.951" stroke="#30242A" stroke-width="4" stroke-linecap="round" stroke-linejoin="round"/>
<path d="M131.07 179.26C122.379 180.447 109.901 182.261 102.029 183.946" stroke="#30242A" stroke-width="4" stroke-linecap="round" stroke-linejoin="round"/>
<path d="M105.331 173.926C102.176 174.642 99.0682 175.554 96.0265 176.657" stroke="#30242A" stroke-width="4" stroke-linecap="round" stroke-linejoin="round"/>
<path d="M35.5939 151.042L36.4001 165.397L43.4706 152.371L56.1625 157.619L46.5364 144.49L53.95 132.355L41.4425 136.643L39.9889 134.791C40.6049 133.839 41.2824 132.928 42.017 132.064C49.4692 123.544 60.8833 120.916 60.8833 120.916L60.9819 172.326L57.183 176.052L46.6822 164.552L51.9904 180.349L51.06 181.035L22.126 174.817C24.8839 166.451 28.0989 158.241 31.7564 150.227L35.5939 151.042Z" fill="#487FFF"/>
<path d="M53.9501 132.342L46.5365 144.477L56.1626 157.606L43.4707 152.358L36.4002 165.397L35.5941 151.041L31.7351 150.222C34.7622 143.636 37.6608 138.242 39.9505 134.786L41.4212 136.634L53.9501 132.342Z" fill="#FF7235"/>
<path d="M51.9734 180.349L46.6651 164.549L57.1659 176.053L60.9649 172.327L60.9863 183.175L51.043 181.035L51.9734 180.349Z" fill="#FF7235"/>
<path d="M61.8569 162.739V188.504" stroke="#724342" stroke-width="4" stroke-linecap="round" stroke-linejoin="round"/>
<path d="M62.0239 188.504C62.0239 188.504 53.7099 193.534 40.8465 201.252" stroke="#30242A" stroke-width="4" stroke-linecap="round" stroke-linejoin="round"/>
<path d="M209.636 79.5342C210.802 83.8606 211.84 89.9535 210.961 96.2051" stroke="#30242A" stroke-width="4" stroke-miterlimit="10" stroke-linecap="round"/>
<path d="M200.55 75.667C201.677 79.0543 202.869 84.9029 202.166 93.59" stroke="#30242A" stroke-width="4" stroke-miterlimit="10" stroke-linecap="round"/>
<path d="M190.657 74.02C191.884 77.6175 193.526 83.2645 192.827 90.4766" stroke="#30242A" stroke-width="4" stroke-miterlimit="10" stroke-linecap="round"/>
<path d="M180.869 77.4805C180.869 77.4805 180.993 80.1389 181.203 83.0546" stroke="#30242A" stroke-width="4" stroke-miterlimit="10" stroke-linecap="round"/>
</svg>
