<svg width="681" height="283" viewBox="0 0 681 283" fill="none" xmlns="http://www.w3.org/2000/svg">
<path d="M339.277 -79.2717H331.035C299.89 -79.2641 270.023 -66.8586 248.002 -44.7835C225.982 -22.7084 213.611 7.22868 213.611 38.4438V263.014H456.766V38.4438C456.766 22.9822 453.726 7.67198 447.822 -6.61226C441.917 -20.8965 433.262 -33.8749 422.352 -44.8063C411.442 -55.7377 398.489 -64.4078 384.235 -70.3214C369.981 -76.2351 354.704 -79.2764 339.277 -79.2717Z" fill="#FFB7D5"/>
<path d="M291.041 127.832V266.51H398.936V127.832H291.041ZM288.181 124.966H401.795V269.376H288.181V124.966Z" fill="#CA7358"/>
<path d="M288.181 124.959H401.795V154.812H288.181V124.959Z" fill="#CA7358"/>
<path d="M402.403 52.8439V267.205H467.345V52.8439H402.403ZM399.544 49.9782H470.204V270.071H399.544V49.9782Z" fill="#CA7358"/>
<path d="M201.852 9.45017V266.51H287.574V9.45017H201.852ZM198.993 6.58447H290.433V269.376H198.993V6.58447Z" fill="#CA7358"/>
<path d="M253.262 41.6463H252.44C249.335 41.6463 246.356 42.8827 244.161 45.0834C241.965 47.2841 240.731 50.269 240.731 53.3813V79.8317H264.978V53.3813C264.978 51.8396 264.675 50.3131 264.086 48.8889C263.497 47.4646 262.634 46.1707 261.546 45.0809C260.458 43.9911 259.166 43.1268 257.745 42.5375C256.324 41.9482 254.8 41.6454 253.262 41.6463Z" fill="#CA7358"/>
<path d="M267.745 62.4727H237.958" stroke="#FFB7D5" stroke-width="4" stroke-linecap="round" stroke-linejoin="round"/>
<path d="M253.262 110.151H252.44C249.335 110.151 246.356 111.387 244.161 113.588C241.965 115.789 240.731 118.773 240.731 121.886V148.336H264.978V121.886C264.978 120.344 264.675 118.817 264.086 117.393C263.497 115.969 262.634 114.675 261.546 113.585C260.458 112.495 259.166 111.631 257.745 111.042C256.324 110.453 254.8 110.15 253.262 110.151Z" fill="#F5EBDD"/>
<path d="M267.745 130.977H237.958" stroke="#FFB7D5" stroke-width="4" stroke-linecap="round" stroke-linejoin="round"/>
<path d="M253.262 178.655H252.44C249.335 178.655 246.356 179.891 244.161 182.092C241.965 184.293 240.731 187.278 240.731 190.39V216.84H264.978V190.39C264.978 187.278 263.744 184.293 261.549 182.092C259.353 179.891 256.375 178.655 253.269 178.655H253.262Z" fill="#F5EBDD"/>
<path d="M267.745 199.482H237.958" stroke="#FFB7D5" stroke-width="4" stroke-linecap="round" stroke-linejoin="round"/>
<path d="M253.262 247.16H252.44C249.335 247.16 246.356 248.396 244.161 250.597C241.965 252.797 240.731 255.782 240.731 258.895V283.196H264.978V258.895C264.978 257.353 264.675 255.826 264.086 254.402C263.497 252.978 262.634 251.684 261.546 250.594C260.458 249.504 259.166 248.64 257.745 248.051C256.324 247.461 254.8 247.159 253.262 247.16Z" fill="#30242A"/>
<path d="M198.993 6.58447H290.433V18.0401H198.993V6.58447Z" fill="#CA7358"/>
<path d="M399.544 44.426H470.204V55.8817H399.544V44.426Z" fill="#CA7358"/>
<path d="M357.112 181.893H381.359V213.136H357.112V181.893Z" fill="#F5EBDD"/>
<path d="M384.132 195.778H354.338" stroke="#FFB7D5" stroke-width="4" stroke-linecap="round" stroke-linejoin="round"/>
<path d="M369.235 214.526V195.778" stroke="#FFB7D5" stroke-width="4" stroke-linecap="round" stroke-linejoin="round"/>
<path d="M357.112 238.319H381.359V269.562H357.112V238.319Z" fill="#CA7358"/>
<path d="M384.132 252.203H354.338" stroke="#FFB7D5" stroke-width="4" stroke-linecap="round" stroke-linejoin="round"/>
<path d="M369.235 270.952V252.203" stroke="#FFB7D5" stroke-width="4" stroke-linecap="round" stroke-linejoin="round"/>
<path d="M311.392 181.893H335.639V213.136H311.392V181.893Z" fill="#30242A"/>
<path d="M338.405 195.778H308.618" stroke="#FFB7D5" stroke-width="4" stroke-linecap="round" stroke-linejoin="round"/>
<path d="M323.515 214.526V195.778" stroke="#FFB7D5" stroke-width="4" stroke-linecap="round" stroke-linejoin="round"/>
<path d="M311.392 238.319H335.639V269.562H311.392V238.319Z" fill="#F5EBDD"/>
<path d="M338.405 252.203H308.618" stroke="#FFB7D5" stroke-width="4" stroke-linecap="round" stroke-linejoin="round"/>
<path d="M323.515 270.952V252.203" stroke="#FFB7D5" stroke-width="4" stroke-linecap="round" stroke-linejoin="round"/>
<path d="M385.691 5.54567C375.742 5.54567 367.677 -2.53734 367.677 -12.5082C367.677 -22.4791 375.742 -30.5621 385.691 -30.5621C395.639 -30.5621 403.704 -22.4791 403.704 -12.5082C403.704 -2.53734 395.639 5.54567 385.691 5.54567Z" fill="#F5EBDD"/>
<path d="M182.437 263.129H487.939V283.955H182.437V263.129Z" fill="#F5EBDD"/>
<path d="M330.363 -99.9907H339.992C415.949 -99.9907 477.524 -38.278 477.524 37.8492V283.955H192.802V37.8492C192.824 -38.278 254.406 -99.9907 330.363 -99.9907ZM345.575 263.128H456.766V89.5535H345.575V263.128ZM345.575 68.727H456.766V38.5585C456.765 8.42487 445.234 -20.5611 424.549 -42.4296C403.863 -64.2981 375.598 -77.384 345.575 -78.9923V68.727ZM213.611 263.128H324.795V89.5535H213.611V263.128ZM213.611 68.727H324.795V-78.9923C294.772 -77.384 266.508 -64.2978 245.823 -42.4291C225.139 -20.5604 213.61 8.42553 213.611 38.5585V68.727Z" fill="#F5EBDD"/>
<path d="M372.159 169.048C372.159 169.048 409.566 126.005 453.763 110.394" stroke="#30242A" stroke-width="4" stroke-linecap="round" stroke-linejoin="round"/>
<path d="M489.49 127.209C490.848 123.92 486.316 118.762 478.768 114.406C488.99 111.856 496.252 107.106 495.523 103.115C494.794 99.1249 486.33 97.2479 475.865 98.4801C481.37 91.7457 483.793 85.3122 481.362 82.7188C478.267 79.4017 468.446 83.5857 459.432 92.0323C451.569 99.4115 446.922 107.622 447.909 111.798C448.459 116.054 455.7 122.086 465.651 126.213C477.095 130.97 487.753 131.414 489.49 127.209Z" fill="#4756DF"/>
<path d="M447.537 125.167C440.328 125.167 434.484 119.31 434.484 112.085C434.484 104.86 440.328 99.0031 447.537 99.0031C454.746 99.0031 460.59 104.86 460.59 112.085C460.59 119.31 454.746 125.167 447.537 125.167Z" fill="#30242A"/>
<path d="M420.035 128.933C416.449 127.599 418.079 114.27 423.676 99.1618C429.273 84.054 436.718 72.8885 440.304 74.2231C443.89 75.5577 442.26 88.8868 436.663 103.995C431.066 119.102 423.622 130.268 420.035 128.933Z" fill="#30242A"/>
<path d="M420.674 131.557C420.674 131.557 415.127 146.832 417.901 162.801" stroke="#30242A" stroke-width="4" stroke-linecap="round" stroke-linejoin="round"/>
<path d="M521.829 70.7188C533.652 84.0514 546.219 86.9959 546.219 86.9959C554.346 78.1122 569.093 78.1123 571.345 90.6998C573.797 104.649 556.584 108.489 556.584 108.489C556.584 108.489 552.245 126.485 558.9 135.376C564.776 143.257 572.324 144.553 587.793 146.287C567.635 180.425 547.048 177.731 540.193 177.731C523.752 177.731 519.12 158.61 517.826 148.752C521.57 147.443 525.389 146.364 529.263 145.521L531.479 132.195C531.479 132.195 521.136 135.892 512.265 130.712C503.394 125.532 501.178 115.896 504.137 101.088C505.888 92.3118 505.824 81.4579 507.325 71.7576C513.18 72.7534 521.829 70.7188 521.829 70.7188Z" fill="#FFA185"/>
<path d="M398.851 145.098C401.989 132.51 426.557 125.683 426.557 125.683C426.557 125.683 425.085 97.4269 431.411 96.5243C436.257 95.8078 441.111 107.636 445.264 130.547C449.911 156.152 447.344 203.443 447.344 203.443C447.344 203.443 452.484 198.765 459.775 192.253C460.504 193.729 461.622 194.977 463.008 195.861C464.394 196.745 465.995 197.232 467.638 197.268C466.601 198.585 465.952 200.166 465.763 201.832C465.574 203.499 465.853 205.186 466.568 206.702C467.283 208.219 468.407 209.505 469.812 210.417C471.217 211.328 472.848 211.828 474.522 211.861C473.485 213.178 472.836 214.759 472.647 216.426C472.458 218.093 472.736 219.779 473.452 221.296C474.167 222.813 475.291 224.099 476.696 225.01C478.101 225.922 479.732 226.422 481.406 226.455C480.318 227.837 479.658 229.509 479.507 231.263C479.357 233.018 479.722 234.778 480.558 236.326C481.395 237.875 482.665 239.144 484.213 239.977C485.761 240.81 487.519 241.17 489.269 241.013C474.093 250.913 453.463 262.462 439.717 262.462C367.677 262.434 396.771 153.43 398.851 145.098Z" fill="#FFA185"/>
<path d="M480.362 235.861C479.647 234.345 479.368 232.659 479.556 230.992C479.745 229.326 480.392 227.744 481.427 226.426C479.753 226.393 478.122 225.893 476.717 224.982C475.312 224.07 474.188 222.784 473.473 221.267C472.758 219.751 472.479 218.064 472.668 216.397C472.857 214.73 473.506 213.15 474.543 211.833C472.87 211.8 471.238 211.3 469.833 210.388C468.428 209.477 467.305 208.19 466.589 206.674C465.874 205.157 465.595 203.471 465.784 201.804C465.973 200.137 466.623 198.556 467.659 197.239C466.017 197.203 464.415 196.716 463.029 195.832C461.643 194.948 460.525 193.7 459.796 192.224C472.363 181.005 491.313 164.37 501.399 156.897C506.281 153.279 512.5 150.6 517.84 148.752C519.098 158.638 523.702 177.731 540.143 177.731C546.969 177.731 567.585 180.425 587.743 146.287L594.219 147.004C616.522 149.489 626.672 161.518 632.648 175.89C636.344 184.781 639.303 201.072 639.303 201.072C641.596 216.008 642.776 231.095 642.834 246.207L613.834 273.108L535.975 275.036C529.742 265.822 518.305 248.807 514.53 242.281C509.684 233.949 508.991 227.007 508.991 227.007C508.991 227.007 500.67 233.526 489.269 240.97C487.441 241.13 485.609 240.727 484.017 239.814C482.425 238.901 481.149 237.522 480.362 235.861Z" fill="#487FFF"/>
<path d="M513.694 54.4201C522.558 43.3156 546.948 35.9078 566.162 49.9783C585.377 64.0489 583.897 87.0102 583.161 95.9011C583.161 95.9011 603.848 89.2312 618.63 104.785C622.908 109.231 626.024 114.669 627.7 120.613C629.376 126.557 629.561 132.825 628.237 138.858C628.237 138.858 655.458 138.091 660.755 163.302C663.764 177.631 658.146 187.166 651.912 193.07C648.257 196.508 643.986 199.223 639.324 201.072C639.324 201.072 636.365 184.781 632.669 175.89C626.693 161.518 616.543 149.49 594.24 147.004L587.764 146.287C572.295 144.553 564.747 143.235 558.871 135.376C552.223 126.485 556.584 108.489 556.584 108.489C556.584 108.489 573.818 104.649 571.366 90.7142C569.143 78.1266 554.368 78.1266 546.24 87.0102C546.24 87.0102 533.673 84.0514 521.85 70.7188C521.85 70.7188 513.201 72.7534 507.304 71.7576C508.311 65.0805 510.084 58.9551 513.694 54.4201Z" fill="#30242A"/>
<path d="M397.314 154.992C399.408 154.024 400.659 151.589 400.302 146.932C400.302 146.932 404.633 152.377 409.244 149.955C413.855 147.534 412.01 142.318 412.01 142.318C412.01 142.318 416.171 145.098 419.63 141.602C422.768 138.457 420.345 133.27 420.345 133.27C420.345 133.27 424.949 135.154 426.578 131.88C428.63 127.782 426.135 123.49 423.433 120.202" stroke="#30242A" stroke-width="8" stroke-linecap="round" stroke-linejoin="round"/>
<path d="M629.553 139.46C628.77 143.171 627.358 146.721 625.378 149.955" stroke="black" stroke-width="4" stroke-miterlimit="10" stroke-linecap="round"/>
<path d="M448.731 204.339L446.994 225.982" stroke="#30242A" stroke-width="4" stroke-linecap="round" stroke-linejoin="round"/>
<path d="M511.421 203.056C506.896 211.224 506.953 221.024 507.539 226.835" stroke="#30242A" stroke-width="4" stroke-linecap="round" stroke-linejoin="round"/>
<path d="M552.295 225.982L574.461 226.677" stroke="#30242A" stroke-width="4" stroke-linecap="round" stroke-linejoin="round"/>
<path d="M531.858 133.563C534.956 132.345 537.978 130.94 540.907 129.358" stroke="#30242A" stroke-width="4" stroke-linecap="round" stroke-linejoin="round"/>
<path d="M526.318 154.125L527.526 146.452" stroke="#30242A" stroke-width="4" stroke-linecap="round" stroke-linejoin="round"/>
<path d="M584.655 96.1804L583.118 108.99" stroke="black" stroke-width="4" stroke-miterlimit="10" stroke-linecap="round"/>
<path d="M511.421 111.426C512.986 112.443 518.176 112.78 520.664 108.245" stroke="#30242A" stroke-width="4" stroke-linecap="round" stroke-linejoin="round"/>
<path d="M552.988 96.8396L559.915 93.3721" stroke="#30242A" stroke-width="4" stroke-linecap="round" stroke-linejoin="round"/>
<path d="M521.007 93.766C522.115 95.2776 527.34 98.2078 531.272 94.8621" stroke="#30242A" stroke-width="4" stroke-linecap="round" stroke-linejoin="round"/>
<path d="M504.173 91.581C505 91.7573 505.854 91.7683 506.686 91.6134C507.517 91.4585 508.31 91.1407 509.019 90.6783" stroke="#30242A" stroke-width="4" stroke-linecap="round" stroke-linejoin="round"/>
<path d="M513.544 94.1601C512.751 95.9583 511.986 97.9428 512.15 98.7022C512.394 99.6258 512.943 100.439 513.708 101.009" stroke="#30242A" stroke-width="4" stroke-linecap="round" stroke-linejoin="round"/>
<path d="M556.784 105.229L566.241 114.17C566.753 114.654 567.133 115.261 567.344 115.934C567.555 116.607 567.59 117.322 567.447 118.013C567.304 118.703 566.986 119.346 566.525 119.878C566.063 120.411 565.473 120.816 564.811 121.055L553.631 125.031C552.967 125.266 552.253 125.327 551.559 125.207C550.864 125.087 550.212 124.79 549.665 124.345C549.117 123.9 548.693 123.321 548.433 122.665C548.172 122.009 548.084 121.296 548.177 120.596L549.9 107.7C550.001 106.951 550.305 106.243 550.78 105.655C551.254 105.067 551.881 104.622 552.592 104.367C553.302 104.111 554.069 104.057 554.808 104.209C555.548 104.361 556.231 104.714 556.784 105.229Z" fill="#F4E6D8"/>
<path d="M421.017 107.607C421.017 107.607 416.171 104.828 412.01 106.218C405.577 108.367 406.52 114.37 406.52 114.37C406.52 114.37 397.499 111.111 395.748 120.668C395.748 120.668 387.613 122.495 389.443 130.648C389.443 130.648 382.86 130.999 384.168 139.646C385.476 148.293 391.23 155.479 394.69 155.479C398.264 155.479 400.788 153.279 400.301 146.882C400.301 146.882 404.633 152.327 409.244 149.905C413.855 147.484 412.01 142.268 412.01 142.268C412.01 142.268 416.171 145.048 419.63 141.552C422.768 138.406 420.345 133.22 420.345 133.22C420.345 133.22 424.949 135.104 426.578 131.83C430.045 124.888 420.51 117.422 418.958 115.173L421.017 107.607Z" fill="#FFA185"/>
<path d="M423.076 135.748C418.315 131.371 410.209 123.111 406.363 114.442" stroke="#30242A" stroke-width="4" stroke-linecap="round" stroke-linejoin="round"/>
<path d="M414.333 145.743C406.422 139 399.964 130.711 395.355 121.384" stroke="#30242A" stroke-width="4" stroke-linecap="round" stroke-linejoin="round"/>
<path d="M402.089 150.886C399.944 148.264 392.446 138.843 388.729 131.385" stroke="#30242A" stroke-width="4" stroke-linecap="round" stroke-linejoin="round"/>
<path d="M403.433 310.341H523.409L496.138 223.99C495.332 221.448 493.739 219.229 491.59 217.655C489.441 216.081 486.848 215.234 484.186 215.236H382.803C380.833 215.235 378.891 215.699 377.133 216.592C375.376 217.484 373.854 218.779 372.69 220.372C371.525 221.964 370.752 223.81 370.433 225.758C370.113 227.706 370.256 229.702 370.851 231.584L393.404 302.99C394.081 305.123 395.418 306.985 397.221 308.306C399.024 309.627 401.199 310.34 403.433 310.341Z" fill="#F3F3F3"/>
<path d="M421.811 255.355C424.598 251.53 437.272 261.631 438.201 262.469C438.688 261.631 445.278 251.53 450.118 255.355C454.314 258.672 445.114 273.481 442.633 277.256C442.531 277.371 442.405 277.463 442.265 277.526C442.124 277.589 441.972 277.621 441.818 277.621C441.665 277.621 441.513 277.589 441.372 277.526C441.232 277.463 441.106 277.371 441.004 277.256C436.493 273.445 419.387 258.637 421.811 255.355Z" fill="#FFBE21"/>
<path d="M433.391 252.651C432.384 249.41 432.426 246.515 433.485 246.184C434.544 245.853 436.219 248.213 437.227 251.454C438.234 254.695 438.192 257.591 437.133 257.922C436.074 258.252 434.398 255.893 433.391 252.651Z" fill="#FFBE21"/>
<path d="M661.784 232.05C660.227 232.652 658.534 232.808 656.893 232.502C655.252 232.196 653.728 231.439 652.491 230.316C652.345 231.989 651.734 233.588 650.729 234.931C649.724 236.275 648.363 237.31 646.802 237.919C645.241 238.529 643.54 238.689 641.893 238.381C640.246 238.073 638.717 237.309 637.48 236.177C637.33 237.848 636.717 239.443 635.711 240.784C634.704 242.125 633.345 243.158 631.785 243.766C630.224 244.374 628.526 244.534 626.88 244.227C625.234 243.921 623.707 243.16 622.469 242.03C622.354 243.349 621.951 244.627 621.287 245.771C620.623 246.916 619.715 247.9 618.628 248.653C617.541 249.405 616.302 249.908 614.999 250.126C613.696 250.343 612.36 250.27 611.089 249.911L600.281 220.817C596.118 209.648 594.145 197.78 594.469 185.862L595.563 147.175C595.563 147.175 620.503 149.253 635.05 167.307C642.513 176.57 657.159 201.043 666.545 227.651C665.559 229.66 663.861 231.228 661.784 232.05Z" fill="#487FFF"/>
<path d="M616.758 249.624C618.323 249.019 619.689 247.988 620.699 246.646C621.71 245.303 622.325 243.705 622.476 242.03C623.714 243.16 625.242 243.921 626.887 244.227C628.533 244.534 630.232 244.374 631.792 243.766C633.352 243.158 634.712 242.125 635.718 240.784C636.724 239.443 637.337 237.848 637.488 236.177C638.725 237.309 640.253 238.073 641.9 238.381C643.548 238.689 645.248 238.529 646.809 237.919C648.371 237.31 649.731 236.275 650.736 234.931C651.742 233.588 652.352 231.989 652.499 230.316C653.528 231.256 654.76 231.943 656.099 232.323C657.438 232.704 658.847 232.768 660.215 232.511C661.583 232.253 662.872 231.68 663.982 230.839C665.091 229.997 665.991 228.908 666.61 227.658C674.744 250.72 678.933 275.394 671.056 293.154C654.1 331.404 603.212 317.942 591.203 314.403C579.194 310.864 555.862 298.821 540.314 300.948C524.767 303.076 507.104 310.864 504.273 300.948C504.273 300.948 494.759 300.705 497.754 291.635C497.754 291.635 492.972 291.04 492.264 287.501C490.834 280.416 507.811 274.047 507.811 274.047C507.811 274.047 494.38 276.196 491.556 273.33C487.982 269.748 491.456 263.967 513.394 258.637C537.491 252.791 569.293 256.33 616.643 264.826L611.103 249.903C612.968 250.428 614.953 250.33 616.758 249.624Z" fill="#FFA185"/>
<path d="M600.095 216.955L615.914 263.236" stroke="#30242A" stroke-width="4" stroke-linecap="round" stroke-linejoin="round"/>
<path d="M503.544 274.556C511.221 271.633 524.002 267.148 533.924 265.529" stroke="#30242A" stroke-width="4" stroke-linecap="round" stroke-linejoin="round"/>
<path d="M497.554 291.263C507.418 286.814 526.261 278.74 536.397 277.221" stroke="#30242A" stroke-width="4" stroke-linecap="round" stroke-linejoin="round"/>
<path d="M616.529 263.336C621.847 264.196 630.196 265.622 638.538 267.291" stroke="#30242A" stroke-width="4" stroke-linecap="round" stroke-linejoin="round"/>
<path d="M173.438 210.507C173.438 210.507 179.056 223.174 193.796 223.174C208.535 223.174 214.183 210.507 214.183 210.507C214.183 210.507 255.642 305.505 214.897 355.468H172.773C132.049 305.505 173.438 210.507 173.438 210.507Z" fill="#3EC1F3"/>
<path d="M193.832 223.174C179.092 223.174 173.474 210.507 173.474 210.507H214.219C214.219 210.507 208.579 223.174 193.832 223.174Z" fill="#30242A"/>
<path d="M230.331 271.833C214.948 268.072 185.818 264.49 157.583 271.224" stroke="#F5EBDD" stroke-width="4" stroke-linecap="round" stroke-linejoin="round"/>
<path d="M196.412 218.961C196.841 208.752 199.55 168.181 215.634 144.381" stroke="#30242A" stroke-width="4" stroke-miterlimit="10" stroke-linecap="round"/>
<path d="M199.764 187.764C197.708 184.271 208.607 174.009 224.109 164.843C239.61 155.677 253.844 151.078 255.9 154.571C257.956 158.064 247.057 168.326 231.555 177.492C216.054 186.658 201.82 191.257 199.764 187.764Z" fill="#30242A"/>
<path d="M205.784 86.5168C202.766 84.7922 204.317 76.3667 209.249 67.698C214.18 59.0292 220.625 53.3999 223.643 55.1245C226.661 56.8491 225.11 65.2746 220.178 73.9433C215.247 82.6121 208.802 88.2414 205.784 86.5168Z" fill="#30242A"/>
<path d="M258.874 123.268C257.251 119.651 249.617 119.385 240.338 122.158C246.057 111.906 247.808 102.37 244.027 99.913C240.245 97.4557 232.253 102.893 225.241 112.329C224.004 102.707 220.659 95.8509 216.663 95.8079C211.616 95.8079 207.485 106.963 207.435 120.761C207.404 124.707 207.754 128.646 208.478 132.525C210.679 131.515 213.096 131.072 215.511 131.236C217.926 131.4 220.261 132.167 222.305 133.466C224.349 134.765 226.037 136.555 227.215 138.674C228.393 140.793 229.024 143.174 229.051 145.599C232.752 144.69 236.361 143.438 239.831 141.86C252.433 136.207 260.939 127.889 258.874 123.268Z" fill="#4756DF"/>
<path d="M222.468 133.563C220.417 132.227 218.062 131.433 215.622 131.253C213.183 131.074 210.738 131.517 208.514 132.539C209.744 138.951 211.967 143.708 214.64 145.255C217.185 147.111 222.575 147.183 229.087 145.614C229.06 143.214 228.442 140.858 227.287 138.756C226.132 136.653 224.477 134.87 222.468 133.563Z" fill="#30242A"/>
<path d="M191.051 218.345C189.078 207.069 178.806 151.782 162.365 120.503" stroke="#30242A" stroke-width="4" stroke-miterlimit="10" stroke-linecap="round"/>
<path d="M106.872 197.122C105.69 193.464 121.482 185.059 142.146 178.35C162.81 171.64 180.52 169.168 181.703 172.826C182.886 176.485 167.093 184.89 146.429 191.599C125.765 198.308 108.055 200.781 106.872 197.122Z" fill="#30242A"/>
<path d="M165.46 72.037C161.515 71.6788 157.54 78.2197 155.403 87.6837C149.313 77.6537 141.864 71.4495 137.868 73.5486C133.872 75.6478 134.687 85.2908 139.455 96.0443C130.477 92.4121 122.85 91.9535 120.87 95.4067C118.382 99.8055 126.066 108.897 138.025 115.703C141.436 117.662 145.027 119.289 148.748 120.56C148.952 118.146 149.753 115.82 151.08 113.795C152.407 111.769 154.217 110.107 156.347 108.96C158.476 107.812 160.857 107.215 163.275 107.223C165.693 107.231 168.071 107.843 170.193 109.004C171.214 105.323 171.896 101.556 172.23 97.7494C173.552 84.0084 170.486 72.4955 165.46 72.037Z" fill="#4756DF"/>
<path d="M156.546 108.875C154.379 110.012 152.532 111.679 151.179 113.722C149.826 115.765 149.009 118.117 148.805 120.56C154.988 122.631 160.242 123.025 162.873 121.449C165.732 120.138 168.441 115.459 170.271 109.004C168.172 107.85 165.82 107.233 163.425 107.211C161.03 107.188 158.667 107.76 156.546 108.875Z" fill="#30242A"/>
<path d="M122.842 137.625V137.683C126.204 139.072 128.924 141.674 130.467 144.974C132.009 148.275 132.261 152.035 131.174 155.513C130.086 158.99 127.738 161.934 124.592 163.761C121.446 165.589 117.73 166.169 114.178 165.387V165.444C133.014 171.355 150.227 169.922 152.629 162.235C155.031 154.547 141.678 143.536 122.842 137.625Z" fill="#4756DF"/>
<path d="M127.325 161.719C125.673 161.055 124.332 159.791 123.571 158.179C122.81 156.566 122.685 154.725 123.221 153.025C123.757 151.324 124.915 149.889 126.462 149.008C128.009 148.126 129.831 147.863 131.563 148.271C131.089 145.923 130.043 143.728 128.519 141.881C126.996 140.034 125.041 138.592 122.828 137.683L114.165 165.387C116.49 165.902 118.906 165.837 121.201 165.197C123.495 164.558 125.598 163.363 127.325 161.719Z" fill="#FFB7D5"/>
<path d="M123.25 153.05C122.719 154.744 122.844 156.576 123.599 158.182C124.354 159.788 125.684 161.05 127.324 161.719C129.109 160.02 130.434 157.895 131.175 155.543C131.917 153.191 132.05 150.689 131.563 148.272C129.832 147.874 128.015 148.146 126.474 149.031C124.934 149.917 123.782 151.352 123.25 153.05Z" fill="#30242A"/>
</svg>
