<svg width="1380" height="283" viewBox="0 0 1380 283" fill="none" xmlns="http://www.w3.org/2000/svg">
<g clip-path="url(#clip0_721_2797)">
<rect width="1380" height="283" rx="40" fill="#1E1E1E"/>
<g opacity="0.8">
<mask id="mask0_721_2797" style="mask-type:alpha" maskUnits="userSpaceOnUse" x="-783" y="-11" width="2438" height="56">
<path d="M1393.01 35.67L1374.12 16.7565C1376.57 14.3904 1379.45 12.5048 1382.59 11.199C1385.89 9.82947 1389.43 9.12458 1393.01 9.12458C1396.58 9.12458 1400.12 9.82946 1403.42 11.199C1406.57 12.5048 1409.44 14.3904 1411.89 16.7565L1393.01 35.67ZM1373.06 17.1066L1392.3 36.3744C1388.55 39.9948 1383.84 42.4637 1378.72 43.4827C1373.44 44.5342 1367.97 43.9946 1363 41.9319C1358.03 39.8693 1353.78 36.3763 1350.79 31.8946C1347.8 27.4128 1346.2 22.1436 1346.2 16.7533C1346.2 11.363 1347.8 6.09376 1350.79 1.612C1353.78 -2.86976 1358.03 -6.36273 1363 -8.42536C1367.97 -10.488 1373.44 -11.0276 1378.72 -9.97614C1383.84 -8.95714 1388.55 -6.48818 1392.3 -2.86785L1373.06 16.4L1372.71 16.7533L1373.06 17.1066ZM1463.9 17.1066L1464.25 16.7533L1463.9 16.4L1444.66 -2.86783C1448.41 -6.48817 1453.12 -8.95715 1458.24 -9.97614C1463.51 -11.0277 1468.99 -10.488 1473.96 -8.42537C1478.93 -6.36274 1483.18 -2.86977 1486.17 1.61199C1489.16 6.09375 1490.75 11.363 1490.75 16.7533C1490.75 22.1436 1489.16 27.4128 1486.17 31.8946C1483.18 36.3763 1478.93 39.8693 1473.96 41.9319C1468.99 43.9945 1463.51 44.5342 1458.24 43.4827C1453.12 42.4637 1448.41 39.9948 1444.66 36.3744L1463.9 17.1066ZM1443.95 -2.16341L1462.83 16.7501C1460.38 19.1162 1457.51 21.0018 1454.36 22.3076C1451.06 23.6771 1447.52 24.382 1443.95 24.382C1440.38 24.382 1436.84 23.6771 1433.54 22.3076C1430.39 21.0018 1427.52 19.1162 1425.07 16.7501L1443.95 -2.16341Z" stroke="#487FFF"/>
<path d="M1229.26 35.67L1210.37 16.7565C1212.83 14.3904 1215.7 12.5048 1218.85 11.199C1222.15 9.82947 1225.69 9.12458 1229.26 9.12458C1232.83 9.12458 1236.37 9.82946 1239.67 11.199C1242.82 12.5048 1245.69 14.3904 1248.14 16.7565L1229.26 35.67ZM1209.31 17.1066L1228.55 36.3744C1224.8 39.9948 1220.09 42.4637 1214.97 43.4827C1209.7 44.5342 1204.22 43.9946 1199.25 41.9319C1194.28 39.8693 1190.03 36.3763 1187.04 31.8946C1184.05 27.4128 1182.46 22.1436 1182.46 16.7533C1182.46 11.363 1184.05 6.09376 1187.04 1.612C1190.03 -2.86976 1194.28 -6.36273 1199.25 -8.42536C1204.22 -10.488 1209.7 -11.0276 1214.97 -9.97614C1220.09 -8.95714 1224.8 -6.48818 1228.55 -2.86785L1209.31 16.4L1208.96 16.7533L1209.31 17.1066ZM1300.15 17.1066L1300.5 16.7533L1300.15 16.4L1280.91 -2.86783C1284.66 -6.48817 1289.37 -8.95715 1294.49 -9.97614C1299.77 -11.0277 1305.24 -10.488 1310.21 -8.42537C1315.18 -6.36274 1319.43 -2.86977 1322.42 1.61199C1325.41 6.09375 1327.01 11.363 1327.01 16.7533C1327.01 22.1436 1325.41 27.4128 1322.42 31.8946C1319.43 36.3763 1315.18 39.8693 1310.21 41.9319C1305.24 43.9945 1299.77 44.5342 1294.49 43.4827C1289.37 42.4637 1284.66 39.9948 1280.91 36.3744L1300.15 17.1066ZM1280.2 -2.16341L1299.09 16.7501C1296.64 19.1162 1293.76 21.0018 1290.62 22.3076C1287.31 23.6771 1283.78 24.382 1280.2 24.382C1276.63 24.382 1273.09 23.6771 1269.79 22.3076C1266.64 21.0018 1263.77 19.1162 1261.32 16.7501L1280.2 -2.16341Z" stroke="#487FFF"/>
<path d="M1065.51 35.67L1046.63 16.7565C1049.08 14.3904 1051.95 12.5048 1055.1 11.199C1058.4 9.82947 1061.94 9.12458 1065.51 9.12458C1069.09 9.12458 1072.62 9.82946 1075.93 11.199C1079.07 12.5048 1081.95 14.3904 1084.4 16.7565L1065.51 35.67ZM1045.56 17.1066L1064.8 36.3744C1061.05 39.9948 1056.34 42.4637 1051.23 43.4827C1045.95 44.5342 1040.48 43.9946 1035.51 41.9319C1030.53 39.8693 1026.28 36.3763 1023.29 31.8946C1020.3 27.4128 1018.71 22.1436 1018.71 16.7533C1018.71 11.363 1020.3 6.09376 1023.29 1.612C1026.28 -2.86976 1030.53 -6.36273 1035.51 -8.42536C1040.48 -10.488 1045.95 -11.0276 1051.23 -9.97614C1056.34 -8.95714 1061.05 -6.48818 1064.8 -2.86785L1045.56 16.4L1045.21 16.7533L1045.56 17.1066ZM1136.4 17.1066L1136.76 16.7533L1136.4 16.4L1117.17 -2.86783C1120.92 -6.48817 1125.63 -8.95715 1130.74 -9.97614C1136.02 -11.0277 1141.49 -10.488 1146.46 -8.42537C1151.44 -6.36274 1155.69 -2.86977 1158.68 1.61199C1161.67 6.09375 1163.26 11.363 1163.26 16.7533C1163.26 22.1436 1161.67 27.4128 1158.68 31.8946C1155.69 36.3763 1151.44 39.8693 1146.46 41.9319C1141.49 43.9945 1136.02 44.5342 1130.74 43.4827C1125.63 42.4637 1120.92 39.9948 1117.17 36.3744L1136.4 17.1066ZM1116.46 -2.16341L1135.34 16.7501C1132.89 19.1162 1130.02 21.0018 1126.87 22.3076C1123.57 23.6771 1120.03 24.382 1116.46 24.382C1112.88 24.382 1109.35 23.6771 1106.04 22.3076C1102.9 21.0018 1100.02 19.1162 1097.57 16.7501L1116.46 -2.16341Z" stroke="#487FFF"/>
<path d="M901.766 35.67L882.882 16.7565C885.333 14.3904 888.206 12.5048 891.354 11.199C894.655 9.82947 898.193 9.12458 901.766 9.12458C905.34 9.12458 908.878 9.82946 912.179 11.199C915.326 12.5048 918.2 14.3904 920.651 16.7565L901.766 35.67ZM881.819 17.1066L901.057 36.3744C897.307 39.9948 892.596 42.4637 887.481 43.4827C882.203 44.5342 876.732 43.9946 871.76 41.9319C866.788 39.8693 862.538 36.3763 859.548 31.8946C856.558 27.4128 854.962 22.1436 854.962 16.7533C854.962 11.363 856.558 6.09376 859.548 1.612C862.538 -2.86976 866.788 -6.36273 871.76 -8.42536C876.732 -10.488 882.203 -11.0276 887.481 -9.97614C892.596 -8.95714 897.307 -6.48818 901.057 -2.86785L881.819 16.4L881.466 16.7533L881.819 17.1066ZM972.658 17.1066L973.011 16.7533L972.658 16.4L953.42 -2.86783C957.17 -6.48817 961.881 -8.95715 966.996 -9.97614C972.274 -11.0277 977.745 -10.488 982.717 -8.42537C987.689 -6.36274 991.939 -2.86977 994.929 1.61199C997.919 6.09375 999.515 11.363 999.515 16.7533C999.515 22.1436 997.919 27.4128 994.929 31.8946C991.939 36.3763 987.689 39.8693 982.717 41.9319C977.745 43.9945 972.274 44.5342 966.996 43.4827C961.881 42.4637 957.17 39.9948 953.42 36.3744L972.658 17.1066ZM952.711 -2.16341L971.595 16.7501C969.144 19.1162 966.271 21.0018 963.123 22.3076C959.822 23.6771 956.284 24.382 952.711 24.382C949.137 24.382 945.599 23.6771 942.298 22.3076C939.151 21.0018 936.277 19.1162 933.826 16.7501L952.711 -2.16341Z" stroke="#487FFF"/>
<path d="M738.02 35.67L719.136 16.7565C721.586 14.3904 724.46 12.5048 727.607 11.199C730.908 9.82947 734.447 9.12458 738.02 9.12458C741.593 9.12458 745.131 9.82946 748.432 11.199C751.58 12.5048 754.453 14.3904 756.904 16.7565L738.02 35.67ZM718.072 17.1066L737.31 36.3744C733.56 39.9948 728.849 42.4637 723.734 43.4827C718.456 44.5342 712.985 43.9946 708.013 41.9319C703.041 39.8693 698.792 36.3763 695.802 31.8946C692.812 27.4128 691.216 22.1436 691.216 16.7533C691.216 11.363 692.812 6.09376 695.802 1.612C698.792 -2.86976 703.041 -6.36273 708.013 -8.42536C712.985 -10.488 718.456 -11.0276 723.734 -9.97614C728.849 -8.95714 733.56 -6.48818 737.31 -2.86785L718.072 16.4L717.719 16.7533L718.072 17.1066ZM808.912 17.1066L809.265 16.7533L808.912 16.4L789.674 -2.86783C793.424 -6.48817 798.135 -8.95715 803.25 -9.97614C808.528 -11.0277 813.999 -10.488 818.971 -8.42537C823.942 -6.36274 828.192 -2.86977 831.182 1.61199C834.172 6.09375 835.768 11.363 835.768 16.7533C835.768 22.1436 834.172 27.4128 831.182 31.8946C828.192 36.3763 823.942 39.8693 818.971 41.9319C813.999 43.9945 808.528 44.5342 803.25 43.4827C798.135 42.4637 793.424 39.9948 789.674 36.3744L808.912 17.1066ZM788.964 -2.16341L807.848 16.7501C805.398 19.1162 802.524 21.0018 799.377 22.3076C796.075 23.6771 792.537 24.382 788.964 24.382C785.391 24.382 781.853 23.6771 778.551 22.3076C775.404 21.0018 772.531 19.1162 770.08 16.7501L788.964 -2.16341Z" stroke="#487FFF"/>
<path d="M574.274 35.67L555.39 16.7565C557.84 14.3904 560.714 12.5048 563.861 11.199C567.162 9.82947 570.701 9.12458 574.274 9.12458C577.847 9.12458 581.385 9.82946 584.686 11.199C587.834 12.5048 590.707 14.3904 593.158 16.7565L574.274 35.67ZM554.326 17.1066L573.564 36.3744C569.814 39.9948 565.103 42.4637 559.988 43.4827C554.71 44.5342 549.239 43.9946 544.267 41.9319C539.295 39.8693 535.046 36.3763 532.056 31.8946C529.066 27.4128 527.47 22.1436 527.47 16.7533C527.47 11.363 529.066 6.09376 532.056 1.612C535.046 -2.86976 539.295 -6.36273 544.267 -8.42536C549.239 -10.488 554.71 -11.0276 559.988 -9.97614C565.103 -8.95714 569.814 -6.48818 573.564 -2.86785L554.326 16.4L553.973 16.7533L554.326 17.1066ZM645.166 17.1066L645.519 16.7533L645.166 16.4L625.928 -2.86783C629.677 -6.48817 634.389 -8.95715 639.504 -9.97614C644.782 -11.0277 650.253 -10.488 655.224 -8.42537C660.196 -6.36274 664.446 -2.86977 667.436 1.61199C670.426 6.09375 672.022 11.363 672.022 16.7533C672.022 22.1436 670.426 27.4128 667.436 31.8946C664.446 36.3763 660.196 39.8693 655.225 41.9319C650.253 43.9945 644.782 44.5342 639.504 43.4827C634.389 42.4637 629.677 39.9948 625.928 36.3744L645.166 17.1066ZM625.218 -2.16341L644.102 16.7501C641.651 19.1162 638.778 21.0018 635.631 22.3076C632.329 23.6771 628.791 24.382 625.218 24.382C621.645 24.382 618.107 23.6771 614.805 22.3076C611.658 21.0018 608.785 19.1162 606.334 16.7501L625.218 -2.16341Z" stroke="#487FFF"/>
<path d="M410.527 35.67L391.643 16.7565C394.094 14.3904 396.967 12.5048 400.115 11.199C403.416 9.82947 406.954 9.12458 410.527 9.12458C414.1 9.12458 417.638 9.82946 420.94 11.199C424.087 12.5048 426.961 14.3904 429.411 16.7565L410.527 35.67ZM390.579 17.1066L409.817 36.3744C406.068 39.9948 401.356 42.4637 396.241 43.4827C390.963 44.5342 385.492 43.9946 380.521 41.9319C375.549 39.8693 371.299 36.3763 368.309 31.8946C365.319 27.4128 363.723 22.1436 363.723 16.7533C363.723 11.363 365.319 6.09376 368.309 1.612C371.299 -2.86976 375.549 -6.36273 380.521 -8.42536C385.492 -10.488 390.963 -11.0276 396.241 -9.97614C401.356 -8.95714 406.068 -6.48818 409.817 -2.86785L390.579 16.4L390.227 16.7533L390.579 17.1066ZM481.419 17.1066L481.772 16.7533L481.419 16.4L462.181 -2.86783C465.931 -6.48817 470.642 -8.95715 475.757 -9.97614C481.035 -11.0277 486.506 -10.488 491.478 -8.42537C496.45 -6.36274 500.699 -2.86977 503.689 1.61199C506.679 6.09375 508.275 11.363 508.275 16.7533C508.275 22.1436 506.679 27.4128 503.689 31.8946C500.699 36.3763 496.45 39.8693 491.478 41.9319C486.506 43.9945 481.035 44.5342 475.757 43.4827C470.642 42.4637 465.931 39.9948 462.181 36.3744L481.419 17.1066ZM461.471 -2.16341L480.356 16.7501C477.905 19.1162 475.032 21.0018 471.884 22.3076C468.583 23.6771 465.045 24.382 461.471 24.382C457.898 24.382 454.36 23.6771 451.059 22.3076C447.911 21.0018 445.038 19.1162 442.587 16.7501L461.471 -2.16341Z" stroke="#487FFF"/>
<path d="M246.782 35.67L227.897 16.7565C230.348 14.3904 233.221 12.5048 236.369 11.199C239.67 9.82947 243.208 9.12458 246.781 9.12458C250.355 9.12458 253.893 9.82946 257.194 11.199C260.342 12.5048 263.215 14.3904 265.666 16.7565L246.782 35.67ZM226.834 17.1066L246.072 36.3744C242.322 39.9948 237.611 42.4637 232.496 43.4827C227.218 44.5342 221.747 43.9946 216.775 41.9319C211.803 39.8693 207.553 36.3763 204.563 31.8946C201.573 27.4128 199.977 22.1436 199.977 16.7533C199.977 11.363 201.573 6.09376 204.563 1.612C207.553 -2.86976 211.803 -6.36273 216.775 -8.42536C221.747 -10.488 227.218 -11.0276 232.496 -9.97614C237.611 -8.95714 242.322 -6.48818 246.072 -2.86785L226.834 16.4L226.481 16.7533L226.834 17.1066ZM317.674 17.1066L318.026 16.7533L317.674 16.4L298.436 -2.86783C302.185 -6.48817 306.897 -8.95715 312.011 -9.97614C317.29 -11.0277 322.76 -10.488 327.732 -8.42537C332.704 -6.36274 336.954 -2.86977 339.944 1.61199C342.934 6.09375 344.53 11.363 344.53 16.7533C344.53 22.1436 342.934 27.4128 339.944 31.8946C336.954 36.3763 332.704 39.8693 327.732 41.9319C322.76 43.9945 317.29 44.5342 312.011 43.4827C306.897 42.4637 302.185 39.9948 298.436 36.3744L317.674 17.1066ZM297.726 -2.16341L316.61 16.7501C314.159 19.1162 311.286 21.0018 308.138 22.3076C304.837 23.6771 301.299 24.382 297.726 24.382C294.153 24.382 290.614 23.6771 287.313 22.3076C284.166 21.0018 281.292 19.1162 278.842 16.7501L297.726 -2.16341Z" stroke="#487FFF"/>
<path d="M83.0349 35.67L64.1508 16.7565C66.6015 14.3904 69.4748 12.5048 72.6223 11.199C75.9235 9.82947 79.4617 9.12458 83.0349 9.12458C86.6081 9.12458 90.1463 9.82946 93.4475 11.199C96.595 12.5048 99.4684 14.3904 101.919 16.7565L83.0349 35.67ZM63.0871 17.1066L82.3251 36.3744C78.5754 39.9948 73.8641 42.4637 68.7492 43.4827C63.4711 44.5342 58.0003 43.9946 53.0284 41.9319C48.0565 39.8693 43.8068 36.3763 40.8168 31.8946C37.8269 27.4128 36.2309 22.1436 36.2309 16.7533C36.2309 11.363 37.8269 6.09376 40.8168 1.612C43.8068 -2.86976 48.0565 -6.36273 53.0284 -8.42536C58.0003 -10.488 63.4712 -11.0276 68.7492 -9.97614C73.8641 -8.95714 78.5754 -6.48818 82.3251 -2.86785L63.0871 16.4L62.7344 16.7533L63.0871 17.1066ZM153.927 17.1066L154.28 16.7533L153.927 16.4L134.689 -2.86783C138.439 -6.48817 143.15 -8.95715 148.265 -9.97614C153.543 -11.0277 159.014 -10.488 163.986 -8.42537C168.958 -6.36274 173.207 -2.86977 176.197 1.61199C179.187 6.09375 180.783 11.363 180.783 16.7533C180.783 22.1436 179.187 27.4128 176.197 31.8946C173.207 36.3763 168.958 39.8693 163.986 41.9319C159.014 43.9945 153.543 44.5342 148.265 43.4827C143.15 42.4637 138.439 39.9948 134.689 36.3744L153.927 17.1066ZM133.979 -2.16341L152.863 16.7501C150.413 19.1162 147.539 21.0018 144.392 22.3076C141.091 23.6771 137.552 24.382 133.979 24.382C130.406 24.382 126.868 23.6771 123.567 22.3076C120.419 21.0018 117.546 19.1162 115.095 16.7501L133.979 -2.16341Z" stroke="#487FFF"/>
<path d="M-80.7112 35.67L-99.5953 16.7565C-97.1446 14.3904 -94.2713 12.5048 -91.1238 11.199C-87.8226 9.82947 -84.2844 9.12458 -80.7112 9.12458C-77.138 9.12458 -73.5998 9.82946 -70.2986 11.199C-67.1511 12.5048 -64.2777 14.3904 -61.827 16.7565L-80.7112 35.67ZM-100.659 17.1066L-81.421 36.3744C-85.1707 39.9948 -89.882 42.4637 -94.9969 43.4827C-100.275 44.5342 -105.746 43.9946 -110.718 41.9319C-115.69 39.8693 -119.939 36.3763 -122.929 31.8946C-125.919 27.4128 -127.515 22.1436 -127.515 16.7533C-127.515 11.363 -125.919 6.09376 -122.929 1.612C-119.939 -2.86976 -115.69 -6.36273 -110.718 -8.42536C-105.746 -10.488 -100.275 -11.0276 -94.9969 -9.97614C-89.882 -8.95714 -85.1707 -6.48818 -81.421 -2.86785L-100.659 16.4L-101.012 16.7533L-100.659 17.1066ZM-9.8191 17.1066L-9.46636 16.7533L-9.8191 16.4L-29.0571 -2.86783C-25.3074 -6.48817 -20.5961 -8.95715 -15.4812 -9.97614C-10.2031 -11.0277 -4.73226 -10.488 0.239633 -8.42537C5.21153 -6.36274 9.46121 -2.86977 12.4512 1.61199C15.4412 6.09375 17.0371 11.363 17.0371 16.7533C17.0371 22.1436 15.4412 27.4128 12.4512 31.8946C9.46122 36.3763 5.21154 39.8693 0.239637 41.9319C-4.73226 43.9945 -10.2031 44.5342 -15.4812 43.4827C-20.5961 42.4637 -25.3074 39.9948 -29.0571 36.3744L-9.8191 17.1066ZM-29.7669 -2.16341L-10.8827 16.7501C-13.3334 19.1162 -16.2068 21.0018 -19.3543 22.3076C-22.6555 23.6771 -26.1937 24.382 -29.7669 24.382C-33.3401 24.382 -36.8783 23.6771 -40.1795 22.3076C-43.327 21.0018 -46.2004 19.1162 -48.6511 16.7501L-29.7669 -2.16341Z" stroke="#487FFF"/>
</mask>
<g mask="url(#mask0_721_2797)">
<rect x="-783" y="-53.6965" width="2438" height="149.44" fill="url(#paint0_linear_721_2797)"/>
</g>
</g>
<path d="M94.222 180C93.778 180 93.442 179.946 93.214 179.838C92.998 179.718 92.842 179.508 92.746 179.208C92.65 178.908 92.602 178.452 92.602 177.84V168.12H94.222V177.84C94.222 178.452 94.306 178.908 94.474 179.208C94.642 179.496 94.978 179.64 95.482 179.64H95.842V180H94.222ZM102.433 173.61C102.157 172.938 101.881 172.47 101.605 172.206C101.341 171.93 100.987 171.78 100.543 171.756V171.396C100.603 171.396 100.693 171.39 100.813 171.378C100.933 171.366 101.053 171.36 101.173 171.36C101.821 171.36 102.391 171.528 102.883 171.864C103.387 172.188 103.807 172.77 104.143 173.61L105.673 177.39L107.203 173.52C106.915 172.884 106.639 172.44 106.375 172.188C106.123 171.924 105.799 171.78 105.403 171.756V171.396C105.463 171.396 105.553 171.39 105.673 171.378C105.793 171.366 105.913 171.36 106.033 171.36C106.681 171.36 107.251 171.528 107.743 171.864C108.247 172.188 108.667 172.77 109.003 173.61L110.533 177.39L112.873 171.54H113.773L110.263 180.18H109.903L107.653 174.6L105.403 180.18H105.043L102.433 173.61ZM118.762 180.18C117.946 180.18 117.238 179.988 116.638 179.604C116.038 179.208 115.582 178.674 115.27 178.002C114.958 177.33 114.802 176.586 114.802 175.77C114.802 174.954 114.958 174.21 115.27 173.538C115.582 172.866 116.038 172.338 116.638 171.954C117.238 171.558 117.946 171.36 118.762 171.36C119.578 171.36 120.286 171.558 120.886 171.954C121.486 172.338 121.942 172.866 122.254 173.538C122.566 174.21 122.722 174.954 122.722 175.77C122.722 176.586 122.566 177.33 122.254 178.002C121.942 178.674 121.486 179.208 120.886 179.604C120.286 179.988 119.578 180.18 118.762 180.18ZM118.762 179.46C119.206 179.46 119.596 179.298 119.932 178.974C120.28 178.65 120.544 178.206 120.724 177.642C120.916 177.078 121.012 176.454 121.012 175.77C121.012 175.086 120.916 174.462 120.724 173.898C120.544 173.334 120.28 172.89 119.932 172.566C119.596 172.242 119.206 172.08 118.762 172.08C118.318 172.08 117.922 172.242 117.574 172.566C117.238 172.89 116.974 173.334 116.782 173.898C116.602 174.462 116.512 175.086 116.512 175.77C116.512 176.454 116.602 177.078 116.782 177.642C116.974 178.206 117.238 178.65 117.574 178.974C117.922 179.298 118.318 179.46 118.762 179.46ZM127.911 180.18C127.011 180.18 126.273 179.94 125.697 179.46C125.133 178.98 124.851 178.14 124.851 176.94V173.7C124.851 173.088 124.767 172.638 124.599 172.35C124.431 172.05 124.095 171.9 123.591 171.9H123.411V171.54H124.851C125.295 171.54 125.625 171.6 125.841 171.72C126.069 171.828 126.231 172.032 126.327 172.332C126.423 172.632 126.471 173.088 126.471 173.7V176.94C126.471 177.78 126.657 178.398 127.029 178.794C127.413 179.178 127.887 179.37 128.451 179.37C129.087 179.37 129.687 179.052 130.251 178.416V171.54H131.871V180H130.971L130.341 179.28H130.251C129.999 179.532 129.669 179.748 129.261 179.928C128.865 180.096 128.415 180.18 127.911 180.18ZM134.538 170.28C134.538 169.668 134.454 169.218 134.286 168.93C134.118 168.63 133.782 168.48 133.278 168.48H132.918V168.12H134.538C134.982 168.12 135.312 168.18 135.528 168.3C135.756 168.408 135.918 168.612 136.014 168.912C136.11 169.212 136.158 169.668 136.158 170.28V180H134.538V170.28ZM141.615 180.18C140.571 180.18 139.767 179.766 139.203 178.938C138.651 178.11 138.375 177.054 138.375 175.77C138.375 174.486 138.663 173.43 139.239 172.602C139.827 171.774 140.679 171.36 141.795 171.36C142.251 171.36 142.653 171.408 143.001 171.504C143.349 171.6 143.697 171.732 144.045 171.9V170.28C144.045 169.668 143.961 169.218 143.793 168.93C143.625 168.63 143.289 168.48 142.785 168.48H142.425V168.12H144.045C144.489 168.12 144.819 168.18 145.035 168.3C145.263 168.408 145.425 168.612 145.521 168.912C145.617 169.212 145.665 169.668 145.665 170.28V180H144.765L144.135 179.19H144.045C143.781 179.49 143.469 179.73 143.109 179.91C142.761 180.09 142.263 180.18 141.615 180.18ZM142.155 179.46C142.647 179.46 143.019 179.37 143.271 179.19C143.523 179.01 143.781 178.74 144.045 178.38V172.62C143.685 172.452 143.373 172.32 143.109 172.224C142.845 172.128 142.587 172.08 142.335 172.08C141.567 172.08 140.997 172.416 140.625 173.088C140.265 173.76 140.085 174.654 140.085 175.77C140.085 176.874 140.259 177.768 140.607 178.452C140.955 179.124 141.471 179.46 142.155 179.46ZM152.837 170.28C152.837 169.668 152.753 169.218 152.585 168.93C152.417 168.63 152.081 168.48 151.577 168.48H151.217V168.12H152.837C153.281 168.12 153.611 168.18 153.827 168.3C154.055 168.408 154.217 168.612 154.313 168.912C154.409 169.212 154.457 169.668 154.457 170.28V180H152.837V170.28ZM158.078 170.46C157.802 170.46 157.562 170.346 157.358 170.118C157.166 169.89 157.07 169.62 157.07 169.308C157.07 169.056 157.142 168.858 157.286 168.714C157.442 168.57 157.646 168.498 157.898 168.498C158.174 168.498 158.408 168.612 158.6 168.84C158.804 169.068 158.906 169.338 158.906 169.65C158.906 169.902 158.828 170.1 158.672 170.244C158.528 170.388 158.33 170.46 158.078 170.46ZM157.394 173.7C157.394 173.088 157.31 172.638 157.142 172.35C156.974 172.05 156.638 171.9 156.134 171.9H155.774V171.54H157.394C157.838 171.54 158.168 171.6 158.384 171.72C158.612 171.828 158.774 172.032 158.87 172.332C158.966 172.632 159.014 173.088 159.014 173.7V180H157.394V173.7ZM168.137 180.18C167.117 180.18 166.247 179.7 165.527 178.74L163.367 175.86V180H161.747V170.28C161.747 169.668 161.663 169.218 161.495 168.93C161.327 168.63 160.991 168.48 160.487 168.48H160.127V168.12H161.747C162.191 168.12 162.521 168.18 162.737 168.3C162.965 168.408 163.127 168.612 163.223 168.912C163.319 169.212 163.367 169.668 163.367 170.28V175.59L165.617 172.71C165.929 172.326 166.259 172.038 166.607 171.846C166.955 171.642 167.405 171.54 167.957 171.54H168.497V171.99C168.173 171.99 167.861 172.056 167.561 172.188C167.261 172.32 167.003 172.524 166.787 172.8L164.807 175.32L167.057 178.2C167.405 178.656 167.729 178.998 168.029 179.226C168.341 179.454 168.677 179.598 169.037 179.658V180C168.773 180.12 168.473 180.18 168.137 180.18ZM173.127 180.18C172.311 180.18 171.621 179.988 171.057 179.604C170.493 179.208 170.067 178.68 169.779 178.02C169.491 177.348 169.347 176.598 169.347 175.77C169.347 174.954 169.491 174.21 169.779 173.538C170.067 172.866 170.481 172.338 171.021 171.954C171.573 171.558 172.215 171.36 172.947 171.36C174.159 171.36 175.059 171.702 175.647 172.386C176.247 173.058 176.547 174.036 176.547 175.32L176.511 176.04H171.057C171.057 177.048 171.273 177.87 171.705 178.506C172.137 179.142 172.731 179.46 173.487 179.46C174.051 179.46 174.525 179.34 174.909 179.1C175.305 178.86 175.671 178.5 176.007 178.02L176.367 178.29C175.971 178.95 175.509 179.43 174.981 179.73C174.453 180.03 173.835 180.18 173.127 180.18ZM174.837 175.32C174.837 174.264 174.681 173.46 174.369 172.908C174.057 172.356 173.583 172.08 172.947 172.08C172.587 172.08 172.263 172.224 171.975 172.512C171.687 172.788 171.459 173.172 171.291 173.664C171.135 174.156 171.057 174.708 171.057 175.32H174.837ZM185.624 180.18C184.952 180.18 184.424 179.988 184.04 179.604C183.656 179.22 183.464 178.632 183.464 177.84V172.26H182.204V171.54H183.464V169.92L184.364 168.84H185.084V171.54H187.244V172.26H185.084V177.84C185.084 178.92 185.504 179.46 186.344 179.46C186.632 179.46 186.872 179.43 187.064 179.37C187.268 179.31 187.478 179.22 187.694 179.1L187.874 179.46C187.598 179.664 187.292 179.838 186.956 179.982C186.62 180.114 186.176 180.18 185.624 180.18ZM192.678 180.18C191.862 180.18 191.154 179.988 190.554 179.604C189.954 179.208 189.498 178.674 189.186 178.002C188.874 177.33 188.718 176.586 188.718 175.77C188.718 174.954 188.874 174.21 189.186 173.538C189.498 172.866 189.954 172.338 190.554 171.954C191.154 171.558 191.862 171.36 192.678 171.36C193.494 171.36 194.202 171.558 194.802 171.954C195.402 172.338 195.858 172.866 196.17 173.538C196.482 174.21 196.638 174.954 196.638 175.77C196.638 176.586 196.482 177.33 196.17 178.002C195.858 178.674 195.402 179.208 194.802 179.604C194.202 179.988 193.494 180.18 192.678 180.18ZM192.678 179.46C193.122 179.46 193.512 179.298 193.848 178.974C194.196 178.65 194.46 178.206 194.64 177.642C194.832 177.078 194.928 176.454 194.928 175.77C194.928 175.086 194.832 174.462 194.64 173.898C194.46 173.334 194.196 172.89 193.848 172.566C193.512 172.242 193.122 172.08 192.678 172.08C192.234 172.08 191.838 172.242 191.49 172.566C191.154 172.89 190.89 173.334 190.698 173.898C190.518 174.462 190.428 175.086 190.428 175.77C190.428 176.454 190.518 177.078 190.698 177.642C190.89 178.206 191.154 178.65 191.49 178.974C191.838 179.298 192.234 179.46 192.678 179.46ZM205.751 180.18C205.079 180.18 204.551 179.988 204.167 179.604C203.783 179.22 203.591 178.632 203.591 177.84V172.26H202.331V171.54H203.591V169.92L204.491 168.84H205.211V171.54H207.371V172.26H205.211V177.84C205.211 178.92 205.631 179.46 206.471 179.46C206.759 179.46 206.999 179.43 207.191 179.37C207.395 179.31 207.605 179.22 207.821 179.1L208.001 179.46C207.725 179.664 207.419 179.838 207.083 179.982C206.747 180.114 206.303 180.18 205.751 180.18ZM212.625 180.18C211.809 180.18 211.119 179.988 210.555 179.604C209.991 179.208 209.565 178.68 209.277 178.02C208.989 177.348 208.845 176.598 208.845 175.77C208.845 174.954 208.989 174.21 209.277 173.538C209.565 172.866 209.979 172.338 210.519 171.954C211.071 171.558 211.713 171.36 212.445 171.36C213.657 171.36 214.557 171.702 215.145 172.386C215.745 173.058 216.045 174.036 216.045 175.32L216.009 176.04H210.555C210.555 177.048 210.771 177.87 211.203 178.506C211.635 179.142 212.229 179.46 212.985 179.46C213.549 179.46 214.023 179.34 214.407 179.1C214.803 178.86 215.169 178.5 215.505 178.02L215.865 178.29C215.469 178.95 215.007 179.43 214.479 179.73C213.951 180.03 213.333 180.18 212.625 180.18ZM214.335 175.32C214.335 174.264 214.179 173.46 213.867 172.908C213.555 172.356 213.081 172.08 212.445 172.08C212.085 172.08 211.761 172.224 211.473 172.512C211.185 172.788 210.957 173.172 210.789 173.664C210.633 174.156 210.555 174.708 210.555 175.32H214.335ZM218.192 170.28C218.192 169.668 218.108 169.218 217.94 168.93C217.772 168.63 217.436 168.48 216.932 168.48H216.572V168.12H218.192C218.636 168.12 218.966 168.18 219.182 168.3C219.41 168.408 219.572 168.612 219.668 168.912C219.764 169.212 219.812 169.668 219.812 170.28V180H218.192V170.28ZM222.552 170.28C222.552 169.668 222.468 169.218 222.3 168.93C222.132 168.63 221.796 168.48 221.292 168.48H220.932V168.12H222.552C222.996 168.12 223.326 168.18 223.542 168.3C223.77 168.408 223.932 168.612 224.028 168.912C224.124 169.212 224.172 169.668 224.172 170.28V180H222.552V170.28ZM227.523 180.252C227.259 180.252 227.031 180.156 226.839 179.964C226.647 179.772 226.551 179.538 226.551 179.262C226.551 178.998 226.647 178.77 226.839 178.578C227.031 178.386 227.259 178.29 227.523 178.29C227.799 178.29 228.027 178.386 228.207 178.578C228.399 178.77 228.495 178.998 228.495 179.262C228.495 179.538 228.399 179.772 228.207 179.964C228.015 180.156 227.787 180.252 227.523 180.252ZM231.478 180.252C231.214 180.252 230.986 180.156 230.794 179.964C230.602 179.772 230.506 179.538 230.506 179.262C230.506 178.998 230.602 178.77 230.794 178.578C230.986 178.386 231.214 178.29 231.478 178.29C231.754 178.29 231.982 178.386 232.162 178.578C232.354 178.77 232.45 178.998 232.45 179.262C232.45 179.538 232.354 179.772 232.162 179.964C231.97 180.156 231.742 180.252 231.478 180.252ZM235.433 180.252C235.169 180.252 234.941 180.156 234.749 179.964C234.557 179.772 234.461 179.538 234.461 179.262C234.461 178.998 234.557 178.77 234.749 178.578C234.941 178.386 235.169 178.29 235.433 178.29C235.709 178.29 235.937 178.386 236.117 178.578C236.309 178.77 236.405 178.998 236.405 179.262C236.405 179.538 236.309 179.772 236.117 179.964C235.925 180.156 235.697 180.252 235.433 180.252Z" fill="white"/>
<path d="M106.228 147.918C104.248 147.918 102.304 147.648 100.396 147.108C98.488 146.568 96.922 145.794 95.698 144.786C94.51 143.778 93.916 142.626 93.916 141.33V135.552H94.888C95.5 139.152 96.688 141.762 98.452 143.382C100.216 144.966 102.646 145.758 105.742 145.758C107.686 145.758 109.342 145.272 110.71 144.3C112.114 143.328 112.816 141.978 112.816 140.25C112.816 138.738 112.348 137.424 111.412 136.308C110.476 135.192 108.964 134.022 106.876 132.798L100.234 128.856C97.93 127.488 96.292 126.102 95.32 124.698C94.384 123.294 93.916 121.584 93.916 119.568C93.916 116.796 94.87 114.582 96.778 112.926C98.722 111.234 101.26 110.388 104.392 110.388C106.228 110.388 108.046 110.658 109.846 111.198C111.646 111.702 113.122 112.458 114.274 113.466C115.462 114.438 116.056 115.572 116.056 116.868V122.646H115.084C114.472 119.046 113.302 116.472 111.574 114.924C109.882 113.34 107.488 112.548 104.392 112.548C102.736 112.548 101.278 113.052 100.018 114.06C98.758 115.068 98.128 116.382 98.128 118.002C98.128 119.478 98.578 120.702 99.478 121.674C100.414 122.646 101.962 123.78 104.122 125.076L110.764 129.018C113.212 130.494 114.94 131.862 115.948 133.122C116.956 134.382 117.46 135.984 117.46 137.928C117.46 140.952 116.452 143.382 114.436 145.218C112.42 147.018 109.684 147.918 106.228 147.918ZM131.187 147.54C129.171 147.54 127.587 146.964 126.435 145.812C125.283 144.66 124.707 142.896 124.707 140.52V123.78H120.927V121.62H124.707V116.76L127.407 113.52H129.567V121.62H136.047V123.78H129.567V140.52C129.567 143.76 130.827 145.38 133.347 145.38C134.211 145.38 134.931 145.29 135.507 145.11C136.119 144.93 136.749 144.66 137.397 144.3L137.937 145.38C137.109 145.992 136.191 146.514 135.183 146.946C134.175 147.342 132.843 147.54 131.187 147.54ZM152.349 147.54C149.901 147.54 147.777 146.964 145.977 145.812C144.177 144.624 142.809 143.022 141.873 141.006C140.937 138.99 140.469 136.758 140.469 134.31C140.469 131.862 140.937 129.63 141.873 127.614C142.809 125.598 144.177 124.014 145.977 122.862C147.777 121.674 149.901 121.08 152.349 121.08C154.797 121.08 156.921 121.674 158.721 122.862C160.521 124.014 161.889 125.598 162.825 127.614C163.761 129.63 164.229 131.862 164.229 134.31C164.229 136.758 163.761 138.99 162.825 141.006C161.889 143.022 160.521 144.624 158.721 145.812C156.921 146.964 154.797 147.54 152.349 147.54ZM152.349 145.38C153.681 145.38 154.851 144.894 155.859 143.922C156.903 142.95 157.695 141.618 158.235 139.926C158.811 138.234 159.099 136.362 159.099 134.31C159.099 132.258 158.811 130.386 158.235 128.694C157.695 127.002 156.903 125.67 155.859 124.698C154.851 123.726 153.681 123.24 152.349 123.24C151.017 123.24 149.829 123.726 148.785 124.698C147.777 125.67 146.985 127.002 146.409 128.694C145.869 130.386 145.599 132.258 145.599 134.31C145.599 136.362 145.869 138.234 146.409 139.926C146.985 141.618 147.777 142.95 148.785 143.922C149.829 144.894 151.017 145.38 152.349 145.38ZM170.994 128.1C170.994 126.264 170.742 124.914 170.238 124.05C169.734 123.15 168.726 122.7 167.214 122.7H166.674V121.62H170.994C172.362 121.62 173.388 121.818 174.072 122.214C174.792 122.574 175.296 123.186 175.584 124.05H175.854C176.502 123.222 177.366 122.52 178.446 121.944C179.562 121.368 180.858 121.08 182.334 121.08C183.774 121.08 184.854 121.35 185.574 121.89C186.186 122.358 186.816 123.168 187.464 124.32L185.304 125.94C184.908 125.4 184.332 125.004 183.576 124.752C182.82 124.464 181.956 124.32 180.984 124.32C179.904 124.32 178.914 124.572 178.014 125.076C177.114 125.544 176.394 126.192 175.854 127.02V147H170.994V128.1ZM194.887 118.38C194.059 118.38 193.339 118.038 192.727 117.354C192.151 116.67 191.863 115.86 191.863 114.924C191.863 114.168 192.079 113.574 192.511 113.142C192.979 112.71 193.591 112.494 194.347 112.494C195.175 112.494 195.877 112.836 196.453 113.52C197.065 114.204 197.371 115.014 197.371 115.95C197.371 116.706 197.137 117.3 196.669 117.732C196.237 118.164 195.643 118.38 194.887 118.38ZM192.835 128.1C192.835 126.264 192.583 124.914 192.079 124.05C191.575 123.15 190.567 122.7 189.055 122.7H187.975V121.62H192.835C194.167 121.62 195.157 121.8 195.805 122.16C196.489 122.484 196.975 123.096 197.263 123.996C197.551 124.896 197.695 126.264 197.695 128.1V147H192.835V128.1ZM215.196 147.54C212.748 147.54 210.678 146.964 208.986 145.812C207.294 144.624 206.016 143.04 205.152 141.06C204.288 139.044 203.856 136.794 203.856 134.31C203.856 131.862 204.288 129.63 205.152 127.614C206.016 125.598 207.258 124.014 208.878 122.862C210.534 121.674 212.46 121.08 214.656 121.08C218.292 121.08 220.992 122.106 222.756 124.158C224.556 126.174 225.456 129.108 225.456 132.96L225.348 135.12H208.986C208.986 138.144 209.634 140.61 210.93 142.518C212.226 144.426 214.008 145.38 216.276 145.38C217.968 145.38 219.39 145.02 220.542 144.3C221.73 143.58 222.828 142.5 223.836 141.06L224.916 141.87C223.728 143.85 222.342 145.29 220.758 146.19C219.174 147.09 217.32 147.54 215.196 147.54ZM220.326 132.96C220.326 129.792 219.858 127.38 218.922 125.724C217.986 124.068 216.564 123.24 214.656 123.24C213.576 123.24 212.604 123.672 211.74 124.536C210.876 125.364 210.192 126.516 209.688 127.992C209.22 129.468 208.986 131.124 208.986 132.96H220.326ZM240.159 147.54C236.019 147.54 233.229 146.82 231.789 145.38C231.177 144.768 230.799 144.084 230.655 143.328C230.511 142.536 230.439 141.33 230.439 139.71H231.519C231.843 141.51 232.617 142.914 233.841 143.922C235.101 144.894 236.847 145.38 239.079 145.38C241.059 145.38 242.535 145.038 243.507 144.354C244.515 143.67 245.019 142.752 245.019 141.6C245.019 140.556 244.623 139.656 243.831 138.9C243.075 138.144 241.851 137.424 240.159 136.74L236.919 135.39C234.759 134.526 233.139 133.518 232.059 132.366C230.979 131.214 230.439 129.792 230.439 128.1C230.439 125.904 231.267 124.194 232.923 122.97C234.579 121.71 236.721 121.08 239.349 121.08C243.309 121.08 246.009 121.8 247.449 123.24C248.061 123.852 248.439 124.536 248.583 125.292C248.727 126.048 248.799 127.254 248.799 128.91H247.719C247.431 127.11 246.675 125.724 245.451 124.752C244.227 123.744 242.553 123.24 240.429 123.24C238.737 123.24 237.405 123.6 236.433 124.32C235.497 125.004 235.029 125.904 235.029 127.02C235.029 128.892 236.469 130.422 239.349 131.61L242.589 132.96C245.037 133.968 246.819 135.048 247.935 136.2C249.051 137.316 249.609 138.756 249.609 140.52C249.609 142.716 248.727 144.444 246.963 145.704C245.199 146.928 242.931 147.54 240.159 147.54Z" fill="white"/>
<g filter="url(#filter0_f_721_2797)">
<circle cx="1037.46" cy="187" r="142" fill="#B9A8FF"/>
</g>
<path d="M1038.28 -79.2717H1030.04C998.89 -79.2641 969.023 -66.8586 947.002 -44.7835C924.982 -22.7084 912.611 7.22868 912.611 38.4438V263.014H1155.77V38.4438C1155.77 22.9822 1152.73 7.67198 1146.82 -6.61226C1140.92 -20.8965 1132.26 -33.8749 1121.35 -44.8063C1110.44 -55.7377 1097.49 -64.4078 1083.24 -70.3214C1068.98 -76.2351 1053.7 -79.2764 1038.28 -79.2717Z" fill="#FFB7D5"/>
<path d="M990.041 127.832V266.51H1097.94V127.832H990.041ZM987.181 124.966H1100.8V269.376H987.181V124.966Z" fill="#CA7358"/>
<path d="M987.181 124.959H1100.8V154.812H987.181V124.959Z" fill="#CA7358"/>
<path d="M1101.4 52.8439V267.205H1166.34V52.8439H1101.4ZM1098.54 49.9782H1169.2V270.071H1098.54V49.9782Z" fill="#CA7358"/>
<path d="M900.852 9.45017V266.51H986.574V9.45017H900.852ZM897.993 6.58447H989.433V269.376H897.993V6.58447Z" fill="#CA7358"/>
<path d="M952.262 41.6463H951.44C948.335 41.6463 945.356 42.8827 943.161 45.0834C940.965 47.2841 939.731 50.269 939.731 53.3813V79.8317H963.978V53.3813C963.978 51.8396 963.675 50.3131 963.086 48.8889C962.497 47.4646 961.634 46.1707 960.546 45.0809C959.458 43.9911 958.166 43.1268 956.745 42.5375C955.324 41.9482 953.8 41.6454 952.262 41.6463Z" fill="#CA7358"/>
<path d="M966.745 62.4727H936.958" stroke="#FFB7D5" stroke-width="4" stroke-linecap="round" stroke-linejoin="round"/>
<path d="M952.262 110.151H951.44C948.335 110.151 945.356 111.387 943.161 113.588C940.965 115.789 939.731 118.773 939.731 121.886V148.336H963.978V121.886C963.978 120.344 963.675 118.817 963.086 117.393C962.497 115.969 961.634 114.675 960.546 113.585C959.458 112.495 958.166 111.631 956.745 111.042C955.324 110.453 953.8 110.15 952.262 110.151Z" fill="#F5EBDD"/>
<path d="M966.745 130.977H936.958" stroke="#FFB7D5" stroke-width="4" stroke-linecap="round" stroke-linejoin="round"/>
<path d="M952.262 178.655H951.44C948.335 178.655 945.356 179.891 943.161 182.092C940.965 184.293 939.731 187.278 939.731 190.39V216.84H963.978V190.39C963.978 187.278 962.744 184.293 960.549 182.092C958.353 179.891 955.375 178.655 952.269 178.655H952.262Z" fill="#F5EBDD"/>
<path d="M966.745 199.482H936.958" stroke="#FFB7D5" stroke-width="4" stroke-linecap="round" stroke-linejoin="round"/>
<path d="M952.262 247.16H951.44C948.335 247.16 945.356 248.396 943.161 250.597C940.965 252.797 939.731 255.782 939.731 258.895V283.196H963.978V258.895C963.978 257.353 963.675 255.826 963.086 254.402C962.497 252.978 961.634 251.684 960.546 250.594C959.458 249.504 958.166 248.64 956.745 248.051C955.324 247.461 953.8 247.159 952.262 247.16Z" fill="#30242A"/>
<path d="M897.993 6.58447H989.433V18.0401H897.993V6.58447Z" fill="#CA7358"/>
<path d="M1098.54 44.426H1169.2V55.8817H1098.54V44.426Z" fill="#CA7358"/>
<path d="M1056.11 181.893H1080.36V213.136H1056.11V181.893Z" fill="#F5EBDD"/>
<path d="M1083.13 195.778H1053.34" stroke="#FFB7D5" stroke-width="4" stroke-linecap="round" stroke-linejoin="round"/>
<path d="M1068.24 214.526V195.778" stroke="#FFB7D5" stroke-width="4" stroke-linecap="round" stroke-linejoin="round"/>
<path d="M1056.11 238.319H1080.36V269.562H1056.11V238.319Z" fill="#CA7358"/>
<path d="M1083.13 252.203H1053.34" stroke="#FFB7D5" stroke-width="4" stroke-linecap="round" stroke-linejoin="round"/>
<path d="M1068.24 270.952V252.203" stroke="#FFB7D5" stroke-width="4" stroke-linecap="round" stroke-linejoin="round"/>
<path d="M1010.39 181.893H1034.64V213.136H1010.39V181.893Z" fill="#30242A"/>
<path d="M1037.4 195.778H1007.62" stroke="#FFB7D5" stroke-width="4" stroke-linecap="round" stroke-linejoin="round"/>
<path d="M1022.52 214.526V195.778" stroke="#FFB7D5" stroke-width="4" stroke-linecap="round" stroke-linejoin="round"/>
<path d="M1010.39 238.319H1034.64V269.562H1010.39V238.319Z" fill="#F5EBDD"/>
<path d="M1037.4 252.203H1007.62" stroke="#FFB7D5" stroke-width="4" stroke-linecap="round" stroke-linejoin="round"/>
<path d="M1022.52 270.952V252.203" stroke="#FFB7D5" stroke-width="4" stroke-linecap="round" stroke-linejoin="round"/>
<path d="M1084.69 5.54567C1074.74 5.54567 1066.68 -2.53734 1066.68 -12.5082C1066.68 -22.4791 1074.74 -30.5621 1084.69 -30.5621C1094.64 -30.5621 1102.7 -22.4791 1102.7 -12.5082C1102.7 -2.53734 1094.64 5.54567 1084.69 5.54567Z" fill="#F5EBDD"/>
<path d="M881.437 263.129H1186.94V283.955H881.437V263.129Z" fill="#F5EBDD"/>
<path d="M1029.36 -99.9907H1038.99C1114.95 -99.9907 1176.52 -38.278 1176.52 37.8492V283.955H891.802V37.8492C891.824 -38.278 953.406 -99.9907 1029.36 -99.9907ZM1044.57 263.128H1155.77V89.5535H1044.57V263.128ZM1044.57 68.727H1155.77V38.5585C1155.76 8.42487 1144.23 -20.5611 1123.55 -42.4296C1102.86 -64.2981 1074.6 -77.384 1044.57 -78.9923V68.727ZM912.611 263.128H1023.79V89.5535H912.611V263.128ZM912.611 68.727H1023.79V-78.9923C993.772 -77.384 965.508 -64.2978 944.823 -42.4291C924.139 -20.5604 912.61 8.42553 912.611 38.5585V68.727Z" fill="#F5EBDD"/>
<path d="M1071.16 169.048C1071.16 169.048 1108.57 126.005 1152.76 110.394" stroke="#30242A" stroke-width="4" stroke-linecap="round" stroke-linejoin="round"/>
<path d="M1188.49 127.209C1189.85 123.92 1185.32 118.762 1177.77 114.406C1187.99 111.856 1195.25 107.106 1194.52 103.115C1193.79 99.1249 1185.33 97.2479 1174.87 98.4801C1180.37 91.7457 1182.79 85.3122 1180.36 82.7188C1177.27 79.4017 1167.45 83.5857 1158.43 92.0323C1150.57 99.4115 1145.92 107.622 1146.91 111.798C1147.46 116.054 1154.7 122.086 1164.65 126.213C1176.09 130.97 1186.75 131.414 1188.49 127.209Z" fill="#4756DF"/>
<path d="M1146.54 125.167C1139.33 125.167 1133.48 119.31 1133.48 112.085C1133.48 104.86 1139.33 99.0031 1146.54 99.0031C1153.75 99.0031 1159.59 104.86 1159.59 112.085C1159.59 119.31 1153.75 125.167 1146.54 125.167Z" fill="#30242A"/>
<path d="M1119.04 128.933C1115.45 127.599 1117.08 114.27 1122.68 99.1618C1128.27 84.054 1135.72 72.8885 1139.3 74.2231C1142.89 75.5577 1141.26 88.8868 1135.66 103.995C1130.07 119.102 1122.62 130.268 1119.04 128.933Z" fill="#30242A"/>
<path d="M1119.67 131.557C1119.67 131.557 1114.13 146.832 1116.9 162.801" stroke="#30242A" stroke-width="4" stroke-linecap="round" stroke-linejoin="round"/>
<path d="M1220.83 70.7188C1232.65 84.0514 1245.22 86.9959 1245.22 86.9959C1253.35 78.1122 1268.09 78.1123 1270.34 90.6998C1272.8 104.649 1255.58 108.489 1255.58 108.489C1255.58 108.489 1251.24 126.485 1257.9 135.376C1263.78 143.257 1271.32 144.553 1286.79 146.287C1266.63 180.425 1246.05 177.731 1239.19 177.731C1222.75 177.731 1218.12 158.61 1216.83 148.752C1220.57 147.443 1224.39 146.364 1228.26 145.521L1230.48 132.195C1230.48 132.195 1220.14 135.892 1211.26 130.712C1202.39 125.532 1200.18 115.896 1203.14 101.088C1204.89 92.3118 1204.82 81.4579 1206.33 71.7576C1212.18 72.7534 1220.83 70.7188 1220.83 70.7188Z" fill="#FFA185"/>
<path d="M1097.85 145.098C1100.99 132.51 1125.56 125.683 1125.56 125.683C1125.56 125.683 1124.08 97.4269 1130.41 96.5243C1135.26 95.8078 1140.11 107.636 1144.26 130.547C1148.91 156.152 1146.34 203.443 1146.34 203.443C1146.34 203.443 1151.48 198.765 1158.78 192.253C1159.5 193.729 1160.62 194.977 1162.01 195.861C1163.39 196.745 1165 197.232 1166.64 197.268C1165.6 198.585 1164.95 200.166 1164.76 201.832C1164.57 203.499 1164.85 205.186 1165.57 206.702C1166.28 208.219 1167.41 209.505 1168.81 210.417C1170.22 211.328 1171.85 211.828 1173.52 211.861C1172.49 213.178 1171.84 214.759 1171.65 216.426C1171.46 218.093 1171.74 219.779 1172.45 221.296C1173.17 222.813 1174.29 224.099 1175.7 225.01C1177.1 225.922 1178.73 226.422 1180.41 226.455C1179.32 227.837 1178.66 229.509 1178.51 231.263C1178.36 233.018 1178.72 234.778 1179.56 236.326C1180.39 237.875 1181.67 239.144 1183.21 239.977C1184.76 240.81 1186.52 241.17 1188.27 241.013C1173.09 250.913 1152.46 262.462 1138.72 262.462C1066.68 262.434 1095.77 153.43 1097.85 145.098Z" fill="#FFA185"/>
<path d="M1179.36 235.861C1178.65 234.345 1178.37 232.659 1178.56 230.992C1178.74 229.326 1179.39 227.744 1180.43 226.426C1178.75 226.393 1177.12 225.893 1175.72 224.982C1174.31 224.07 1173.19 222.784 1172.47 221.267C1171.76 219.751 1171.48 218.064 1171.67 216.397C1171.86 214.73 1172.51 213.15 1173.54 211.833C1171.87 211.8 1170.24 211.3 1168.83 210.388C1167.43 209.477 1166.3 208.19 1165.59 206.674C1164.87 205.157 1164.59 203.471 1164.78 201.804C1164.97 200.137 1165.62 198.556 1166.66 197.239C1165.02 197.203 1163.42 196.716 1162.03 195.832C1160.64 194.948 1159.52 193.7 1158.8 192.224C1171.36 181.005 1190.31 164.37 1200.4 156.897C1205.28 153.279 1211.5 150.6 1216.84 148.752C1218.1 158.638 1222.7 177.731 1239.14 177.731C1245.97 177.731 1266.58 180.425 1286.74 146.287L1293.22 147.004C1315.52 149.489 1325.67 161.518 1331.65 175.89C1335.34 184.781 1338.3 201.072 1338.3 201.072C1340.6 216.008 1341.78 231.095 1341.83 246.207L1312.83 273.108L1234.98 275.036C1228.74 265.822 1217.3 248.807 1213.53 242.281C1208.68 233.949 1207.99 227.007 1207.99 227.007C1207.99 227.007 1199.67 233.526 1188.27 240.97C1186.44 241.13 1184.61 240.727 1183.02 239.814C1181.42 238.901 1180.15 237.522 1179.36 235.861Z" fill="#487FFF"/>
<path d="M1212.69 54.4201C1221.56 43.3156 1245.95 35.9078 1265.16 49.9783C1284.38 64.0489 1282.9 87.0102 1282.16 95.9011C1282.16 95.9011 1302.85 89.2312 1317.63 104.785C1321.91 109.231 1325.02 114.669 1326.7 120.613C1328.38 126.557 1328.56 132.825 1327.24 138.858C1327.24 138.858 1354.46 138.091 1359.75 163.302C1362.76 177.631 1357.15 187.166 1350.91 193.07C1347.26 196.508 1342.99 199.223 1338.32 201.072C1338.32 201.072 1335.37 184.781 1331.67 175.89C1325.69 161.518 1315.54 149.49 1293.24 147.004L1286.76 146.287C1271.3 144.553 1263.75 143.235 1257.87 135.376C1251.22 126.485 1255.58 108.489 1255.58 108.489C1255.58 108.489 1272.82 104.649 1270.37 90.7142C1268.14 78.1266 1253.37 78.1266 1245.24 87.0102C1245.24 87.0102 1232.67 84.0514 1220.85 70.7188C1220.85 70.7188 1212.2 72.7534 1206.3 71.7576C1207.31 65.0805 1209.08 58.9551 1212.69 54.4201Z" fill="#30242A"/>
<path d="M1096.31 154.992C1098.41 154.024 1099.66 151.589 1099.3 146.932C1099.3 146.932 1103.63 152.377 1108.24 149.955C1112.85 147.534 1111.01 142.318 1111.01 142.318C1111.01 142.318 1115.17 145.098 1118.63 141.602C1121.77 138.457 1119.35 133.27 1119.35 133.27C1119.35 133.27 1123.95 135.154 1125.58 131.88C1127.63 127.782 1125.14 123.49 1122.43 120.202" stroke="#30242A" stroke-width="8" stroke-linecap="round" stroke-linejoin="round"/>
<path d="M1328.55 139.46C1327.77 143.171 1326.36 146.721 1324.38 149.955" stroke="black" stroke-width="4" stroke-miterlimit="10" stroke-linecap="round"/>
<path d="M1147.73 204.339L1145.99 225.982" stroke="#30242A" stroke-width="4" stroke-linecap="round" stroke-linejoin="round"/>
<path d="M1210.42 203.056C1205.9 211.224 1205.95 221.024 1206.54 226.835" stroke="#30242A" stroke-width="4" stroke-linecap="round" stroke-linejoin="round"/>
<path d="M1251.29 225.982L1273.46 226.677" stroke="#30242A" stroke-width="4" stroke-linecap="round" stroke-linejoin="round"/>
<path d="M1230.86 133.563C1233.96 132.345 1236.98 130.94 1239.91 129.358" stroke="#30242A" stroke-width="4" stroke-linecap="round" stroke-linejoin="round"/>
<path d="M1225.32 154.125L1226.53 146.452" stroke="#30242A" stroke-width="4" stroke-linecap="round" stroke-linejoin="round"/>
<path d="M1283.65 96.1804L1282.12 108.99" stroke="black" stroke-width="4" stroke-miterlimit="10" stroke-linecap="round"/>
<path d="M1210.42 111.426C1211.99 112.443 1217.18 112.78 1219.66 108.245" stroke="#30242A" stroke-width="4" stroke-linecap="round" stroke-linejoin="round"/>
<path d="M1251.99 96.8396L1258.91 93.3721" stroke="#30242A" stroke-width="4" stroke-linecap="round" stroke-linejoin="round"/>
<path d="M1220.01 93.766C1221.11 95.2776 1226.34 98.2078 1230.27 94.8621" stroke="#30242A" stroke-width="4" stroke-linecap="round" stroke-linejoin="round"/>
<path d="M1203.17 91.581C1204 91.7573 1204.85 91.7683 1205.69 91.6134C1206.52 91.4585 1207.31 91.1407 1208.02 90.6783" stroke="#30242A" stroke-width="4" stroke-linecap="round" stroke-linejoin="round"/>
<path d="M1212.54 94.1601C1211.75 95.9583 1210.99 97.9428 1211.15 98.7022C1211.39 99.6258 1211.94 100.439 1212.71 101.009" stroke="#30242A" stroke-width="4" stroke-linecap="round" stroke-linejoin="round"/>
<path d="M1255.78 105.229L1265.24 114.17C1265.75 114.654 1266.13 115.261 1266.34 115.934C1266.55 116.607 1266.59 117.322 1266.45 118.013C1266.3 118.703 1265.99 119.346 1265.52 119.878C1265.06 120.411 1264.47 120.816 1263.81 121.055L1252.63 125.031C1251.97 125.266 1251.25 125.327 1250.56 125.207C1249.86 125.087 1249.21 124.79 1248.66 124.345C1248.12 123.9 1247.69 123.321 1247.43 122.665C1247.17 122.009 1247.08 121.296 1247.18 120.596L1248.9 107.7C1249 106.951 1249.31 106.243 1249.78 105.655C1250.25 105.067 1250.88 104.622 1251.59 104.367C1252.3 104.111 1253.07 104.057 1253.81 104.209C1254.55 104.361 1255.23 104.714 1255.78 105.229Z" fill="#F4E6D8"/>
<path d="M1120.02 107.607C1120.02 107.607 1115.17 104.828 1111.01 106.218C1104.58 108.367 1105.52 114.37 1105.52 114.37C1105.52 114.37 1096.5 111.111 1094.75 120.668C1094.75 120.668 1086.61 122.495 1088.44 130.648C1088.44 130.648 1081.86 130.999 1083.17 139.646C1084.48 148.293 1090.23 155.479 1093.69 155.479C1097.26 155.479 1099.79 153.279 1099.3 146.882C1099.3 146.882 1103.63 152.327 1108.24 149.905C1112.85 147.484 1111.01 142.268 1111.01 142.268C1111.01 142.268 1115.17 145.048 1118.63 141.552C1121.77 138.406 1119.35 133.22 1119.35 133.22C1119.35 133.22 1123.95 135.104 1125.58 131.83C1129.05 124.888 1119.51 117.422 1117.96 115.173L1120.02 107.607Z" fill="#FFA185"/>
<path d="M1122.08 135.748C1117.31 131.371 1109.21 123.111 1105.36 114.442" stroke="#30242A" stroke-width="4" stroke-linecap="round" stroke-linejoin="round"/>
<path d="M1113.33 145.743C1105.42 139 1098.96 130.711 1094.35 121.384" stroke="#30242A" stroke-width="4" stroke-linecap="round" stroke-linejoin="round"/>
<path d="M1101.09 150.886C1098.94 148.264 1091.45 138.843 1087.73 131.385" stroke="#30242A" stroke-width="4" stroke-linecap="round" stroke-linejoin="round"/>
<path d="M1102.43 310.341H1222.41L1195.14 223.99C1194.33 221.448 1192.74 219.229 1190.59 217.655C1188.44 216.081 1185.85 215.234 1183.19 215.236H1081.8C1079.83 215.235 1077.89 215.699 1076.13 216.592C1074.38 217.484 1072.85 218.779 1071.69 220.372C1070.53 221.964 1069.75 223.81 1069.43 225.758C1069.11 227.706 1069.26 229.702 1069.85 231.584L1092.4 302.99C1093.08 305.123 1094.42 306.985 1096.22 308.306C1098.02 309.627 1100.2 310.34 1102.43 310.341Z" fill="#F3F3F3"/>
<path d="M1120.81 255.355C1123.6 251.53 1136.27 261.631 1137.2 262.469C1137.69 261.631 1144.28 251.53 1149.12 255.355C1153.31 258.672 1144.11 273.481 1141.63 277.256C1141.53 277.371 1141.41 277.463 1141.26 277.526C1141.12 277.589 1140.97 277.621 1140.82 277.621C1140.66 277.621 1140.51 277.589 1140.37 277.526C1140.23 277.463 1140.11 277.371 1140 277.256C1135.49 273.445 1118.39 258.637 1120.81 255.355Z" fill="#FFBE21"/>
<path d="M1132.39 252.651C1131.38 249.41 1131.43 246.515 1132.49 246.184C1133.54 245.853 1135.22 248.213 1136.23 251.454C1137.23 254.695 1137.19 257.591 1136.13 257.922C1135.07 258.252 1133.4 255.893 1132.39 252.651Z" fill="#FFBE21"/>
<path d="M1360.78 232.05C1359.23 232.652 1357.53 232.808 1355.89 232.502C1354.25 232.196 1352.73 231.439 1351.49 230.316C1351.34 231.989 1350.73 233.588 1349.73 234.931C1348.72 236.275 1347.36 237.31 1345.8 237.919C1344.24 238.529 1342.54 238.689 1340.89 238.381C1339.25 238.073 1337.72 237.309 1336.48 236.177C1336.33 237.848 1335.72 239.443 1334.71 240.784C1333.7 242.125 1332.34 243.158 1330.78 243.766C1329.22 244.374 1327.53 244.534 1325.88 244.227C1324.23 243.921 1322.71 243.16 1321.47 242.03C1321.35 243.349 1320.95 244.627 1320.29 245.771C1319.62 246.916 1318.72 247.9 1317.63 248.653C1316.54 249.405 1315.3 249.908 1314 250.126C1312.7 250.343 1311.36 250.27 1310.09 249.911L1299.28 220.817C1295.12 209.648 1293.14 197.78 1293.47 185.862L1294.56 147.175C1294.56 147.175 1319.5 149.253 1334.05 167.307C1341.51 176.57 1356.16 201.043 1365.54 227.651C1364.56 229.66 1362.86 231.228 1360.78 232.05Z" fill="#487FFF"/>
<path d="M1315.76 249.624C1317.32 249.019 1318.69 247.988 1319.7 246.646C1320.71 245.303 1321.33 243.705 1321.48 242.03C1322.71 243.16 1324.24 243.921 1325.89 244.227C1327.53 244.534 1329.23 244.374 1330.79 243.766C1332.35 243.158 1333.71 242.125 1334.72 240.784C1335.72 239.443 1336.34 237.848 1336.49 236.177C1337.72 237.309 1339.25 238.073 1340.9 238.381C1342.55 238.689 1344.25 238.529 1345.81 237.919C1347.37 237.31 1348.73 236.275 1349.74 234.931C1350.74 233.588 1351.35 231.989 1351.5 230.316C1352.53 231.256 1353.76 231.943 1355.1 232.323C1356.44 232.704 1357.85 232.768 1359.21 232.511C1360.58 232.253 1361.87 231.68 1362.98 230.839C1364.09 229.997 1364.99 228.908 1365.61 227.658C1373.74 250.72 1377.93 275.394 1370.06 293.154C1353.1 331.404 1302.21 317.942 1290.2 314.403C1278.19 310.864 1254.86 298.821 1239.31 300.948C1223.77 303.076 1206.1 310.864 1203.27 300.948C1203.27 300.948 1193.76 300.705 1196.75 291.635C1196.75 291.635 1191.97 291.04 1191.26 287.501C1189.83 280.416 1206.81 274.047 1206.81 274.047C1206.81 274.047 1193.38 276.196 1190.56 273.33C1186.98 269.748 1190.46 263.967 1212.39 258.637C1236.49 252.791 1268.29 256.33 1315.64 264.826L1310.1 249.903C1311.97 250.428 1313.95 250.33 1315.76 249.624Z" fill="#FFA185"/>
<path d="M1299.09 216.955L1314.91 263.236" stroke="#30242A" stroke-width="4" stroke-linecap="round" stroke-linejoin="round"/>
<path d="M1202.54 274.556C1210.22 271.633 1223 267.148 1232.92 265.529" stroke="#30242A" stroke-width="4" stroke-linecap="round" stroke-linejoin="round"/>
<path d="M1196.55 291.263C1206.42 286.814 1225.26 278.74 1235.4 277.221" stroke="#30242A" stroke-width="4" stroke-linecap="round" stroke-linejoin="round"/>
<path d="M1315.53 263.336C1320.85 264.196 1329.2 265.622 1337.54 267.291" stroke="#30242A" stroke-width="4" stroke-linecap="round" stroke-linejoin="round"/>
<path d="M872.438 210.507C872.438 210.507 878.056 223.174 892.796 223.174C907.535 223.174 913.183 210.507 913.183 210.507C913.183 210.507 954.642 305.505 913.897 355.468H871.773C831.049 305.505 872.438 210.507 872.438 210.507Z" fill="#3EC1F3"/>
<path d="M892.832 223.174C878.092 223.174 872.474 210.507 872.474 210.507H913.219C913.219 210.507 907.579 223.174 892.832 223.174Z" fill="#30242A"/>
<path d="M929.331 271.833C913.948 268.072 884.818 264.49 856.583 271.224" stroke="#F5EBDD" stroke-width="4" stroke-linecap="round" stroke-linejoin="round"/>
<path d="M895.412 218.961C895.841 208.752 898.55 168.181 914.634 144.381" stroke="#30242A" stroke-width="4" stroke-miterlimit="10" stroke-linecap="round"/>
<path d="M898.764 187.764C896.708 184.271 907.607 174.009 923.109 164.843C938.61 155.677 952.844 151.078 954.9 154.571C956.956 158.064 946.057 168.326 930.555 177.492C915.054 186.658 900.82 191.257 898.764 187.764Z" fill="#30242A"/>
<path d="M904.784 86.5168C901.766 84.7922 903.317 76.3667 908.249 67.698C913.18 59.0292 919.625 53.3999 922.643 55.1245C925.661 56.8491 924.11 65.2746 919.178 73.9433C914.247 82.6121 907.802 88.2414 904.784 86.5168Z" fill="#30242A"/>
<path d="M957.874 123.268C956.251 119.651 948.617 119.385 939.338 122.158C945.057 111.906 946.808 102.37 943.027 99.913C939.245 97.4557 931.253 102.893 924.241 112.329C923.004 102.707 919.659 95.8509 915.663 95.8079C910.616 95.8079 906.485 106.963 906.435 120.761C906.404 124.707 906.754 128.646 907.478 132.525C909.679 131.515 912.096 131.072 914.511 131.236C916.926 131.4 919.261 132.167 921.305 133.466C923.349 134.765 925.037 136.555 926.215 138.674C927.393 140.793 928.024 143.174 928.051 145.599C931.752 144.69 935.361 143.438 938.831 141.86C951.433 136.207 959.939 127.889 957.874 123.268Z" fill="#4756DF"/>
<path d="M921.468 133.563C919.417 132.227 917.062 131.433 914.622 131.253C912.183 131.074 909.738 131.517 907.514 132.539C908.744 138.951 910.967 143.708 913.64 145.255C916.185 147.111 921.575 147.183 928.087 145.614C928.06 143.214 927.442 140.858 926.287 138.756C925.132 136.653 923.477 134.87 921.468 133.563Z" fill="#30242A"/>
<path d="M890.051 218.345C888.078 207.069 877.806 151.782 861.365 120.503" stroke="#30242A" stroke-width="4" stroke-miterlimit="10" stroke-linecap="round"/>
<path d="M805.872 197.122C804.69 193.464 820.482 185.059 841.146 178.35C861.81 171.64 879.52 169.168 880.703 172.826C881.886 176.485 866.093 184.89 845.429 191.599C824.765 198.308 807.055 200.781 805.872 197.122Z" fill="#30242A"/>
<path d="M864.46 72.037C860.515 71.6788 856.54 78.2197 854.403 87.6837C848.313 77.6537 840.864 71.4495 836.868 73.5486C832.872 75.6478 833.687 85.2908 838.455 96.0443C829.477 92.4121 821.85 91.9535 819.87 95.4067C817.382 99.8055 825.066 108.897 837.025 115.703C840.436 117.662 844.027 119.289 847.748 120.56C847.952 118.146 848.753 115.82 850.08 113.795C851.407 111.769 853.217 110.107 855.347 108.96C857.476 107.812 859.857 107.215 862.275 107.223C864.693 107.231 867.071 107.843 869.193 109.004C870.214 105.323 870.896 101.556 871.23 97.7494C872.552 84.0084 869.486 72.4955 864.46 72.037Z" fill="#4756DF"/>
<path d="M855.546 108.875C853.379 110.012 851.532 111.679 850.179 113.722C848.826 115.765 848.009 118.117 847.805 120.56C853.988 122.631 859.242 123.025 861.873 121.449C864.732 120.138 867.441 115.459 869.271 109.004C867.172 107.85 864.82 107.233 862.425 107.211C860.03 107.188 857.667 107.76 855.546 108.875Z" fill="#30242A"/>
<path d="M821.842 137.625V137.683C825.204 139.072 827.924 141.674 829.467 144.974C831.009 148.275 831.261 152.035 830.174 155.513C829.086 158.99 826.738 161.934 823.592 163.761C820.446 165.589 816.73 166.169 813.178 165.387V165.444C832.014 171.355 849.227 169.922 851.629 162.235C854.031 154.547 840.678 143.536 821.842 137.625Z" fill="#4756DF"/>
<path d="M826.325 161.719C824.673 161.055 823.332 159.791 822.571 158.179C821.81 156.566 821.685 154.725 822.221 153.025C822.757 151.324 823.915 149.889 825.462 149.008C827.009 148.126 828.831 147.863 830.563 148.271C830.089 145.923 829.043 143.728 827.519 141.881C825.996 140.034 824.041 138.592 821.828 137.683L813.165 165.387C815.49 165.902 817.906 165.837 820.201 165.197C822.495 164.558 824.598 163.363 826.325 161.719Z" fill="#FFB7D5"/>
<path d="M822.25 153.05C821.719 154.744 821.844 156.576 822.599 158.182C823.354 159.788 824.684 161.05 826.324 161.719C828.109 160.02 829.434 157.895 830.175 155.543C830.917 153.191 831.05 150.689 830.563 148.272C828.832 147.874 827.015 148.146 825.474 149.031C823.934 149.917 822.782 151.352 822.25 153.05Z" fill="#30242A"/>
</g>
<rect x="0.5" y="0.5" width="1379" height="282" rx="39.5" stroke="#1E1E1E"/>
<defs>
<filter id="filter0_f_721_2797" x="695.455" y="-155" width="684" height="684" filterUnits="userSpaceOnUse" color-interpolation-filters="sRGB">
<feFlood flood-opacity="0" result="BackgroundImageFix"/>
<feBlend mode="normal" in="SourceGraphic" in2="BackgroundImageFix" result="shape"/>
<feGaussianBlur stdDeviation="100" result="effect1_foregroundBlur_721_2797"/>
</filter>
<linearGradient id="paint0_linear_721_2797" x1="1655" y1="23.1571" x2="-783" y2="23.1578" gradientUnits="userSpaceOnUse">
<stop stop-color="white"/>
<stop offset="1" stop-color="white" stop-opacity="0"/>
</linearGradient>
<clipPath id="clip0_721_2797">
<rect width="1380" height="283" rx="40" fill="white"/>
</clipPath>
</defs>
</svg>
