<svg width="25" height="25" viewBox="0 0 25 25" fill="none" xmlns="http://www.w3.org/2000/svg">
<path d="M9.3189 8.38072C8.70045 7.76228 8.27929 6.97433 8.10866 6.11653C7.93803 5.25872 8.0256 4.36958 8.3603 3.56154C8.695 2.75351 9.26179 2.06287 9.98901 1.57696C10.7162 1.09105 11.5712 0.831702 12.4458 0.831702C13.3204 0.831702 14.1754 1.09105 14.9026 1.57696C15.6298 2.06287 16.1966 2.75351 16.5313 3.56155C16.866 4.36958 16.9536 5.25872 16.7829 6.11653C16.6123 6.97433 16.1912 7.76228 15.5727 8.38072L12.4458 5.25381L9.3189 8.38072Z" fill="#487FFF"/>
<path d="M8.38083 15.5726C7.76239 16.191 6.97444 16.6122 6.11663 16.7828C5.25883 16.9535 4.36969 16.8659 3.56166 16.5312C2.75362 16.1965 2.06298 15.6297 1.57707 14.9025C1.09116 14.1753 0.831811 13.3203 0.831812 12.4457C0.831811 11.5711 1.09116 10.7161 1.57707 9.9889C2.06298 9.26168 2.75362 8.69489 3.56165 8.36019C4.36969 8.02549 5.25883 7.93792 6.11663 8.10855C6.97444 8.27918 7.76239 8.70034 8.38083 9.31878L5.25392 12.4457L8.38083 15.5726Z" fill="#487FFF"/>
<path d="M11.5077 12.4457C11.0971 12.8563 10.6096 13.1821 10.0731 13.4043C9.53658 13.6265 8.96155 13.7409 8.38082 13.7409C7.80011 13.7409 7.22507 13.6265 6.68856 13.4043C6.15204 13.1821 5.66456 12.8563 5.25392 12.4457L8.38083 9.31878L11.5077 12.4457Z" fill="#487FFF"/>
<path d="M13.3839 12.4457C13.7945 12.0351 14.282 11.7093 14.8185 11.4871C15.355 11.2649 15.9301 11.1505 16.5108 11.1505C17.0915 11.1505 17.6665 11.2649 18.203 11.4871C18.7396 11.7093 19.2271 12.0351 19.6377 12.4457L16.5108 15.5726L13.3839 12.4457Z" fill="#487FFF"/>
<path d="M15.5727 16.5107C16.1911 17.1291 16.6123 17.9171 16.7829 18.7749C16.9536 19.6327 16.866 20.5218 16.5313 21.3298C16.1966 22.1379 15.6298 22.8285 14.9026 23.3144C14.1754 23.8003 13.3204 24.0597 12.4458 24.0597C11.5712 24.0597 10.7162 23.8003 9.98901 23.3144C9.2618 22.8285 8.695 22.1379 8.3603 21.3298C8.0256 20.5218 7.93803 19.6327 8.10866 18.7749C8.27928 17.9171 8.70045 17.1291 9.31889 16.5107L12.4458 19.6376L15.5727 16.5107Z" fill="#487FFF"/>
<path d="M16.5108 9.31879C17.1292 8.70034 17.9172 8.27918 18.775 8.10855C19.6328 7.93792 20.5219 8.02549 21.3299 8.36019C22.138 8.69489 22.8286 9.26168 23.3145 9.9889C23.8004 10.7161 24.0598 11.5711 24.0598 12.4457C24.0598 13.3203 23.8004 14.1753 23.3145 14.9025C22.8286 15.6297 22.138 16.1965 21.3299 16.5312C20.5219 16.8659 19.6328 16.9535 18.775 16.7828C17.9172 16.6122 17.1292 16.191 16.5108 15.5726L19.6377 12.4457L16.5108 9.31879Z" fill="#487FFF"/>
</svg>
