<svg width="149" height="54" viewBox="0 0 149 54" fill="none" xmlns="http://www.w3.org/2000/svg">
<path d="M79.329 15.6289C79.329 16.3857 79.2327 17.0531 79.04 17.6309C78.8553 18.2087 78.5902 18.7091 78.245 19.1323C77.9077 19.5555 77.5062 19.9095 77.0404 20.1943C76.5747 20.4792 76.0647 20.707 75.5106 20.8779C74.9646 21.0488 74.3824 21.1709 73.7641 21.2441C73.1538 21.3174 72.5314 21.354 71.8971 21.354C71.062 21.354 70.291 21.2889 69.5844 21.1587C68.8777 21.0366 68.2112 20.8413 67.5848 20.5728C66.9665 20.2961 66.3683 19.9421 65.79 19.5107C65.2199 19.0794 64.6497 18.5545 64.0796 17.936L66.5369 15.4092C66.7617 15.9707 67.0709 16.4915 67.4644 16.9717C67.8579 17.4437 68.2875 17.8506 68.7533 18.1924C69.227 18.5342 69.7168 18.8027 70.2227 18.998C70.7286 19.1934 71.2064 19.291 71.6562 19.291C72.1862 19.291 72.684 19.2544 73.1497 19.1812C73.6155 19.0998 74.021 18.9696 74.3663 18.7905C74.7117 18.6115 74.9807 18.3755 75.1734 18.0825C75.3742 17.7814 75.4745 17.4071 75.4745 16.9595C75.4745 16.6177 75.3983 16.3247 75.2457 16.0806C75.0931 15.8364 74.8923 15.6289 74.6434 15.458C74.4025 15.279 74.1254 15.1284 73.8122 15.0063C73.4991 14.8843 73.1779 14.7826 72.8487 14.7012C72.5274 14.6117 72.2102 14.5343 71.8971 14.4692C71.5839 14.396 71.3069 14.3228 71.0659 14.2495C70.5922 14.1112 70.0983 13.9647 69.5844 13.8101C69.0704 13.6473 68.5645 13.4642 68.0667 13.2607C67.5688 13.0573 67.095 12.8254 66.6452 12.5649C66.2036 12.2964 65.8142 11.9831 65.4769 11.625C65.1397 11.2588 64.8706 10.8397 64.6699 10.3677C64.4691 9.88753 64.3687 9.33822 64.3687 8.71973C64.3687 7.97917 64.457 7.32406 64.6338 6.75439C64.8184 6.1766 65.0754 5.67611 65.4046 5.25293C65.7339 4.82975 66.1234 4.47575 66.573 4.19092C67.0227 3.89795 67.5166 3.66602 68.0546 3.49512C68.5926 3.31608 69.1628 3.18994 69.7651 3.1167C70.3753 3.03532 70.9976 2.99463 71.6321 2.99463C72.4994 2.99463 73.2863 3.07601 73.9929 3.23877C74.7076 3.40153 75.3661 3.63346 75.9684 3.93457C76.5706 4.23568 77.1207 4.59782 77.6186 5.021C78.1245 5.43604 78.5983 5.8999 79.04 6.4126L76.5827 8.93945C76.3899 8.35352 76.121 7.82454 75.7757 7.35254C75.4384 6.88053 75.061 6.4777 74.6434 6.14404C74.2258 5.80225 73.7882 5.54183 73.3304 5.36279C72.8728 5.17562 72.4311 5.08203 72.0055 5.08203C71.4513 5.08203 70.9415 5.12272 70.4757 5.2041C70.01 5.27734 69.6085 5.40348 69.2712 5.58252C68.9419 5.75342 68.685 5.98942 68.5002 6.29053C68.3155 6.5835 68.2233 6.94971 68.2233 7.38916C68.2233 7.7391 68.2915 8.03613 68.428 8.28027C68.5645 8.52441 68.7452 8.73193 68.97 8.90283C69.2029 9.07373 69.4639 9.21615 69.753 9.33008C70.0421 9.43587 70.3392 9.52946 70.6444 9.61084C70.9576 9.69222 71.2627 9.76546 71.5598 9.83057C71.865 9.88753 72.142 9.95264 72.3909 10.0259C72.8728 10.1642 73.3787 10.3107 73.9087 10.4653C74.4386 10.62 74.9606 10.8031 75.4745 11.0146C75.9884 11.2181 76.4783 11.4541 76.9441 11.7227C77.4099 11.9912 77.8194 12.3127 78.1727 12.687C78.526 13.0532 78.8071 13.4805 79.0159 13.9687C79.2246 14.4489 79.329 15.0023 79.329 15.6289ZM98.8302 12.5894V12.8213C98.8144 13.5049 98.7424 14.2129 98.6136 14.9453C98.4932 15.6777 98.3206 16.4102 98.0957 17.1426C97.8708 17.875 97.6018 18.5993 97.2886 19.3154C96.9754 20.0316 96.6222 20.7152 96.2287 21.3662C95.8432 22.0254 95.4256 22.6398 94.976 23.2095C94.5262 23.7873 94.0525 24.2959 93.5546 24.7354L91.7598 23.6855C92.0409 23.2054 92.2939 22.6805 92.5187 22.1108C92.7515 21.5493 92.9603 20.9593 93.145 20.3408C93.3298 19.7223 93.4864 19.0876 93.6148 18.4365C93.7513 17.7855 93.8638 17.1385 93.9521 16.4956C94.0404 15.8527 94.1047 15.222 94.1448 14.6035C94.193 13.9769 94.2171 13.3828 94.2171 12.8213C94.2171 12.3818 94.2131 11.8854 94.205 11.332C94.205 10.7705 94.1729 10.2008 94.1087 9.62305C94.0525 9.04525 93.9561 8.48372 93.8196 7.93848C93.6831 7.38509 93.4783 6.89274 93.2052 6.46143C92.9403 6.03011 92.595 5.68424 92.1693 5.42383C91.7518 5.16341 91.2299 5.0332 90.6035 5.0332C90.0494 5.0332 89.5716 5.13086 89.1701 5.32617C88.7766 5.51335 88.4393 5.76969 88.1583 6.09521C87.8852 6.4126 87.6644 6.78288 87.4958 7.20605C87.3351 7.62923 87.2067 8.07682 87.1103 8.54883C87.022 9.0127 86.9617 9.4847 86.9297 9.96484C86.9056 10.4368 86.8936 10.8844 86.8936 11.3076V14.7134H92.0851V16.7275H86.8936V21H82.1115V12.0645C82.1115 10.7868 82.3123 9.59863 82.7138 8.5C83.1153 7.40137 83.6815 6.44922 84.4122 5.64355C85.151 4.82975 86.0343 4.19499 87.0622 3.73926C88.0981 3.27539 89.2504 3.04346 90.5192 3.04346C91.3784 3.04346 92.1814 3.1696 92.9283 3.42187C93.6831 3.66602 94.3697 4.00781 94.988 4.44727C95.6063 4.87858 96.1564 5.39535 96.6382 5.99756C97.1281 6.59163 97.5335 7.24268 97.8548 7.95068C98.184 8.65869 98.433 9.40739 98.6016 10.1968C98.77 10.9862 98.847 11.7837 98.8302 12.5894ZM104.167 21H101.95V3.42187H105.058L115.597 15.4946V3.42187H117.802V21H114.694L104.167 8.93945V21ZM134.184 21H121.729V3.42187H126.511V18.7661H134.184V21ZM148.409 3.42187L142.796 13.6147V21H138.014V13.8833L132.34 3.42187H137.219L140.989 12.2598L145.036 3.42187H148.409Z" fill="#2B00D9"/>
<path d="M79.6422 39.9688C79.6422 40.9941 79.4897 41.9544 79.1846 42.8496C78.8794 43.7448 78.4377 44.526 77.8596 45.1934C77.2813 45.8525 76.5747 46.3734 75.7395 46.7559C74.9044 47.1383 73.9569 47.3296 72.8969 47.3296C72.3588 47.3296 71.8449 47.2482 71.3551 47.0854C70.8732 46.9227 70.4275 46.6948 70.018 46.4019C69.6165 46.1007 69.2592 45.7427 68.946 45.3276C68.6408 44.9126 68.3999 44.4487 68.2233 43.936L66.4165 47H64.8506V27.7129H68.9219V34.5854C69.4037 33.91 69.9819 33.4136 70.6565 33.0962C71.339 32.7788 72.0858 32.6201 72.8969 32.6201C73.9569 32.6201 74.9044 32.8114 75.7395 33.1938C76.5747 33.5763 77.2813 34.0972 77.8596 34.7563C78.4377 35.4155 78.8794 36.1927 79.1846 37.0879C79.4897 37.9831 79.6422 38.9434 79.6422 39.9688ZM75.5107 39.9688C75.5107 39.6107 75.4907 39.2323 75.4505 38.8335C75.4183 38.4266 75.3581 38.0238 75.2698 37.625C75.1815 37.2262 75.057 36.8438 74.8964 36.4775C74.7438 36.1113 74.5471 35.7899 74.3062 35.5132C74.0653 35.2284 73.7762 35.0046 73.4389 34.8418C73.1016 34.6709 72.7042 34.5854 72.2464 34.5854C71.8288 34.5854 71.4554 34.675 71.1263 34.854C70.805 35.0249 70.5199 35.2568 70.271 35.5498C70.0301 35.8428 69.8253 36.1764 69.6567 36.5508C69.488 36.9251 69.3516 37.3117 69.2472 37.7104C69.1428 38.1092 69.0665 38.5039 69.0182 38.8945C68.9701 39.2852 68.946 39.6432 68.946 39.9688C68.946 40.335 68.9621 40.7215 68.9942 41.1284C69.0343 41.5353 69.0986 41.9422 69.1869 42.3491C69.2752 42.7479 69.3957 43.1304 69.5482 43.4966C69.7089 43.8547 69.9096 44.1761 70.1505 44.4609C70.3995 44.7376 70.6926 44.9574 71.0298 45.1201C71.3751 45.2829 71.7807 45.3643 72.2464 45.3643C72.6961 45.3643 73.0896 45.2829 73.4269 45.1201C73.7721 44.9492 74.0653 44.7254 74.3062 44.4487C74.5471 44.1639 74.7438 43.8384 74.8964 43.4722C75.057 43.0978 75.1815 42.7113 75.2698 42.3125C75.3581 41.9137 75.4183 41.515 75.4505 41.1162C75.4907 40.7093 75.5107 40.3268 75.5107 39.9688ZM86.5443 29.4951C86.5443 29.8044 86.484 30.0973 86.3635 30.374C86.2511 30.6507 86.0945 30.8908 85.8938 31.0942C85.693 31.2977 85.4562 31.4604 85.1832 31.5825C84.9101 31.6965 84.621 31.7534 84.3159 31.7534C84.0107 31.7534 83.7216 31.6965 83.4486 31.5825C83.1836 31.4604 82.9507 31.2977 82.7499 31.0942C82.5492 30.8908 82.3886 30.6507 82.2682 30.374C82.1557 30.0973 82.0996 29.8044 82.0996 29.4951C82.0996 29.1859 82.1557 28.897 82.2682 28.6284C82.3886 28.3517 82.5492 28.1117 82.7499 27.9082C82.9507 27.7048 83.1836 27.5461 83.4486 27.4321C83.7216 27.3101 84.0107 27.249 84.3159 27.249C84.621 27.249 84.9101 27.3101 85.1832 27.4321C85.4562 27.5461 85.693 27.7048 85.8938 27.9082C86.0945 28.1117 86.2511 28.3517 86.3635 28.6284C86.484 28.897 86.5443 29.1859 86.5443 29.4951ZM86.3635 47H82.2802V32.9131H86.3635V47ZM93.8558 47H89.7844V26.4067H91.3504L93.8558 30.6914V47ZM101.529 29.4951C101.529 29.8044 101.469 30.0973 101.347 30.374C101.236 30.6507 101.079 30.8908 100.878 31.0942C100.677 31.2977 100.441 31.4604 100.167 31.5825C99.895 31.6965 99.6059 31.7534 99.3 31.7534C98.9951 31.7534 98.706 31.6965 98.433 31.5825C98.168 31.4604 97.9351 31.2977 97.7344 31.0942C97.5336 30.8908 97.373 30.6507 97.2526 30.374C97.1402 30.0973 97.0839 29.8044 97.0839 29.4951C97.0839 29.1859 97.1402 28.897 97.2526 28.6284C97.373 28.3517 97.5336 28.1117 97.7344 27.9082C97.9351 27.7048 98.168 27.5461 98.433 27.4321C98.706 27.3101 98.9951 27.249 99.3 27.249C99.6059 27.249 99.895 27.3101 100.167 27.4321C100.441 27.5461 100.677 27.7048 100.878 27.9082C101.079 28.1117 101.236 28.3517 101.347 28.6284C101.469 28.897 101.529 29.1859 101.529 29.4951ZM101.347 47H97.2646V32.9131H101.347V47ZM126.294 38.7725C126.294 39.7409 126.181 40.75 125.956 41.7998C125.732 42.8496 125.414 43.875 125.005 44.876C124.603 45.8688 124.118 46.8088 123.548 47.6958C122.977 48.5828 122.343 49.3519 121.644 50.0029L120.115 49.1606C120.347 48.7375 120.561 48.2614 120.753 47.7324C120.945 47.2035 121.122 46.646 121.283 46.0601C121.444 45.4741 121.584 44.8719 121.704 44.2534C121.825 43.6349 121.925 43.0205 122.006 42.4102C122.094 41.7917 122.158 41.1935 122.199 40.6157C122.239 40.0379 122.259 39.4967 122.259 38.9922C122.259 38.7074 122.251 38.3981 122.234 38.0645C122.218 37.7308 122.183 37.3971 122.127 37.0635C122.078 36.7298 122.001 36.4124 121.898 36.1113C121.793 35.8021 121.648 35.5295 121.463 35.2935C121.287 35.0493 121.062 34.8581 120.79 34.7197C120.524 34.5732 120.203 34.5 119.825 34.5C119.456 34.5 119.139 34.6017 118.874 34.8052C118.617 35.0005 118.397 35.2568 118.211 35.5742C118.027 35.8916 117.879 36.2497 117.766 36.6484C117.662 37.0472 117.582 37.45 117.525 37.8569C117.469 38.2557 117.429 38.6382 117.404 39.0044C117.388 39.3706 117.38 39.6799 117.38 39.9321V47H113.321V40.4326C113.321 40.1478 113.325 39.806 113.333 39.4072C113.341 39.0003 113.329 38.5771 113.297 38.1377C113.272 37.6982 113.221 37.2629 113.14 36.8315C113.068 36.3921 112.948 36.0015 112.779 35.6597C112.618 35.3179 112.397 35.0412 112.117 34.8296C111.836 34.6099 111.482 34.5 111.056 34.5C110.695 34.5 110.39 34.6017 110.141 34.8052C109.9 35.0086 109.695 35.2731 109.527 35.5986C109.366 35.916 109.238 36.2782 109.141 36.6851C109.053 37.0838 108.985 37.4867 108.937 37.8936C108.896 38.2923 108.872 38.6748 108.865 39.041C108.857 39.3991 108.852 39.6961 108.852 39.9321V47H104.769V32.9009H106.335L107.829 36.1846C108.166 35.0452 108.696 34.1582 109.418 33.5234C110.149 32.8805 111.116 32.5591 112.321 32.5591C113.406 32.5591 114.305 32.7869 115.019 33.2427C115.734 33.6984 116.296 34.439 116.705 35.4644C116.938 35.0168 117.196 34.6139 117.477 34.2559C117.766 33.8978 118.083 33.5926 118.428 33.3403C118.781 33.0881 119.171 32.8968 119.597 32.7666C120.022 32.6283 120.493 32.5591 121.006 32.5591C121.954 32.5591 122.761 32.7178 123.427 33.0352C124.102 33.3444 124.652 33.7757 125.077 34.3291C125.503 34.8825 125.812 35.5417 126.005 36.3066C126.198 37.0635 126.294 37.8854 126.294 38.7725Z" fill="#2B00D9"/>
<path fill-rule="evenodd" clip-rule="evenodd" d="M49.5085 50.0044C47.251 50.0044 45.3044 49.1568 43.6684 47.4615C42.0326 45.7323 40.9202 43.4607 40.3313 40.6465C40.3313 40.6465 41.7125 45.9358 41.3809 47.4615C41.0495 48.9871 39.7801 49.4958 39.7801 49.4958H33.5098V13.3867H40.3313C40.3313 13.3867 40.769 13.532 41.3809 15.2031C41.9929 16.8741 40.3313 30.5665 40.3313 30.5665L38.0502 34.8557C37.993 34.9637 37.9633 35.0849 37.9637 35.2082C37.9642 35.3315 37.9948 35.4528 38.0525 35.561C38.191 35.6741 38.3239 35.7944 38.4515 35.9185C39.3993 36.8466 40.0706 38.0346 40.3864 39.3415C40.9216 40.5781 41.7924 41.625 42.8877 42.358C42.9978 42.435 43.1108 42.5087 43.2267 42.5791C43.5814 42.7874 43.9486 42.958 44.3288 43.0909C44.9849 43.3305 45.6745 43.4651 46.3735 43.488C47.4484 43.5232 48.5145 43.2933 49.4836 42.8172C50.4525 42.3411 51.2965 41.6326 51.9452 40.7504C52.5939 39.8683 53.0289 38.8379 53.2139 37.7449C53.3988 36.6519 53.3285 35.5276 53.0088 34.4656C52.689 33.4034 52.1291 32.434 51.3755 31.6379C50.6218 30.8416 49.6961 30.2415 48.6752 29.8873C47.6542 29.5331 46.5676 29.435 45.5052 29.6012C45.1657 29.7141 44.8177 29.7981 44.4647 29.8523C43.5495 29.9978 42.6142 29.9458 41.7175 29.6996C41.6047 29.6682 41.4924 29.6342 41.3809 29.5972C41.9733 28.267 42.7357 27.1186 43.6684 26.152C45.3044 24.4229 47.251 23.5583 49.5085 23.5583C51.4388 23.5583 53.1727 24.1347 54.7105 25.2875C56.2809 26.4402 57.5078 28.0338 58.3912 30.0681C59.3073 32.0686 59.7653 34.3063 59.7653 36.7813C59.7653 39.2564 59.3073 41.5111 58.3912 43.5454C57.5078 45.5459 56.2809 47.1225 54.7105 48.2752C53.1727 49.428 51.4388 50.0044 49.5085 50.0044ZM36.2613 34.4509L36.4365 34.5509C36.6016 34.6442 36.7952 34.6664 36.9753 34.6129C37.1553 34.5593 37.3074 34.4342 37.398 34.2649L39.8598 29.6357C39.928 29.5068 39.9567 29.3596 39.9426 29.2131C39.9283 29.0666 39.8718 28.9277 39.7801 28.8145C39.7244 28.7442 39.6562 28.6856 39.579 28.6418L39.4039 28.5418C39.3984 28.5384 39.3927 28.5357 39.3867 28.5337C39.3861 28.5316 39.3861 28.5316 39.3841 28.5322C39.2203 28.4453 39.0307 28.4274 38.8549 28.4824C38.6794 28.5373 38.5318 28.6607 38.4431 28.8264L35.9812 33.4557C35.8915 33.6255 35.8706 33.8253 35.923 34.0118C35.9755 34.1982 36.097 34.3562 36.2613 34.4509ZM37.5445 29.01L35.6513 32.5699C35.5611 32.7395 35.4093 32.8647 35.2291 32.9182C35.0489 32.9715 34.8553 32.9487 34.6906 32.8547L34.5154 32.7546C34.3508 32.6605 34.2288 32.503 34.176 32.3166C34.1234 32.1303 34.1445 31.9304 34.2346 31.7608L36.1278 28.2009C36.218 28.0315 36.3699 27.9062 36.5501 27.8527C36.7302 27.7994 36.924 27.8222 37.0886 27.9162L37.2638 28.0162C37.4284 28.1102 37.5505 28.2677 37.6031 28.4542C37.6558 28.6406 37.6346 28.8405 37.5445 29.01Z" fill="#2B00D9"/>
<path d="M44.1716 40.4962C45.8723 41.5158 47.7328 41.8509 49.3404 41.5633C48.45 41.9587 47.4833 42.1332 46.5165 42.0731C45.5499 42.0131 44.61 41.72 43.7714 41.2174C42.9328 40.7146 42.2185 40.016 41.685 39.1768C41.1516 38.3376 40.8138 37.3811 40.6982 36.3828C41.2623 37.9719 42.4708 39.4767 44.1716 40.4962Z" fill="#2B00D9"/>
<path d="M31.2388 22.8475C30.6193 22.0966 29.9331 21.4078 29.1894 20.7903L30.8591 17.4072C31.068 16.9809 31.106 16.4861 30.9648 16.0307C30.8236 15.5753 30.5147 15.1965 30.1054 14.9768L29.8619 14.8475C29.6972 14.7598 29.52 14.7004 29.3371 14.6713C29.4003 14.3612 29.384 14.0393 29.2899 13.7377C29.1958 13.4362 29.0272 13.1655 28.8008 12.9527L32.5215 7.44327C29.5792 3.00681 23.8772 0 17.3247 0C7.75715 0 0 6.41091 0 14.3192C0 17.2928 1.09719 20.0544 2.97415 22.3433C3.45204 22.923 3.96987 23.4655 4.52355 23.9671C4.50037 24.0078 4.47718 24.05 4.45544 24.0936L2.15815 28.7452C1.9494 29.1718 1.91166 29.6667 2.05314 30.1221C2.19462 30.5775 2.50382 30.9562 2.91329 31.1756L3.15533 31.3051C3.30313 31.3841 3.46138 31.4399 3.62492 31.4706L0.442071 35.3818C2.72775 41.081 9.22829 45.1909 16.8898 45.1909C26.4573 45.1909 34.2129 38.78 34.2129 30.8732C34.2129 27.8995 33.1157 25.1364 31.2388 22.8475ZM5.06563 29.8919C5.01966 29.9906 4.95297 30.0772 4.87042 30.1455C4.78788 30.2137 4.69165 30.2619 4.58878 30.2863C4.4634 30.3189 4.33167 30.3136 4.20904 30.2712C4.17808 30.262 4.14799 30.25 4.11918 30.2352L3.93946 30.1448C3.77066 30.0598 3.64106 29.9089 3.57888 29.7251C3.51671 29.5415 3.527 29.3395 3.60754 29.1637L5.31927 25.4705C5.37113 25.3598 5.44878 25.2642 5.54521 25.1924C5.64163 25.1207 5.75379 25.0751 5.8715 25.0597C6.0063 25.0421 6.14314 25.0651 6.26573 25.126L6.44544 25.2162C6.51619 25.2509 6.58047 25.2983 6.63533 25.3561C6.72998 25.4523 6.79633 25.5745 6.82664 25.7084C6.86601 25.8729 6.84857 26.0464 6.77735 26.1989L5.27145 29.448L5.06563 29.8919ZM5.95121 31.8349L5.77148 31.7461C5.60231 31.6606 5.47259 31.5091 5.41067 31.3247C5.34875 31.1403 5.35966 30.9379 5.44103 30.7618L6.39471 28.7016L6.40775 28.676L7.07883 27.2268L7.57597 26.1553L7.66582 25.9596C7.71208 25.8596 7.78006 25.772 7.8644 25.7039C7.9442 25.6383 8.0366 25.5914 8.13538 25.5663C8.23415 25.5411 8.33697 25.5382 8.4369 25.5578C8.49048 25.5673 8.54262 25.584 8.59199 25.6075C8.59488 25.6075 8.5949 25.609 8.5949 25.609C8.60103 25.6106 8.60689 25.6132 8.61229 25.6165L8.79346 25.7068C8.87241 25.746 8.94328 25.8006 9.00218 25.8679C9.09955 25.976 9.16325 26.1122 9.18497 26.2584C9.20669 26.4047 9.18541 26.5545 9.12392 26.688L9.02972 26.8926L6.89765 31.4902C6.81578 31.6659 6.67029 31.8007 6.49293 31.8652C6.31556 31.9299 6.1208 31.9188 5.95121 31.8349ZM22.2656 36.2442C21.8798 37.0763 21.3401 37.8214 20.677 38.4368C20.0139 39.0523 19.2405 39.526 18.4011 39.8312C17.5616 40.1362 16.6725 40.2667 15.7845 40.2148C14.8964 40.1631 14.027 39.9301 13.2257 39.5294C11.898 38.8689 10.8156 37.7746 10.1443 36.4142C10.0255 36.0109 9.87169 35.6196 9.68483 35.245C9.27852 34.4199 8.71777 33.6872 8.03543 33.0899C7.90209 32.9725 7.76295 32.8597 7.61801 32.7544C7.55498 32.6489 7.5185 32.5287 7.51192 32.4049C7.50533 32.2811 7.52886 32.1574 7.58033 32.0456L8.06733 30.9951L9.81385 27.2252L9.9457 26.9409C10.0067 26.8108 10.1029 26.702 10.2226 26.6279C10.3155 26.5708 10.4194 26.5359 10.5269 26.5254C10.6777 26.5706 10.8313 26.6083 10.985 26.6414C11.8938 26.8351 12.8314 26.8315 13.7389 26.6308C14.089 26.5545 14.4327 26.4487 14.7664 26.3149C16.229 25.9916 17.7537 26.1827 19.1 26.8581C19.8224 27.2181 20.4771 27.7088 21.0337 28.3074C21.9961 29.3406 22.6304 30.6555 22.8507 32.0748C23.071 33.494 22.8667 34.9492 22.2656 36.2442ZM23.0714 19.2102C23.0117 19.3407 22.9151 19.4494 22.7946 19.5217C22.7032 19.5813 22.5994 19.6169 22.4916 19.6255C22.3394 19.5819 22.1874 19.5443 22.0336 19.5111C21.1247 19.3174 20.1873 19.3211 19.2798 19.5217C18.9295 19.5969 18.5857 19.7021 18.2522 19.8362C16.7892 20.1608 15.264 19.9701 13.9171 19.2945C12.9691 18.8225 12.1406 18.1268 11.4981 17.2628C10.7279 16.2296 10.2502 14.9942 10.1184 13.6949C9.98655 12.3957 10.2058 11.0839 10.7516 9.90681C11.5311 8.22684 12.9214 6.93706 14.6165 6.32101C16.3118 5.70496 18.1731 5.81309 19.7914 6.6216C21.1192 7.28246 22.2021 8.3766 22.8743 9.73674C22.9924 10.1407 23.1457 10.5326 23.3323 10.9076C23.7395 11.7321 24.3001 12.4645 24.9818 13.0626C25.1165 13.18 25.2557 13.2928 25.3992 13.3982C25.4627 13.5033 25.4997 13.6234 25.5065 13.7474C25.5133 13.8713 25.4899 13.995 25.4382 14.107L24.9673 15.1228L23.7599 17.7248L23.0714 19.2102ZM25.3513 20.1913C25.3055 20.2922 25.2374 20.3802 25.1528 20.4486C25.0514 20.5321 24.93 20.5849 24.8017 20.6017C24.6734 20.6184 24.5433 20.5982 24.4252 20.5435C24.4237 20.545 24.4237 20.545 24.4223 20.5419C24.4163 20.5406 24.4104 20.5386 24.4049 20.536L24.2251 20.4457C24.1455 20.4064 24.0742 20.3511 24.015 20.2831C23.9178 20.1749 23.8542 20.0387 23.8325 19.8926C23.8108 19.7462 23.8319 19.5966 23.8932 19.463L24.557 18.0303L26.1194 14.6623C26.2012 14.4864 26.3466 14.3513 26.524 14.2864C26.7012 14.2215 26.8961 14.2322 27.0659 14.3162L27.2471 14.4065C27.394 14.4804 27.5118 14.6048 27.5805 14.7587C27.6248 14.8578 27.6475 14.9657 27.647 15.075C27.6464 15.1843 27.6228 15.2921 27.5775 15.3908L26.6326 17.4299L26.6283 17.4374L26.0369 18.7121L25.3513 20.1913ZM27.6979 20.682C27.6158 20.8574 27.4702 20.992 27.2928 21.0562C27.1155 21.1206 26.9207 21.1094 26.7514 21.0251L26.5716 20.9347C26.5013 20.9001 26.4371 20.8533 26.3818 20.7964C26.2771 20.6884 26.2072 20.5492 26.182 20.3982C26.1567 20.2473 26.1775 20.0918 26.2413 19.9536L26.6601 19.0476H26.6615L27.9529 16.2606C28.0274 16.1006 28.1549 15.974 28.312 15.9041C28.4691 15.8341 28.6453 15.8255 28.8081 15.8797C28.8391 15.8889 28.8691 15.9011 28.898 15.9159L29.0792 16.0061C29.248 16.0916 29.3776 16.2427 29.4395 16.4268C29.5013 16.6109 29.4907 16.813 29.4096 16.9889L28.0501 19.9219L27.6979 20.682Z" fill="#2B00D9"/>
<path d="M14.6494 17.1838C16.3503 18.2035 18.2108 18.5384 19.8184 18.251C18.928 18.6462 17.9611 18.8207 16.9946 18.7607C16.0279 18.7006 15.0881 18.4076 14.2494 17.9048C13.4108 17.4022 12.6965 16.7036 12.163 15.8644C11.6296 15.0253 11.2917 14.0686 11.1763 13.0703C11.7402 14.6595 12.9487 16.1642 14.6494 17.1838Z" fill="#2B00D9"/>
<path d="M18.3602 29.0455C16.6594 28.0258 14.7988 27.6909 13.1914 27.9783C14.0818 27.5831 15.0486 27.4086 16.0152 27.4686C16.9819 27.5286 17.9217 27.8217 18.7604 28.3244C19.599 28.8271 20.3133 29.5257 20.8467 30.3649C21.3801 31.204 21.718 32.1607 21.8335 33.159C21.2695 31.5698 20.061 30.0651 18.3602 29.0455Z" fill="#2B00D9"/>
</svg>
