<svg width="93" height="30" viewBox="0 0 93 30" fill="none" xmlns="http://www.w3.org/2000/svg">
<path d="M7.28156 21.3438C5.90023 21.3438 4.65704 21.107 3.55198 20.6334C2.44692 20.1401 1.57866 19.4494 0.947194 18.5614C0.315731 17.6734 0 16.6374 0 15.4534H3.61118C3.69011 16.3414 4.03544 17.0716 4.64717 17.6438C5.27864 18.2161 6.15676 18.5022 7.28156 18.5022C8.44582 18.5022 9.35354 18.226 10.0047 17.6734C10.6559 17.1012 10.9815 16.371 10.9815 15.4831C10.9815 14.7924 10.7743 14.23 10.3599 13.7959C9.96527 13.3617 9.46208 13.0263 8.85035 12.7895C8.25835 12.5527 7.42955 12.2961 6.36396 12.0199C5.0221 11.6647 3.92691 11.3095 3.07838 10.9543C2.24959 10.5793 1.53919 10.0071 0.947194 9.23749C0.355198 8.46789 0.0591996 7.44176 0.0591996 6.15911C0.0591996 4.97511 0.355198 3.93912 0.947194 3.05112C1.53919 2.16313 2.36799 1.48233 3.43358 1.00874C4.49917 0.535139 5.7325 0.29834 7.13356 0.29834C9.12661 0.29834 10.7546 0.801537 12.0175 1.80793C13.3002 2.79459 14.0106 4.15618 14.1487 5.89271H10.4191C10.3599 5.14285 10.0047 4.50152 9.35354 3.96872C8.70235 3.43592 7.84395 3.16952 6.77836 3.16952C5.81143 3.16952 5.0221 3.41619 4.41037 3.90952C3.79864 4.40285 3.49278 5.11325 3.49278 6.04071C3.49278 6.67217 3.68024 7.1951 4.05518 7.6095C4.44984 8.00416 4.94317 8.31989 5.53517 8.55669C6.12716 8.79349 6.93623 9.05002 7.96235 9.32629C9.32394 9.70122 10.429 10.0761 11.2775 10.4511C12.1458 10.826 12.8759 11.4081 13.4679 12.1975C14.0796 12.9671 14.3855 14.0031 14.3855 15.3055C14.3855 16.3513 14.0994 17.338 13.5271 18.2654C12.9746 19.1929 12.1557 19.9428 11.0703 20.515C10.0047 21.0675 8.74181 21.3438 7.28156 21.3438Z" fill="#EFEFEF"/>
<path d="M33.3151 12.5823C33.3151 13.194 33.2756 13.7465 33.1967 14.2399H20.7351C20.8338 15.5422 21.3173 16.5881 22.1855 17.3774C23.0538 18.1668 24.1194 18.5614 25.3823 18.5614V21.403C23.8234 21.403 22.4223 21.0577 21.1791 20.367C19.9557 19.6566 18.9887 18.67 18.2784 17.407C17.5877 16.1244 17.2424 14.6444 17.2424 12.9671C17.2424 11.2897 17.5778 9.81962 18.2488 8.55669C18.9394 7.27403 19.8965 6.28737 21.1199 5.59671C22.3631 4.90605 23.7839 4.56072 25.3823 4.56072C26.9215 4.56072 28.293 4.89618 29.4967 5.56711C30.7004 6.23804 31.6377 7.18523 32.3087 8.40869C32.9796 9.61242 33.3151 11.0036 33.3151 12.5823ZM29.7927 11.5167C29.7729 10.2735 29.329 9.27695 28.4607 8.52709C27.5924 7.77723 26.517 7.4023 25.2343 7.4023C24.0701 7.4023 23.0735 7.77723 22.2447 8.52709C21.4159 9.25722 20.9226 10.2537 20.7647 11.5167H29.7927Z" fill="#EFEFEF"/>
<path d="M40.0102 4.82711C40.0102 6.95337 41.3619 5.84337 42.3486 5.33031C43.3352 4.81725 44.4501 4.56072 45.6933 4.56072C47.1141 4.56072 48.4067 4.91591 49.5709 5.62631C50.7549 6.31697 51.6824 7.29377 52.3533 8.55669C53.0242 9.81962 53.3597 11.27 53.3597 12.9079C53.3597 14.5457 53.0242 16.0158 52.3533 17.3182C51.6824 18.6009 50.7549 19.6073 49.5709 20.3374C48.4067 21.0478 47.1141 21.403 45.6933 21.403C44.4501 21.403 43.3451 21.1563 42.3782 20.663C41.4112 20.15 40.6219 19.5185 40.0102 18.7686V28.8918H36.6358V4.82711H40.0102ZM49.9261 12.9079C49.9261 11.7831 49.6893 10.8161 49.2157 10.0071C48.7618 9.17829 48.1501 8.55669 47.3805 8.1423C46.6307 7.70816 45.8216 7.4911 44.9533 7.4911C44.1048 7.4911 43.2957 7.70816 42.5262 8.1423C41.7763 8.57643 41.1646 9.20789 40.691 10.0367C40.2371 10.8655 40.0102 11.8423 40.0102 12.9671C40.0102 14.0919 40.2371 15.0785 40.691 15.927C41.1646 16.7558 41.7763 17.3873 42.5262 17.8214C43.2957 18.2556 44.1048 18.4726 44.9533 18.4726C45.8216 18.4726 46.6307 18.2556 47.3805 17.8214C48.1501 17.3676 48.7618 16.7164 49.2157 15.8678C49.6893 15.0193 49.9261 14.0327 49.9261 12.9079Z" fill="#EFEFEF"/>
<path d="M63.2678 4.56072C64.5307 4.56072 65.6456 4.81725 66.6125 5.33031C67.5992 5.82364 68.3688 6.44524 68.9213 7.1951V4.82711L72.3253 7.1951V21.403C72.3253 22.9027 72.0096 24.2347 71.3781 25.399C70.7467 26.583 69.8291 27.5104 68.6253 28.1814C67.4413 28.8523 66.0206 29.1878 64.363 29.1878C62.1528 29.1878 60.3176 28.6648 58.8574 27.619C57.3971 26.5928 56.5683 25.1918 56.371 23.4158H59.7158C59.9723 24.2643 60.515 24.9451 61.3438 25.4582C62.1923 25.991 63.1987 26.2574 64.363 26.2574C65.7246 26.2574 66.8197 25.843 67.6485 25.0142C68.4971 24.1854 68.9213 22.9817 68.9213 21.403V18.6798C68.3491 19.4494 67.5696 20.1006 66.5829 20.6334C65.616 21.1465 64.511 21.403 63.2678 21.403C61.847 21.403 60.5446 21.0478 59.3606 20.3374C58.1963 19.6073 57.2689 18.6009 56.5782 17.3182C55.9073 16.0158 55.5718 14.5457 55.5718 12.9079C55.5718 11.27 55.9073 9.81962 56.5782 8.55669C57.2689 7.29377 58.1963 6.31697 59.3606 5.62631C60.5446 4.91591 61.847 4.56072 63.2678 4.56072ZM68.9213 12.9671C68.9213 11.8423 68.6845 10.8655 68.2109 10.0367C67.7571 9.20789 67.1552 8.57643 66.4053 8.1423C65.6555 7.70816 64.8464 7.4911 63.9782 7.4911C63.1099 7.4911 62.3008 7.70816 61.551 8.1423C60.8011 8.55669 60.1894 9.17829 59.7158 10.0071C59.2619 10.8161 59.035 11.7831 59.035 12.9079C59.035 14.0327 59.2619 15.0193 59.7158 15.8678C60.1894 16.7164 60.8011 17.3676 61.551 17.8214C62.3206 18.2556 63.1296 18.4726 63.9782 18.4726C64.8464 18.4726 65.6555 18.2556 66.4053 17.8214C67.1552 17.3873 67.7571 16.7558 68.2109 15.927C68.6845 15.0785 68.9213 14.0919 68.9213 12.9671Z" fill="#EFEFEF"/>
<path d="M80.1318 4.82711V21.1366H76.7574V4.82711H80.1318Z" fill="#EFEFEF"/>
<path d="M88.4988 7.5799V16.6078C88.4988 17.2196 88.637 17.6636 88.9132 17.9398C89.2092 18.1964 89.7026 18.3246 90.3932 18.3246H92.4652V21.1366H89.8012C88.2818 21.1366 87.1175 20.7814 86.3084 20.071C85.4994 19.3606 85.0949 18.2062 85.0949 16.6078V7.5799H83.1709V4.82711H85.0949V0.505539H88.4988V4.82711H92.4652V7.5799H88.4988Z" fill="#EFEFEF"/>
<path d="M76.935 2.04474C77.3494 2.45914 77.8625 2.66634 78.4742 2.66634C79.0662 2.66634 79.5694 2.45914 79.9838 2.04474C80.3982 1.63035 80.6054 1.11728 80.6054 0.505554L78.4742 0.505539L76.3134 0.505554C76.3134 1.11728 76.5206 1.63035 76.935 2.04474Z" fill="#487FFF"/>
</svg>
